<svg width="48" height="48" viewBox="0 0 48 48" fill="none" xmlns="http://www.w3.org/2000/svg">
<path d="M42.8 34.3999C42.5763 33.9438 42.4981 33.4299 42.576 32.9279C42.928 30.8719 46.16 30.0239 47.2 29.5999C46.16 29.1759 42.928 28.3279 42.576 26.2719C42.224 24.2159 44.968 22.2959 45.8 21.5439C44.68 21.5039 41.36 21.8319 40.328 20.0239C39.296 18.2159 41.24 15.4559 41.776 14.4559C40.712 14.8159 37.696 16.2719 36.12 14.9279C34.544 13.5839 35.44 10.3199 35.6 9.1999C34.72 9.9039 32.384 12.3199 30.448 11.6079C28.512 10.8959 28.256 7.5119 28.032 6.3999C27.44 7.3679 26.056 10.4479 24 10.4479C21.944 10.4479 20.56 7.3679 19.968 6.3999C19.744 7.5119 19.48 10.8879 17.552 11.6079C15.624 12.3279 13.28 9.9039 12.4 9.1999C12.56 10.3199 13.456 13.5919 11.88 14.9279C10.304 16.2639 7.28799 14.8159 6.22399 14.4559C6.75999 15.4559 8.69599 18.2159 7.67199 20.0239C6.64799 21.8319 3.31999 21.5039 2.19999 21.5439C3.03199 22.2959 5.78399 24.2159 5.42399 26.2719C5.06399 28.3279 1.83999 29.1759 0.799988 29.5999C1.83999 30.0239 5.07199 30.8719 5.42399 32.9279C5.50185 33.4299 5.42366 33.9438 5.19999 34.3999H42.8Z" fill="#F9EAB0"/>
<path d="M39.3368 34.4001C40.0455 31.9992 40.1885 29.4667 39.7547 27.0013C39.3209 24.5358 38.322 22.2043 36.8364 20.1895C35.3508 18.1747 33.4187 16.5312 31.1917 15.388C28.9647 14.2448 26.5031 13.6328 24 13.6001C21.4969 13.6328 19.0354 14.2448 16.8083 15.388C14.5813 16.5312 12.6493 18.1747 11.1636 20.1895C9.67801 22.2043 8.67915 24.5358 8.24534 27.0013C7.81154 29.4667 7.95456 31.9992 8.66322 34.4001H39.3368Z" fill="#F0C419"/>
<path d="M16.8 19.2001C17.2418 19.2001 17.6 18.8419 17.6 18.4001C17.6 17.9583 17.2418 17.6001 16.8 17.6001C16.3582 17.6001 16 17.9583 16 18.4001C16 18.8419 16.3582 19.2001 16.8 19.2001Z" fill="#F9EAB0"/>
<path d="M13.6 23.2001C14.0418 23.2001 14.4 22.8419 14.4 22.4001C14.4 21.9583 14.0418 21.6001 13.6 21.6001C13.1582 21.6001 12.8 21.9583 12.8 22.4001C12.8 22.8419 13.1582 23.2001 13.6 23.2001Z" fill="#F9EAB0"/>
<path d="M17.6 23.2001C18.0418 23.2001 18.4 22.8419 18.4 22.4001C18.4 21.9583 18.0418 21.6001 17.6 21.6001C17.1582 21.6001 16.8 21.9583 16.8 22.4001C16.8 22.8419 17.1582 23.2001 17.6 23.2001Z" fill="#F9EAB0"/>
<path d="M47.2 35.2001H0.8C0.587827 35.2001 0.384344 35.1158 0.234315 34.9658C0.0842855 34.8158 0 34.6123 0 34.4001C0 34.1879 0.0842855 33.9844 0.234315 33.8344C0.384344 33.6844 0.587827 33.6001 0.8 33.6001H47.2C47.4122 33.6001 47.6157 33.6844 47.7657 33.8344C47.9157 33.9844 48 34.1879 48 34.4001C48 34.6123 47.9157 34.8158 47.7657 34.9658C47.6157 35.1158 47.4122 35.2001 47.2 35.2001ZM42.4 38.4001H5.6C5.38783 38.4001 5.18434 38.3158 5.03431 38.1658C4.88429 38.0158 4.8 37.8123 4.8 37.6001C4.8 37.3879 4.88429 37.1844 5.03431 37.0344C5.18434 36.8844 5.38783 36.8001 5.6 36.8001H42.4C42.6122 36.8001 42.8157 36.8844 42.9657 37.0344C43.1157 37.1844 43.2 37.3879 43.2 37.6001C43.2 37.8123 43.1157 38.0158 42.9657 38.1658C42.8157 38.3158 42.6122 38.4001 42.4 38.4001ZM36.8 42.4001H11.2C10.9878 42.4001 10.7843 42.3158 10.6343 42.1658C10.4843 42.0158 10.4 41.8123 10.4 41.6001C10.4 41.3879 10.4843 41.1844 10.6343 41.0344C10.7843 40.8844 10.9878 40.8001 11.2 40.8001H36.8C37.0122 40.8001 37.2157 40.8844 37.3657 41.0344C37.5157 41.1844 37.6 41.3879 37.6 41.6001C37.6 41.8123 37.5157 42.0158 37.3657 42.1658C37.2157 42.3158 37.0122 42.4001 36.8 42.4001Z" fill="#F29C1F"/>
</svg>
