<svg width="38" height="48" viewBox="0 0 38 48" fill="none" xmlns="http://www.w3.org/2000/svg">
<path d="M24.6266 22.1406H12.9641L2.5483 41.9518C2.23724 42.5435 2.59724 43.2662 3.25696 43.3742L7.44571 44.0599C7.86401 44.1284 8.24881 44.3307 8.54231 44.6365L11.4818 47.6984C11.9449 48.1806 12.7443 48.0676 13.0553 47.4758L18.7954 36.5581L24.5354 47.4759C24.8465 48.0677 25.6459 48.1807 26.1089 47.6985L29.0484 44.6366C29.342 44.3309 29.7268 44.1286 30.145 44.06L34.3338 43.3742C34.9935 43.2662 35.3536 42.5436 35.0424 41.9519L24.6266 22.1406Z" fill="#AD7FDD"/>
<path d="M31.7654 35.7187L24.6266 22.1406H12.9641L5.82532 35.7188C6.39363 36.151 7.09179 36.392 7.81263 36.392C8.1153 36.392 8.41651 36.3501 8.70766 36.2673C9.0731 37.719 10.3736 38.7465 11.8953 38.7463C12.4865 38.7469 13.0668 38.5867 13.5738 38.2828C14.1504 39.3124 15.2492 39.9644 16.443 39.9643C16.6428 39.9643 16.8401 39.9453 17.033 39.9102L18.7953 36.5581L20.5577 39.9101C20.7507 39.9452 20.948 39.9642 21.148 39.9642C22.3418 39.9641 23.4404 39.3122 24.0168 38.2827C24.524 38.5867 25.1043 38.7469 25.6956 38.7462C27.217 38.7462 28.5174 37.7189 28.8829 36.2673C29.1742 36.3501 29.4755 36.392 29.7783 36.3919C30.4991 36.3919 31.1972 36.1508 31.7654 35.7187Z" fill="#9D66D6"/>
<path d="M19.4979 1.48132L20.4473 0.331292C20.8756 -0.187521 21.6992 -0.0790519 21.9785 0.532854L22.5979 1.88942C22.8357 2.4101 23.4889 2.58514 23.9552 2.25307L25.1699 1.38795C25.7179 0.997667 26.4853 1.31557 26.5968 1.97895L26.844 3.4496C26.9389 4.01407 27.5246 4.35223 28.0609 4.15217L29.4581 3.63092C30.0884 3.39579 30.7474 3.90148 30.6834 4.57114L30.5416 6.05567C30.4871 6.62539 30.9653 7.1037 31.5351 7.04923L33.0197 6.90739C33.6893 6.84335 34.195 7.50242 33.9599 8.1327L33.4386 9.52995C33.2386 10.0662 33.5767 10.6519 34.1412 10.7468L35.6119 10.994C36.2753 11.1055 36.5931 11.8729 36.2029 12.4209L35.3377 13.6356C35.0057 14.1019 35.1808 14.7551 35.7014 14.9929L37.0579 15.6123C37.6699 15.8916 37.7783 16.7152 37.2595 17.1435L36.1095 18.0929C35.6681 18.4573 35.6681 19.1336 36.1095 19.498L37.2595 20.4474C37.7783 20.8757 37.6699 21.6993 37.0579 21.9786L35.7014 22.598C35.1807 22.8358 35.0057 23.489 35.3377 23.9553L36.2029 25.17C36.5931 25.718 36.2752 26.4854 35.6119 26.5969L34.1412 26.8441C33.5767 26.939 33.2386 27.5247 33.4386 28.061L33.9599 29.4582C34.195 30.0885 33.6893 30.7475 33.0197 30.6835L31.5351 30.5417C30.9654 30.4872 30.4871 30.9654 30.5416 31.5352L30.6834 33.0198C30.7474 33.6894 30.0884 34.1951 29.4581 33.96L28.0609 33.4387C27.5246 33.2387 26.9389 33.5768 26.844 34.1413L26.5968 35.6119C26.4853 36.2754 25.7179 36.5932 25.1699 36.203L23.9552 35.3378C23.4889 35.0058 22.8357 35.1809 22.5979 35.7015L21.9785 37.058C21.6992 37.67 20.8756 37.7784 20.4473 37.2596L19.4979 36.1096C19.1335 35.6682 18.4572 35.6682 18.0928 36.1096L17.1434 37.2596C16.7151 37.7784 15.8915 37.67 15.6122 37.058L14.9928 35.7015C14.755 35.1808 14.1018 35.0058 13.6355 35.3378L12.4208 36.203C11.8729 36.5932 11.1054 36.2753 10.9939 35.6119L10.7467 34.1413C10.6519 33.5768 10.0661 33.2387 9.52985 33.4387L8.1326 33.96C7.50232 34.1951 6.84326 33.6894 6.90729 33.0198L7.04914 31.5352C7.1036 30.9655 6.62539 30.4872 6.05557 30.5417L4.57104 30.6835C3.90139 30.7475 3.3957 30.0885 3.63082 29.4582L4.15207 28.061C4.35214 27.5247 4.01398 26.939 3.44951 26.8441L1.97885 26.5969C1.31539 26.4854 0.997573 25.718 1.38785 25.17L2.25298 23.9553C2.58504 23.489 2.40992 22.8358 1.88932 22.598L0.532761 21.9786C-0.0792393 21.6993 -0.187614 20.8757 0.331198 20.4474L1.48123 19.498C1.9226 19.1336 1.9226 18.4573 1.48123 18.0929L0.331292 17.1434C-0.187521 16.7151 -0.0790519 15.8915 0.532854 15.6122L1.88942 14.9928C2.4101 14.755 2.58514 14.1018 2.25307 13.6355L1.38795 12.4208C0.997667 11.8729 1.31557 11.1054 1.97895 10.9939L3.4496 10.7467C4.01407 10.6519 4.35223 10.0661 4.15217 9.52985L3.63092 8.1326C3.39579 7.50232 3.90148 6.84326 4.57114 6.90729L6.05567 7.04914C6.62539 7.1036 7.1037 6.62539 7.04923 6.05557L6.90739 4.57104C6.84336 3.90139 7.50242 3.3957 8.1327 3.63082L9.52995 4.15207C10.0662 4.35214 10.6519 4.01398 10.7468 3.44951L10.994 1.97885C11.1055 1.31539 11.8729 0.997573 12.4209 1.38785L13.6356 2.25298C14.1019 2.58504 14.7551 2.40992 14.9929 1.88932L15.6123 0.532761C15.8916 -0.0792394 16.7152 -0.187614 17.1435 0.331198L18.0928 1.48132C18.4572 1.9227 19.1335 1.9227 19.4979 1.48132Z" fill="#F7E365"/>
<path d="M37.2594 20.4472L36.1094 19.4978C35.668 19.1334 35.668 18.4571 36.1094 18.0928L37.2594 17.1433C37.7782 16.7151 37.6698 15.8915 37.0578 15.6121L35.7013 14.9927C35.1806 14.755 35.0056 14.1017 35.3376 13.6355L36.2027 12.4208C36.593 11.8728 36.2751 11.1054 35.6118 10.9939L34.1411 10.7467C33.5766 10.6518 33.2385 10.0661 33.4385 9.52982L33.9598 8.13257C34.1949 7.50229 33.6892 6.84322 33.0196 6.90725L31.535 7.0491C30.9653 7.10357 30.4871 6.62525 30.5415 6.05554L30.6833 4.571C30.7473 3.90135 30.0883 3.39566 29.458 3.63078L28.6629 3.92741C30.4489 6.71263 31.4847 10.0251 31.4847 13.5795C31.4847 23.4682 23.4684 31.4845 13.5798 31.4845C10.0254 31.4845 6.71284 30.4487 3.92762 28.6627L3.631 29.4578C3.39587 30.0881 3.90156 30.7471 4.57122 30.6831L6.05575 30.5413C6.62547 30.4868 7.10378 30.9651 7.04931 31.5348L6.90747 33.0193C6.84344 33.689 7.5025 34.1947 8.13278 33.9596L9.53003 33.4383C10.0663 33.2383 10.652 33.5764 10.7469 34.1409L10.9941 35.6115C11.1056 36.275 11.873 36.5928 12.421 36.2025L13.6357 35.3374C14.1019 35.0053 14.7552 35.1805 14.9929 35.7011L15.6123 37.0576C15.8917 37.6696 16.7153 37.778 17.1436 37.2592L18.093 36.1092C18.4574 35.6678 19.1337 35.6678 19.4981 36.1092L20.4475 37.2592C20.8757 37.778 21.6993 37.6695 21.9787 37.0576L22.5981 35.7011C22.8359 35.1804 23.4891 35.0053 23.9553 35.3374L25.1701 36.2025C25.718 36.5928 26.4855 36.2749 26.5969 35.6115L26.8442 34.1409C26.939 33.5764 27.5248 33.2383 28.061 33.4383L29.4583 33.9596C30.0886 34.1947 30.7476 33.689 30.6836 33.0193L30.5418 31.5348C30.4873 30.9651 30.9656 30.4868 31.5353 30.5413L33.0198 30.6831C33.6895 30.7471 34.1952 30.0881 33.9601 29.4578L33.4388 28.0605C33.2387 27.5243 33.5769 26.9385 34.1414 26.8437L35.612 26.5964C36.2755 26.485 36.5933 25.7175 36.203 25.1696L35.3379 23.9548C35.0058 23.4886 35.181 22.8354 35.7016 22.5976L37.0581 21.9782C37.6698 21.699 37.7782 20.8755 37.2594 20.4472Z" fill="#F3D332"/>
<path d="M18.7954 32.6445C26.444 32.6445 32.6445 26.4441 32.6445 18.7954C32.6445 11.1468 26.444 4.94629 18.7954 4.94629C11.1467 4.94629 4.94623 11.1468 4.94623 18.7954C4.94623 26.4441 11.1467 32.6445 18.7954 32.6445Z" fill="#E69642"/>
<path d="M31.4847 13.5795C31.4847 23.4682 23.4684 31.4845 13.5798 31.4845C13.4641 31.4845 13.3487 31.4832 13.2336 31.4811C14.936 32.2286 16.817 32.6443 18.7954 32.6443C26.4441 32.6443 32.6445 26.4439 32.6445 18.7952C32.6445 16.8168 32.2287 14.9358 31.4812 13.2334C31.4835 13.3484 31.4847 13.4638 31.4847 13.5795Z" fill="#E38523"/>
<path d="M18.7953 29.4785C24.6957 29.4785 29.4789 24.6953 29.4789 18.7949C29.4789 12.8945 24.6957 8.11133 18.7953 8.11133C12.895 8.11133 8.11179 12.8945 8.11179 18.7949C8.11179 24.6953 12.895 29.4785 18.7953 29.4785Z" fill="#F7E365"/>
<path d="M24.6256 9.8418C25.7195 11.5184 26.356 13.5207 26.356 15.672C26.356 21.5724 21.5728 26.3556 15.6724 26.3556C13.5212 26.3556 11.5188 25.7192 9.84222 24.6252C11.7488 27.547 15.0463 29.4787 18.7954 29.4787C24.6958 29.4787 29.479 24.6955 29.479 18.7951C29.4789 15.046 27.5474 11.7484 24.6256 9.8418Z" fill="#F3D332"/>
<path d="M18.2655 23.9652L15.8431 25.0098C14.9099 25.4122 13.8863 24.6685 13.9807 23.6567L14.2256 21.0301C14.2425 20.8487 14.2222 20.6657 14.1659 20.4924C14.1096 20.319 14.0185 20.1591 13.8981 20.0222L12.1562 18.0412C11.4851 17.278 11.876 16.0748 12.8675 15.8518L15.4413 15.273C15.6191 15.233 15.7868 15.1571 15.9343 15.05C16.0817 14.9429 16.2057 14.8068 16.2987 14.65L17.6445 12.3811C18.1629 11.5071 19.4281 11.5071 19.9465 12.3811L21.2923 14.65C21.3853 14.8068 21.5093 14.9429 21.6567 15.05C21.8042 15.1571 21.9719 15.233 22.1497 15.273L24.7234 15.8518C25.7149 16.0748 26.1059 17.278 25.4348 18.0412L23.6928 20.0222C23.5725 20.1591 23.4814 20.319 23.4251 20.4924C23.3688 20.6657 23.3485 20.8487 23.3654 21.0301L23.6103 23.6567C23.7046 24.6685 22.6811 25.4122 21.7479 25.0098L19.3255 23.9652C19.1581 23.8931 18.9778 23.8558 18.7955 23.8558C18.6132 23.8558 18.4329 23.8931 18.2655 23.9652Z" fill="#E69642"/>
<path d="M24.7232 15.8513L23.5517 15.5879C22.5086 20.0526 18.666 23.4408 13.9754 23.7999C13.9851 24.7368 14.9546 25.3925 15.843 25.0094L18.2654 23.9648C18.4327 23.8927 18.613 23.8554 18.7953 23.8554C18.9775 23.8554 19.1579 23.8927 19.3252 23.9648L21.7476 25.0094C22.6808 25.4118 23.7043 24.6681 23.61 23.6563L23.3651 21.0296C23.3482 20.8482 23.3685 20.6652 23.4248 20.4919C23.4811 20.3185 23.5722 20.1586 23.6926 20.0217L25.4346 18.0407C26.1057 17.2775 25.7147 16.0743 24.7232 15.8513Z" fill="#E38523"/>
</svg>
