<svg width="16" height="16" viewBox="0 0 16 16" fill="none" xmlns="http://www.w3.org/2000/svg">
<path d="M15.3333 7.333H13.9999V5.99966C13.9999 5.63148 13.7014 5.33301 13.3332 5.33301C12.965 5.33301 12.6666 5.63148 12.6666 5.99966V7.333H11.3332C10.965 7.333 10.6665 7.63147 10.6665 7.99965C10.6665 8.36784 10.965 8.66631 11.3332 8.66631H12.6666V9.99965C12.6666 10.3678 12.965 10.6663 13.3332 10.6663C13.7014 10.6663 13.9999 10.3678 13.9999 9.99965V8.66631H15.3333C15.7015 8.66631 16 8.36784 16 7.99965C16 7.63147 15.7015 7.333 15.3333 7.333Z" fill="#08233F"/>
<path d="M6.00012 7.99997C8.20932 7.99997 10.0002 6.20912 10.0002 3.99999C10.0002 1.79085 8.20932 0 6.00012 0C3.79091 0 2 1.79085 2 3.99999C2 6.20912 3.79091 7.99997 6.00012 7.99997Z" fill="#08233F"/>
<path d="M6.00018 9.33301C2.68789 9.3367 0.00368761 12.0208 0 15.333C0 15.7012 0.298478 15.9996 0.666676 15.9996H11.3337C11.7019 15.9996 12.0003 15.7012 12.0003 15.333C11.9967 12.0208 9.31247 9.33666 6.00018 9.33301Z" fill="#08233F"/>
</svg>
