<svg width="16" height="16" viewBox="0 0 16 16" fill="none" xmlns="http://www.w3.org/2000/svg">
<path d="M15.4653 6.39687C14.9138 5.6575 14.5444 4.77844 14.3966 3.85531C14.3056 3.28781 14.0422 2.7725 13.6347 2.365C13.2275 1.95781 12.7122 1.69438 12.1447 1.60344C11.2216 1.45563 10.3425 1.08625 9.60312 0.534688C9.13406 0.185 8.57969 0 8 0C7.42031 0 6.86594 0.185 6.39687 0.534688C5.6575 1.08625 4.77844 1.45563 3.85531 1.60344C3.28781 1.69438 2.7725 1.95781 2.365 2.36531C1.95781 2.7725 1.69438 3.28781 1.60344 3.85531C1.45563 4.77844 1.08625 5.6575 0.534688 6.39687C0.185 6.86594 0 7.42031 0 8C0 8.57969 0.185 9.13406 0.534688 9.60312C1.08625 10.3425 1.45563 11.2216 1.60344 12.1447C1.69438 12.7122 1.95781 13.2272 2.36531 13.635C2.77281 14.0422 3.28781 14.3056 3.85531 14.3966C4.77844 14.5444 5.6575 14.9138 6.39687 15.4653C6.86594 15.815 7.42031 16 8 16C8.57969 16 9.13406 15.815 9.60312 15.4653C10.3425 14.9138 11.2216 14.5444 12.1447 14.3966C12.7122 14.3056 13.2275 14.0422 13.635 13.6347C14.0422 13.2275 14.3056 12.7122 14.3966 12.1447C14.4706 11.6831 14.5997 11.2325 14.7794 10.805C14.9594 10.3775 15.1894 9.97281 15.4653 9.60312C15.815 9.13406 16 8.57969 16 8C16 7.42031 15.815 6.86594 15.4653 6.39687Z" fill="#FFF239"/>
<path d="M16 8C16 8.57969 15.815 9.13406 15.4653 9.60312C15.1894 9.97281 14.9594 10.3775 14.7794 10.805C14.5997 11.2325 14.4706 11.6831 14.3966 12.1447C14.3056 12.7122 14.0422 13.2275 13.635 13.6347C13.2275 14.0422 12.7122 14.3056 12.1447 14.3966C11.2216 14.5444 10.3425 14.9138 9.60312 15.4653C9.13406 15.815 8.57969 16 8 16V0C8.57969 0 9.13406 0.185 9.60312 0.534688C10.3425 1.08625 11.2216 1.45563 12.1447 1.60344C12.7122 1.69438 13.2275 1.95781 13.6347 2.365C14.0422 2.7725 14.3056 3.28781 14.3966 3.85531C14.5444 4.77844 14.9138 5.6575 15.4653 6.39687C15.815 6.86594 16 7.42031 16 8Z" fill="#FFD600"/>
<path d="M8 2.28125C4.84656 2.28125 2.28125 4.84656 2.28125 8C2.28125 11.1534 4.84656 13.7188 8 13.7188C11.1534 13.7188 13.7188 11.1534 13.7188 8C13.7188 4.84656 11.1534 2.28125 8 2.28125Z" fill="#FFD600"/>
<path d="M13.7188 8C13.7188 11.1534 11.1534 13.7188 8 13.7188V2.28125C11.1534 2.28125 13.7188 4.84656 13.7188 8Z" fill="#FFB229"/>
<path d="M11.1917 6.8425C11.1591 6.75142 11.0993 6.67263 11.0202 6.61691C10.9412 6.56119 10.8468 6.53127 10.7501 6.53125H9.05573L8.44073 4.83969C8.37323 4.65469 8.1973 4.53125 8.00011 4.53125C7.80292 4.53125 7.62698 4.65469 7.55948 4.83969L6.94448 6.53125H5.25011C5.05198 6.53125 4.87511 6.65594 4.80855 6.8425C4.74198 7.02906 4.7998 7.23719 4.95323 7.36281L6.2548 8.42781L5.55948 10.3397C5.52623 10.4314 5.52239 10.5313 5.54849 10.6253C5.57459 10.7193 5.62933 10.8029 5.70511 10.8644C5.78098 10.9258 5.87411 10.9619 5.97153 10.9679C6.06894 10.9738 6.16578 10.9492 6.24855 10.8975L8.00011 9.80281L9.75167 10.8975C9.82792 10.9453 9.91417 10.9687 10.0001 10.9687C10.1051 10.9687 10.2095 10.9334 10.2951 10.8644C10.3709 10.8029 10.4256 10.7193 10.4517 10.6253C10.4778 10.5313 10.474 10.4314 10.4407 10.3397L9.74542 8.42781L11.047 7.36281C11.1218 7.3016 11.1759 7.21874 11.2018 7.12559C11.2277 7.03244 11.2242 6.93356 11.1917 6.8425Z" fill="#FFF239"/>
<path d="M11.0469 7.36281L9.74531 8.42781L10.4406 10.3397C10.5088 10.5278 10.4503 10.7384 10.295 10.8644C10.2115 10.9319 10.1074 10.9687 10 10.9688C9.91406 10.9688 9.82781 10.9453 9.75156 10.8975L8 9.80281V4.53125C8.19719 4.53125 8.37313 4.65469 8.44063 4.83969L9.05563 6.53125H10.75C10.9481 6.53125 11.125 6.65594 11.1916 6.8425C11.2581 7.02906 11.2003 7.23719 11.0469 7.36281Z" fill="#FFD600"/>
</svg>
