<svg width="48" height="44" viewBox="0 0 48 44" fill="none" xmlns="http://www.w3.org/2000/svg">
<path d="M7.34999 31.0879H41.5875V42.0754H7.34999C4.37812 42.0754 1.97812 39.666 1.97812 36.7035V36.4598C1.97812 33.4973 4.37812 31.0879 7.34999 31.0879Z" fill="url(#paint0_linear_369_5041)"/>
<path d="M7.32187 40.2561C5.325 40.2561 3.69375 38.6529 3.64688 36.6561C3.60938 34.5936 5.325 32.9154 7.3875 32.9154H41.5875C42.5906 32.9154 43.4062 32.0998 43.4062 31.0967C43.4062 30.0936 42.5906 29.2779 41.5875 29.2686H7.32187C3.27187 29.2686 0 32.5404 0 36.5811C0 40.6217 3.27187 43.8936 7.32187 43.9029H41.5875C42.5906 43.9029 43.4062 43.0873 43.4062 42.0842C43.4062 41.0811 42.5906 40.2654 41.5875 40.2561H7.32187Z" fill="url(#paint1_linear_369_5041)"/>
<path d="M13.7344 42.2904L12.0094 40.5936L10.2844 42.2904C9.98436 42.5904 9.49686 42.5904 9.19686 42.2904C9.05624 42.1498 8.97186 41.9529 8.97186 41.7467V35.9998C8.97186 35.3623 9.48749 34.8467 10.125 34.8467H13.8844C14.5219 34.8467 15.0375 35.3623 15.0375 35.9998V41.7467C15.0375 42.1686 14.6906 42.5154 14.2687 42.5154C14.0719 42.5061 13.875 42.4311 13.7344 42.2904Z" fill="url(#paint2_linear_369_5041)"/>
<path d="M11.9344 16.4531H46.1719V27.4406H11.9344C8.97188 27.4406 6.5625 25.0406 6.5625 22.0687V21.825C6.5625 18.8531 8.97188 16.4531 11.9344 16.4531Z" fill="url(#paint3_linear_369_5041)"/>
<path d="M11.9062 25.6217C9.9 25.6217 8.26875 24.0186 8.23125 22.0123C8.19375 19.9592 9.91875 18.2811 11.9719 18.2811H46.1813C47.1844 18.2811 48 17.4654 48 16.4623C48 15.4592 47.1844 14.6436 46.1813 14.6436H11.9062C7.86563 14.6436 4.59375 17.9248 4.59375 21.9654C4.59375 26.0061 7.86563 29.2779 11.9062 29.2779H46.1813C47.1844 29.2779 48 28.4623 48 27.4592C48 26.4561 47.1844 25.6404 46.1813 25.6311L11.9062 25.6217Z" fill="url(#paint4_linear_369_5041)"/>
<path d="M38.8219 27.6371L37.0969 25.9402L35.3719 27.6371C35.0719 27.9371 34.5844 27.9371 34.2844 27.6371C34.1438 27.4965 34.0594 27.2996 34.0594 27.0934V21.3465C34.0594 20.709 34.575 20.1934 35.2125 20.1934H38.9719C39.6094 20.1934 40.125 20.709 40.125 21.3465V27.0934C40.125 27.5152 39.7781 27.8621 39.3563 27.8621C39.1594 27.8527 38.9719 27.7777 38.8219 27.6371Z" fill="url(#paint5_linear_369_5041)"/>
<path d="M36.0656 12.8059H1.81876V1.81836H36.0656C39.0375 1.81836 41.4375 4.22773 41.4375 7.19023V7.43398C41.4375 10.3965 39.0281 12.8059 36.0656 12.8059Z" fill="url(#paint6_linear_369_5041)"/>
<path d="M36.0938 10.9875C38.1 10.9875 39.7313 9.38437 39.7688 7.37812C39.8063 5.325 38.0906 3.64688 36.0281 3.64688H1.81875C0.815625 3.6375 0 2.82187 0 1.81875C0 0.815625 0.815625 0 1.81875 0H36.0938C40.1344 0 43.4062 3.28125 43.4062 7.32187C43.4062 11.3625 40.1344 14.6344 36.0938 14.6438H1.81875C0.815625 14.625 0 13.8094 0 12.8063C0 11.8031 0.815625 10.9875 1.81875 10.9875H36.0938Z" fill="url(#paint7_linear_369_5041)"/>
<path d="M11.7656 13.1059L10.0406 11.409L8.31561 13.1059C8.01561 13.4059 7.52811 13.4059 7.22811 13.1059C7.08749 12.9652 7.00311 12.7684 7.00311 12.5621V6.81523C7.00311 6.17773 7.51874 5.66211 8.15624 5.66211H11.9156C12.5531 5.66211 13.0687 6.17773 13.0687 6.81523V12.5621C13.0687 12.984 12.7219 13.3309 12.3 13.3309C12.0937 13.3215 11.9062 13.2465 11.7656 13.1059Z" fill="url(#paint8_linear_369_5041)"/>
<defs>
<linearGradient id="paint0_linear_369_5041" x1="21.7823" y1="32.6357" x2="21.7823" y2="41.4379" gradientUnits="userSpaceOnUse">
<stop stop-color="#DEFFF1"/>
<stop offset="1" stop-color="#B8FFE2"/>
</linearGradient>
<linearGradient id="paint1_linear_369_5041" x1="21.7031" y1="31.3264" x2="21.7031" y2="43.0479" gradientUnits="userSpaceOnUse">
<stop stop-color="#00DA9F"/>
<stop offset="1" stop-color="#2CFFB3"/>
</linearGradient>
<linearGradient id="paint2_linear_369_5041" x1="12.008" y1="34.8382" x2="12.008" y2="42.5125" gradientUnits="userSpaceOnUse">
<stop stop-color="#346CEF"/>
<stop offset="1" stop-color="#1833E3"/>
</linearGradient>
<linearGradient id="paint3_linear_369_5041" x1="26.3714" y1="18" x2="26.3714" y2="26.8022" gradientUnits="userSpaceOnUse">
<stop stop-color="#FFFCF0"/>
<stop offset="1" stop-color="#FFEDCA"/>
</linearGradient>
<linearGradient id="paint4_linear_369_5041" x1="26.2969" y1="16.6911" x2="26.2969" y2="28.4126" gradientUnits="userSpaceOnUse">
<stop stop-color="#FFDD00"/>
<stop offset="1" stop-color="#FFBB17"/>
</linearGradient>
<linearGradient id="paint5_linear_369_5041" x1="37.0974" y1="20.1859" x2="37.0974" y2="27.8601" gradientUnits="userSpaceOnUse">
<stop stop-color="#00DA9F"/>
<stop offset="1" stop-color="#2CFFB3"/>
</linearGradient>
<linearGradient id="paint6_linear_369_5041" x1="21.6258" y1="3.36523" x2="21.6258" y2="12.1674" gradientUnits="userSpaceOnUse">
<stop stop-color="#DCEAFF"/>
<stop offset="1" stop-color="#92B4FF"/>
</linearGradient>
<linearGradient id="paint7_linear_369_5041" x1="21.7031" y1="2.05688" x2="21.7031" y2="13.7784" gradientUnits="userSpaceOnUse">
<stop stop-color="#346CEF"/>
<stop offset="1" stop-color="#1833E3"/>
</linearGradient>
<linearGradient id="paint8_linear_369_5041" x1="10.0359" y1="5.65555" x2="10.0359" y2="13.3298" gradientUnits="userSpaceOnUse">
<stop stop-color="#FFDD00"/>
<stop offset="1" stop-color="#FFBB17"/>
</linearGradient>
</defs>
</svg>
