<svg width="13" height="14" viewBox="0 0 13 14" fill="none" xmlns="http://www.w3.org/2000/svg">
<path d="M0.597452 4H11.8947C11.9628 4.00001 12.0302 3.98611 12.0927 3.95916C12.1552 3.93221 12.2116 3.89277 12.2583 3.84327C12.3051 3.79376 12.3412 3.73523 12.3645 3.67126C12.3879 3.60729 12.3979 3.53923 12.394 3.47125L12.3877 3.3415C12.3065 2.0285 11.209 1 9.8887 1H9.2462V0.5C9.2462 0.367392 9.19352 0.240215 9.09976 0.146447C9.00599 0.0526784 8.87881 0 8.7462 0C8.61359 0 8.48642 0.0526784 8.39265 0.146447C8.29888 0.240215 8.2462 0.367392 8.2462 0.5V1H4.2462V0.5C4.2462 0.367392 4.19352 0.240215 4.09976 0.146447C4.00599 0.0526784 3.87881 0 3.7462 0C3.61359 0 3.48642 0.0526784 3.39265 0.146447C3.29888 0.240215 3.2462 0.367392 3.2462 0.5V1H2.6037C1.28345 1 0.185702 2.02875 0.104452 3.3425L0.0982024 3.4715C0.0942126 3.53948 0.104173 3.60756 0.12747 3.67155C0.150767 3.73554 0.186908 3.79408 0.233672 3.84359C0.280435 3.89309 0.336831 3.9325 0.399392 3.9594C0.461952 3.9863 0.529354 4.00012 0.597452 4ZM12.4722 5.4875C12.469 5.35709 12.4149 5.2331 12.3216 5.14202C12.2282 5.05093 12.1029 4.99996 11.9725 5H0.519952C0.389501 5.00002 0.264219 5.051 0.170815 5.14207C0.077412 5.23314 0.0232772 5.35709 0.0199524 5.4875C-0.0252159 7.2567 0.0063137 9.02703 0.114452 10.7935C0.192452 12.0485 1.1977 13.0535 2.4522 13.1315C4.97889 13.2898 7.51302 13.2897 10.0397 13.1313C11.2947 13.0533 12.2997 12.048 12.378 10.7933C12.4855 9.06375 12.5172 7.2785 12.4722 5.4875ZM8.7462 8C8.54729 8 8.35653 7.92098 8.21587 7.78033C8.07522 7.63968 7.9962 7.44891 7.9962 7.25C7.9962 7.05109 8.07522 6.86032 8.21587 6.71967C8.35653 6.57902 8.54729 6.5 8.7462 6.5C8.94512 6.5 9.13588 6.57902 9.27653 6.71967C9.41718 6.86032 9.4962 7.05109 9.4962 7.25C9.4962 7.44891 9.41718 7.63968 9.27653 7.78033C9.13588 7.92098 8.94512 8 8.7462 8ZM9.4962 9.75C9.4962 9.94891 9.41718 10.1397 9.27653 10.2803C9.13588 10.421 8.94512 10.5 8.7462 10.5C8.54729 10.5 8.35653 10.421 8.21587 10.2803C8.07522 10.1397 7.9962 9.94891 7.9962 9.75C7.9962 9.55109 8.07522 9.36032 8.21587 9.21967C8.35653 9.07902 8.54729 9 8.7462 9C8.94512 9 9.13588 9.07902 9.27653 9.21967C9.41718 9.36032 9.4962 9.55109 9.4962 9.75ZM3.7462 9C3.94511 9 4.13588 9.07902 4.27653 9.21967C4.41718 9.36032 4.4962 9.55109 4.4962 9.75C4.4962 9.94891 4.41718 10.1397 4.27653 10.2803C4.13588 10.421 3.94511 10.5 3.7462 10.5C3.54729 10.5 3.35652 10.421 3.21587 10.2803C3.07522 10.1397 2.9962 9.94891 2.9962 9.75C2.9962 9.55109 3.07522 9.36032 3.21587 9.21967C3.35652 9.07902 3.54729 9 3.7462 9ZM2.9962 7.25C2.9962 7.15151 3.0156 7.05398 3.05329 6.96299C3.09098 6.87199 3.14623 6.78931 3.21587 6.71967C3.28552 6.65003 3.3682 6.59478 3.45919 6.55709C3.55018 6.5194 3.64771 6.5 3.7462 6.5C3.84469 6.5 3.94222 6.5194 4.03322 6.55709C4.12421 6.59478 4.20689 6.65003 4.27653 6.71967C4.34618 6.78931 4.40142 6.87199 4.43911 6.96299C4.4768 7.05398 4.4962 7.15151 4.4962 7.25C4.4962 7.44891 4.41718 7.63968 4.27653 7.78033C4.13588 7.92098 3.94511 8 3.7462 8C3.54729 8 3.35652 7.92098 3.21587 7.78033C3.07522 7.63968 2.9962 7.44891 2.9962 7.25ZM5.4962 9.75C5.4962 9.55109 5.57522 9.36032 5.71587 9.21967C5.85652 9.07902 6.04729 9 6.2462 9C6.44511 9 6.63588 9.07902 6.77653 9.21967C6.91718 9.36032 6.9962 9.55109 6.9962 9.75C6.9962 9.94891 6.91718 10.1397 6.77653 10.2803C6.63588 10.421 6.44511 10.5 6.2462 10.5C6.04729 10.5 5.85652 10.421 5.71587 10.2803C5.57522 10.1397 5.4962 9.94891 5.4962 9.75ZM6.2462 8C6.04729 8 5.85652 7.92098 5.71587 7.78033C5.57522 7.63968 5.4962 7.44891 5.4962 7.25C5.4962 7.05109 5.57522 6.86032 5.71587 6.71967C5.85652 6.57902 6.04729 6.5 6.2462 6.5C6.44511 6.5 6.63588 6.57902 6.77653 6.71967C6.91718 6.86032 6.9962 7.05109 6.9962 7.25C6.9962 7.44891 6.91718 7.63968 6.77653 7.78033C6.63588 7.92098 6.44511 8 6.2462 8Z" fill="currentColor"/>
</svg>
