<svg width="20" height="20" viewBox="0 0 20 20" fill="none" xmlns="http://www.w3.org/2000/svg">
<path d="M8.24199 6.05437C3.71883 6.05437 3.8409e-07 9.1648 3.8409e-07 12.9882C3.8409e-07 14.5165 0.592813 16.0698 1.67996 17.2736L0.144766 19.028C0.0706486 19.1126 0.0225348 19.2169 0.00619684 19.3282C-0.0101411 19.4396 0.00599056 19.5533 0.0526566 19.6557C0.0990864 19.7582 0.174081 19.8451 0.268661 19.9061C0.363241 19.9671 0.473397 19.9996 0.585938 19.9996H8.82793C12.1676 19.9996 16.484 17.1238 16.484 12.9882C16.484 9.1648 12.7652 6.05437 8.24199 6.05437ZM4.68738 14.0622C4.04137 14.0622 3.51555 13.5363 3.51555 12.8903C3.51555 12.2443 4.04141 11.7185 4.68738 11.7185C5.33336 11.7185 5.85922 12.2444 5.85922 12.8903C5.85926 13.5363 5.3334 14.0622 4.68738 14.0622ZM8.24199 14.0622C7.59598 14.0622 7.07016 13.5363 7.07016 12.8903C7.07016 12.2443 7.59602 11.7185 8.24199 11.7185C8.88797 11.7185 9.41383 12.2444 9.41383 12.8903C9.41383 13.5363 8.88801 14.0622 8.24199 14.0622ZM11.7966 14.0622C11.1506 14.0622 10.6248 13.5363 10.6248 12.8903C10.6248 12.2443 11.1506 11.7185 11.7966 11.7185C12.4426 11.7185 12.9684 12.2444 12.9684 12.8903C12.9684 13.5363 12.4426 14.0622 11.7966 14.0622Z" fill="currentColor"/>
<path d="M19.8582 11.9227L18.4786 10.3132C19.4634 9.20199 19.9995 7.84699 19.9995 6.44516C19.9995 2.89129 16.5824 0 12.3825 0C8.58466 0 5.35806 2.36676 4.78833 5.44727C5.84802 5.08719 7.03642 4.8825 8.242 4.8825C13.373 4.8825 17.5885 8.46629 17.6501 12.8903H19.4136C19.9141 12.8904 20.1829 12.301 19.8582 11.9227Z" fill="currentColor"/>
</svg>
