<svg width="15" height="9" viewBox="0 0 15 9" fill="none" xmlns="http://www.w3.org/2000/svg">
<path d="M0.439116 7.7322C0.578417 7.87159 0.743819 7.98216 0.92587 8.0576C1.10792 8.13304 1.30305 8.17188 1.50012 8.17188C1.69718 8.17188 1.89231 8.13304 2.07436 8.0576C2.25642 7.98216 2.42182 7.87159 2.56112 7.7322L7.14712 3.1472C7.24088 3.05346 7.36803 3.0008 7.50062 3.0008C7.6332 3.0008 7.76035 3.05346 7.85412 3.1472L12.4391 7.7322C12.7204 8.01359 13.1019 8.17173 13.4998 8.17182C13.8976 8.17192 14.2792 8.01396 14.5606 7.7327C14.842 7.45143 15.0002 7.06991 15.0002 6.67205C15.0003 6.27419 14.8424 5.89259 14.5611 5.6112L9.97512 1.0252C9.65011 0.700153 9.26425 0.442313 8.83959 0.266399C8.41493 0.0904856 7.95977 -5.72205e-05 7.50012 -5.72205e-05C7.04046 -5.72205e-05 6.58531 0.0904856 6.16064 0.266399C5.73598 0.442313 5.35013 0.700153 5.02512 1.0252L0.439116 5.6112C0.157909 5.89249 -6.19888e-05 6.27395 -6.19888e-05 6.6717C-6.19888e-05 7.06944 0.157909 7.4509 0.439116 7.7322Z" fill="#E89B32"/>
</svg>
