<svg width="17" height="17" viewBox="0 0 17 17" fill="none" xmlns="http://www.w3.org/2000/svg">
<path d="M15.9043 13.5905C16.0606 13.7414 16.1852 13.922 16.271 14.1216C16.3568 14.3213 16.4019 14.536 16.4038 14.7533C16.4057 14.9705 16.3643 15.186 16.282 15.3871C16.1997 15.5882 16.0782 15.7709 15.9246 15.9246C15.7709 16.0782 15.5882 16.1997 15.3871 16.282C15.186 16.3643 14.9705 16.4057 14.7533 16.4038C14.536 16.4019 14.3213 16.3568 14.1216 16.271C13.922 16.1852 13.7414 16.0606 13.5905 15.9043L8.20192 10.5157L2.81338 15.9043C2.49429 16.2234 2.07538 16.3837 1.65647 16.3837C1.23756 16.3837 0.818654 16.2242 0.499563 15.9043C0.192792 15.5974 0.0204575 15.1813 0.0204575 14.7474C0.0204575 14.3135 0.192792 13.8973 0.499563 13.5905L5.88811 8.20192L0.499563 2.81338C0.343273 2.66243 0.218611 2.48187 0.132851 2.28222C0.047091 2.08258 0.00194985 1.86786 6.17843e-05 1.65058C-0.00182628 1.43331 0.0395762 1.21783 0.121854 1.01673C0.204132 0.815625 0.325637 0.632922 0.479279 0.479279C0.632922 0.325637 0.815625 0.204132 1.01673 0.121854C1.21783 0.0395762 1.43331 -0.00182628 1.65058 6.17843e-05C1.86786 0.00194985 2.08258 0.047091 2.28222 0.132851C2.48187 0.218611 2.66243 0.343273 2.81338 0.499563L8.20192 5.88811L13.5905 0.499563C13.7414 0.343273 13.922 0.218611 14.1216 0.132851C14.3213 0.047091 14.536 0.00194985 14.7533 6.17843e-05C14.9705 -0.00182628 15.186 0.0395762 15.3871 0.121854C15.5882 0.204132 15.7709 0.325637 15.9246 0.479279C16.0782 0.632922 16.1997 0.815625 16.282 1.01673C16.3643 1.21783 16.4057 1.43331 16.4038 1.65058C16.4019 1.86786 16.3568 2.08258 16.271 2.28222C16.1852 2.48187 16.0606 2.66243 15.9043 2.81338L10.5157 8.20192L15.9043 13.5905Z" fill="#404040"/>
</svg>
