<svg width="40" height="40" viewBox="0 0 40 40" fill="none" xmlns="http://www.w3.org/2000/svg">
<path d="M27.3686 25.0553C27.5249 25.2063 27.6496 25.3868 27.7354 25.5865C27.8211 25.7861 27.8663 26.0008 27.8681 26.2181C27.87 26.4354 27.8286 26.6509 27.7464 26.852C27.6641 27.0531 27.5426 27.2358 27.3889 27.3894C27.2353 27.5431 27.0526 27.6646 26.8515 27.7468C26.6504 27.8291 26.4349 27.8705 26.2176 27.8686C26.0003 27.8667 25.7856 27.8216 25.586 27.7358C25.3863 27.6501 25.2058 27.5254 25.0548 27.3691L19.6663 21.9806L14.2777 27.3691C13.9586 27.6882 13.5397 27.8486 13.1208 27.8486C12.7019 27.8486 12.283 27.689 11.9639 27.3691C11.6571 27.0623 11.4848 26.6461 11.4848 26.2122C11.4848 25.7783 11.6571 25.3622 11.9639 25.0553L17.3525 19.6668L11.9639 14.2782C11.8076 14.1273 11.683 13.9467 11.5972 13.7471C11.5114 13.5474 11.4663 13.3327 11.4644 13.1154C11.4625 12.8982 11.5039 12.6827 11.5862 12.4816C11.6685 12.2805 11.79 12.0978 11.9436 11.9441C12.0973 11.7905 12.28 11.669 12.4811 11.5867C12.6822 11.5044 12.8977 11.463 13.1149 11.4649C13.3322 11.4668 13.5469 11.5119 13.7466 11.5977C13.9462 11.6835 14.1268 11.8081 14.2777 11.9644L19.6663 17.353L25.0548 11.9644C25.2058 11.8081 25.3863 11.6835 25.586 11.5977C25.7856 11.5119 26.0003 11.4668 26.2176 11.4649C26.4349 11.463 26.6504 11.5044 26.8515 11.5867C27.0526 11.669 27.2353 11.7905 27.3889 11.9441C27.5426 12.0978 27.6641 12.2805 27.7464 12.4816C27.8286 12.6827 27.87 12.8982 27.8681 13.1154C27.8663 13.3327 27.8211 13.5474 27.7354 13.7471C27.6496 13.9467 27.5249 14.1273 27.3686 14.2782L21.9801 19.6668L27.3686 25.0553Z" fill="#404040"/>
</svg>
