<svg width="48" height="48" viewBox="0 0 48 48" fill="none" xmlns="http://www.w3.org/2000/svg">
<path d="M47.6511 23.8252C47.6511 31.0553 44.4304 37.5329 39.3454 41.9021C38.2287 42.8629 37.0251 43.7178 35.7501 44.4558C34.7661 45.0266 33.742 45.5254 32.6859 45.9485C31.5919 46.3871 30.4665 46.743 29.3193 47.0133C28.0559 47.3117 26.7702 47.5059 25.4751 47.5939C24.9305 47.6318 24.3801 47.6503 23.8259 47.6503C23.2716 47.6503 22.7211 47.6318 22.1766 47.5939C20.8812 47.506 19.5952 47.3118 18.3316 47.0133C17.1846 46.7431 16.0595 46.3872 14.9659 45.9485C13.9098 45.5254 12.8858 45.0265 11.9016 44.4558C10.6266 43.7175 9.42274 42.8626 8.30548 41.9021C3.22058 37.5319 0.000732422 31.0544 0.000732422 23.8252C0.000732422 10.6669 10.6676 0 23.8259 0C36.9842 0 47.6511 10.6668 47.6511 23.8252Z" fill="#FFCC4E"/>
<path d="M46.3441 31.6272C43.1136 40.954 34.2516 47.6504 23.8259 47.6504C20.0061 47.6504 16.3963 46.7518 13.196 45.1541C8.2682 35.7369 4.33446 25.8322 1.45838 15.6001C0.974792 13.8812 0.521565 12.1538 0.0989101 10.4189C-0.36009 8.53617 0.82341 6.64374 2.71679 6.22852C5.00691 5.72677 7.2961 5.22399 9.58622 4.72121C15.9801 3.31899 22.3731 1.91574 28.7669 0.513424L29.6051 0.329674C29.9834 0.246987 30.3617 0.163362 30.741 0.080768C31.8068 -0.152576 32.8648 0.132331 33.6535 0.772174C34.2195 1.22921 34.6464 1.86914 34.836 2.62955C34.8418 2.65289 34.8476 2.67717 34.8545 2.70052C35.2663 4.34632 35.7138 5.98302 36.1965 7.60946C36.7813 9.57813 37.4176 11.5312 38.1045 13.4666C40.3312 19.7428 43.0876 25.8182 46.3441 31.6272Z" fill="#F2F2F2"/>
<path d="M36.1964 7.60946L26.819 33.5604L24.7983 22.8789L29.6051 0.329674C29.9834 0.246987 30.3617 0.163362 30.741 0.080768C31.8068 -0.152576 32.8648 0.132331 33.6535 0.772174C34.2195 1.22921 34.6464 1.86914 34.836 2.62955C34.8418 2.65289 34.8476 2.67717 34.8545 2.70052C35.2663 4.34632 35.7137 5.98302 36.1964 7.60946ZM46.344 31.6272C43.1135 40.954 34.2515 47.6504 23.8258 47.6504C20.006 47.6504 16.3962 46.7518 13.1959 45.1541C12.1567 43.1689 11.1617 41.1609 10.2114 39.1317C11.1615 39.7954 12.159 40.3886 13.1959 40.9065C16.3962 42.5042 20.006 43.4027 23.8258 43.4027C33.3209 43.4027 41.5196 37.848 45.3472 29.8107C45.6741 30.4191 46.0064 31.0246 46.344 31.6272Z" fill="#D5D4E2"/>
<path d="M7.48807 17.5308C6.86182 17.5308 6.28291 17.1243 6.09232 16.4939C5.85926 15.7227 6.29529 14.9085 7.06647 14.6755L32.1558 7.09036C32.9273 6.85729 33.7412 7.29342 33.9742 8.06451C34.2073 8.8357 33.7713 9.64983 33.0001 9.88289L7.91069 17.468C7.76997 17.5105 7.62785 17.5308 7.48807 17.5308ZM11.1843 26.283C10.5951 26.283 10.0403 25.9235 9.81963 25.3398C9.53472 24.5863 9.91451 23.7444 10.6681 23.4595L33.8125 14.7074C34.5659 14.4224 35.4079 14.8022 35.6928 15.5558C35.9778 16.3094 35.598 17.1512 34.8444 17.4361L11.7 26.1883C11.5352 26.2508 11.3605 26.2828 11.1843 26.283ZM15.5123 35.7157C14.9636 35.7157 14.4379 35.4046 14.1901 34.8748C13.8487 34.145 14.1635 33.2767 14.8933 32.9354L29.237 26.2254C29.9667 25.884 30.835 26.1989 31.1764 26.9286C31.5178 27.6584 31.203 28.5267 30.4732 28.868L16.1295 35.578C15.9364 35.6686 15.7256 35.7156 15.5123 35.7157Z" fill="#D5D4E2"/>
<path d="M37.7961 26.3851L32.4416 29.8854L26.8194 33.5605L26.6272 26.8464L26.4446 20.4519L29.0541 20.5662L36.069 20.8755L37.7961 26.3851Z" fill="#D5D4E2"/>
<path d="M26.8194 33.5605L26.6272 26.8464L26.4446 20.4519L29.0541 20.5662L30.154 23.0915L26.8194 33.5605Z" fill="#CBCBD3"/>
<path d="M47.7481 7.3448L45.4641 11.7147L34.1125 5.78142L36.3966 1.41155C36.9621 0.329579 38.2975 -0.0889213 39.3793 0.476485L46.813 4.36195C47.8949 4.92755 48.3135 6.26292 47.7481 7.3448Z" fill="#CF3067"/>
<path d="M47.7482 7.34477L45.4641 11.7146L37.5784 7.59293L39.8624 3.22305C40.4279 2.14118 41.7633 1.72258 42.8452 2.28799L46.8132 4.36193C47.895 4.92752 48.3136 6.2629 47.7482 7.34477Z" fill="#F14881"/>
<path d="M45.4118 11.815L37.7963 26.3851C36.2291 25.566 34.2941 26.1725 33.475 27.7396C34.2941 26.1725 33.6877 24.2375 32.1205 23.4184C30.5534 22.5993 28.6184 23.2058 27.7993 24.7729C28.6184 23.2058 28.0119 21.2707 26.4448 20.4517L34.0603 5.88159L45.4118 11.815Z" fill="#2176C4"/>
<path d="M45.4116 11.8151L37.7961 26.3852C36.229 25.5661 34.294 26.1725 33.4749 27.7397C34.294 26.1725 33.6875 24.2375 32.1204 23.4185L39.7359 8.84839L45.4116 11.8151Z" fill="#72BAED"/>
<path d="M42.5736 10.3317L33.4748 27.7397C34.2939 26.1726 33.6874 24.2376 32.1203 23.4185C30.5532 22.5994 28.6182 23.2058 27.7991 24.773L36.8979 7.36499L42.5736 10.3317Z" fill="#55ACE5"/>
<path d="M46.1149 12.1826C46.0324 12.3411 45.9194 12.4818 45.7824 12.5965C45.6454 12.7113 45.4871 12.7978 45.3165 12.8511C45.146 12.9047 44.9666 12.924 44.7886 12.9081C44.6106 12.8921 44.4376 12.841 44.2793 12.7579L33.9324 7.34987C33.2664 7.00177 33.0089 6.18043 33.357 5.51434C33.5314 5.18077 33.8235 4.94987 34.1554 4.8458C34.4873 4.74174 34.8591 4.76471 35.1925 4.93899L45.5394 10.3471C46.2055 10.6951 46.4631 11.5166 46.1149 12.1826Z" fill="#CBCBD3"/>
<path d="M46.1147 12.1827C46.0322 12.3412 45.9193 12.4819 45.7822 12.5967C45.6452 12.7114 45.4869 12.7979 45.3163 12.8512C45.1458 12.9048 44.9664 12.9242 44.7885 12.9082C44.6105 12.8922 44.4374 12.8411 44.2792 12.758L37.0465 8.97757C36.3805 8.62948 36.1229 7.80813 36.471 7.14204C36.5535 6.98349 36.6665 6.84281 36.8035 6.72808C36.9405 6.61335 37.0988 6.52684 37.2694 6.47351C37.4399 6.41993 37.6193 6.40058 37.7973 6.41657C37.9753 6.43257 38.1483 6.48358 38.3065 6.56669L45.5393 10.3472C46.2054 10.6953 46.4629 11.5167 46.1147 12.1827Z" fill="#D5D4E2"/>
<path d="M32.4416 29.8855L26.8193 33.5605L26.6272 26.8465C27.3834 26.8238 28.1379 26.9302 28.8584 27.1609C29.2279 27.2789 29.5865 27.4287 29.9302 27.6087C30.9861 28.1604 31.8337 28.9539 32.4416 29.8855Z" fill="#454A5B"/>
<path d="M26.8195 33.5605L26.6274 26.8465C27.3836 26.8238 28.1381 26.9302 28.8586 27.1609L26.8195 33.5605Z" fill="#33384A"/>
</svg>
