<svg width="32" height="23" viewBox="0 0 32 23" fill="none" xmlns="http://www.w3.org/2000/svg">
<path d="M11.4246 4.88943H3.27802C3.27184 4.88944 3.26572 4.88823 3.26 4.88587C3.25429 4.8835 3.2491 4.88004 3.24472 4.87567C3.24035 4.87129 3.23688 4.8661 3.23452 4.86039C3.23216 4.85467 3.23095 4.84855 3.23096 4.84237V2.7059C3.23096 1.21149 4.44245 0 5.93686 0H8.7658C10.2602 0 11.4717 1.21149 11.4717 2.7059V4.84237C11.4717 4.85485 11.4667 4.86681 11.4579 4.87563C11.449 4.88445 11.437 4.88942 11.4246 4.88943Z" fill="#475A99"/>
<path d="M28.7219 4.88943H20.5755C20.5693 4.88944 20.5631 4.88823 20.5574 4.88587C20.5517 4.88351 20.5465 4.88004 20.5421 4.87567C20.5378 4.8713 20.5343 4.86611 20.5319 4.86039C20.5295 4.85468 20.5283 4.84855 20.5283 4.84237V2.7059C20.5283 1.21149 21.7398 0 23.2342 0H26.0632C27.5576 0 28.7691 1.21149 28.7691 2.7059V4.84237C28.769 4.85485 28.7641 4.86683 28.7552 4.87565C28.7464 4.88448 28.7344 4.88943 28.7219 4.88943Z" fill="#6171A3"/>
<path d="M17.3294 18.6514C18.5989 18.6133 19.8662 18.5214 21.1279 18.3759C21.2084 18.3641 21.2886 18.3502 21.3684 18.3341C22.3646 20.562 24.7148 22.3874 27.4028 21.9973C30.7877 21.3895 32.5365 17.5839 31.8542 14.7233C31.3572 12.4231 30.98 10.0986 30.7241 7.75921C30.4668 4.82976 27.6042 1.77225 24.2009 2.26622C23.0782 2.46775 22.1357 3.02134 21.402 3.77537C21.3112 3.75637 21.2198 3.74012 21.1279 3.72663C19.0007 3.48157 16.8735 3.38899 14.7464 3.44893L10.6958 5.95517L12.4588 17.6446L17.3294 18.6514Z" fill="#C0ADE2"/>
<path d="M13.5514 9.10506C13.5514 7.09151 13.9787 5.17801 14.7463 3.44911C13.4515 3.48564 12.1589 3.57823 10.8721 3.72662C10.7803 3.74017 10.6889 3.75642 10.598 3.77536C9.86437 3.02133 8.92188 2.46773 7.79917 2.26621C4.39584 1.7723 1.53329 4.82981 1.276 7.75919C1.02005 10.0985 0.642841 12.423 0.145895 14.7233C-0.536407 17.5838 1.21239 21.3895 4.59724 21.9973C7.28524 22.3874 9.63547 20.5619 10.6317 18.3341C10.7114 18.3502 10.7916 18.3641 10.8721 18.3759C13.0151 18.6233 15.1731 18.7153 17.3293 18.651C14.9868 16.1553 13.5514 12.798 13.5514 9.10506Z" fill="#B49CDC"/>
<path d="M16.7116 11.8805H15.2886C14.7659 11.8805 14.3423 11.4568 14.3423 10.9341C14.3423 10.4115 14.7659 9.98779 15.2886 9.98779H16.7116C17.2342 9.98779 17.6579 10.4115 17.6579 10.9341C17.6579 11.4568 17.2342 11.8805 16.7116 11.8805Z" fill="#FFFDDE"/>
<path d="M23.9944 8.41894C24.7515 8.41894 25.3652 7.80519 25.3652 7.04809C25.3652 6.291 24.7515 5.67725 23.9944 5.67725C23.2373 5.67725 22.6235 6.291 22.6235 7.04809C22.6235 7.80519 23.2373 8.41894 23.9944 8.41894Z" fill="#E8899E"/>
<path d="M27.6091 12.0854C28.3662 12.0854 28.98 11.4717 28.98 10.7146C28.98 9.9575 28.3662 9.34375 27.6091 9.34375C26.852 9.34375 26.2383 9.9575 26.2383 10.7146C26.2383 11.4717 26.852 12.0854 27.6091 12.0854Z" fill="#90DAAA"/>
<path d="M10.8958 16.5162C12.0787 16.5162 13.0377 15.5572 13.0377 14.3743C13.0377 13.1914 12.0787 12.2324 10.8958 12.2324C9.71286 12.2324 8.75391 13.1914 8.75391 14.3743C8.75391 15.5572 9.71286 16.5162 10.8958 16.5162Z" fill="#475A99"/>
<path d="M21.1038 16.5162C22.2867 16.5162 23.2457 15.5572 23.2457 14.3743C23.2457 13.1914 22.2867 12.2324 21.1038 12.2324C19.9209 12.2324 18.9619 13.1914 18.9619 14.3743C18.9619 15.5572 19.9209 16.5162 21.1038 16.5162Z" fill="#6171A3"/>
<path d="M8.26469 7.43273H8.05704C7.6601 7.43273 7.3383 7.11093 7.3383 6.71399V6.50634C7.3383 6.1094 7.01649 5.7876 6.61955 5.7876H5.77648C5.37954 5.7876 5.05773 6.1094 5.05773 6.50634V6.71399C5.05773 7.11093 4.73593 7.43273 4.33899 7.43273H4.13134C3.7344 7.43273 3.4126 7.75453 3.4126 8.15148V8.99462C3.4126 9.39156 3.7344 9.71336 4.13134 9.71336H4.33899C4.73593 9.71336 5.05773 10.0352 5.05773 10.4321V10.6398C5.05773 11.0367 5.37954 11.3585 5.77648 11.3585H6.61962C7.01656 11.3585 7.33836 11.0367 7.33836 10.6398V10.4321C7.33836 10.0352 7.66016 9.71336 8.0571 9.71336H8.26475C8.66169 9.71336 8.9835 9.39156 8.9835 8.99462V8.15148C8.98343 7.75447 8.66163 7.43273 8.26469 7.43273Z" fill="#F9F29D"/>
<path d="M12.459 7.60137C12.3309 7.60137 12.2081 7.5505 12.1175 7.45993C12.027 7.36937 11.9761 7.24655 11.9761 7.11847V6.43798C11.9761 6.17122 12.1923 5.95508 12.459 5.95508C12.7257 5.95508 12.9419 6.17122 12.9419 6.43798V7.11847C12.9419 7.24655 12.891 7.36937 12.8004 7.45993C12.7099 7.5505 12.587 7.60137 12.459 7.60137ZM19.5415 7.60137C19.4134 7.60137 19.2906 7.5505 19.2 7.45993C19.1094 7.36937 19.0586 7.24655 19.0586 7.11847V6.43798C19.0586 6.17122 19.2748 5.95508 19.5415 5.95508C19.8082 5.95508 20.0244 6.17122 20.0244 6.43798V7.11847C20.0244 7.24655 19.9735 7.36937 19.8829 7.45993C19.7924 7.5505 19.6695 7.60137 19.5415 7.60137ZM16.0002 8.00643C15.7542 8.00636 15.5111 7.95357 15.2873 7.85162C15.0634 7.74968 14.864 7.60094 14.7025 7.41542C14.6193 7.31875 14.5777 7.19307 14.5868 7.06582C14.5959 6.93858 14.655 6.82011 14.7512 6.7363C14.8474 6.65248 14.9728 6.61013 15.1001 6.61849C15.2274 6.62684 15.3462 6.68523 15.4306 6.7809C15.5744 6.94598 15.782 7.04063 16.0002 7.04063C16.2183 7.04063 16.4259 6.94592 16.5697 6.7809C16.6541 6.68523 16.7729 6.62684 16.9002 6.61849C17.0275 6.61013 17.1529 6.65248 17.2491 6.7363C17.3453 6.82011 17.4044 6.93858 17.4135 7.06582C17.4226 7.19307 17.381 7.31875 17.2978 7.41542C17.1363 7.60096 16.9369 7.74971 16.7131 7.85166C16.4893 7.95361 16.2462 8.00638 16.0002 8.00643Z" fill="#5B586D"/>
</svg>
