<svg width="12" height="12" viewBox="0 0 12 12" fill="none" xmlns="http://www.w3.org/2000/svg">
<path d="M6.5 2C6.5 2.13261 6.55268 2.25979 6.64645 2.35355C6.74021 2.44732 6.86739 2.5 7 2.5H8.983C8.94619 2.17534 8.80371 1.87177 8.5775 1.636L7.4355 0.4565C7.18568 0.203274 6.85426 0.0466872 6.5 0.0145V2ZM5.5 2V0H3.5C2.8372 0.000793929 2.20178 0.264441 1.73311 0.73311C1.26444 1.20178 1.00079 1.8372 1 2.5V7.5C1.00079 8.1628 1.26444 8.79822 1.73311 9.26689C2.20178 9.73556 2.8372 9.99921 3.5 10H6.5C7.1628 9.99921 7.79822 9.73556 8.26689 9.26689C8.73556 8.79822 8.99921 8.1628 9 7.5V3.5H7C6.60218 3.5 6.22064 3.34196 5.93934 3.06066C5.65804 2.77936 5.5 2.39782 5.5 2ZM8.5 12H4C3.86739 12 3.74021 11.9473 3.64645 11.8536C3.55268 11.7598 3.5 11.6326 3.5 11.5C3.5 11.3674 3.55268 11.2402 3.64645 11.1464C3.74021 11.0527 3.86739 11 4 11H8.5C8.89782 11 9.27936 10.842 9.56066 10.5607C9.84196 10.2794 10 9.89782 10 9.5V4C10 3.86739 10.0527 3.74021 10.1464 3.64645C10.2402 3.55268 10.3674 3.5 10.5 3.5C10.6326 3.5 10.7598 3.55268 10.8536 3.64645C10.9473 3.74021 11 3.86739 11 4V9.5C11 10.163 10.7366 10.7989 10.2678 11.2678C9.79893 11.7366 9.163 12 8.5 12Z" fill="#08233F"/>
</svg>
