<svg width="48" height="47" viewBox="0 0 48 47" fill="none" xmlns="http://www.w3.org/2000/svg">
<path d="M27.0393 13.8369V4.41801C27.0393 1.97804 29.0173 0 31.4573 0H43.5819C46.022 0 48 1.97804 48 4.41801V13.8369C48 16.2769 46.022 18.2549 43.582 18.2549H31.4573C29.0173 18.2549 27.0393 16.277 27.0393 13.8369Z" fill="url(#paint0_linear_25_2215)"/>
<path d="M29.2591 11.247C28.6615 11.8333 28.5877 12.7739 29.0944 13.4403C30.1988 14.8917 31.0495 16.5196 31.6104 18.2549H35.0944C34.4328 15.7463 33.2833 13.4342 31.7545 11.4255C31.1468 10.6269 29.9752 10.5443 29.2591 11.247Z" fill="#BFC7CF"/>
<path d="M39.0749 9.12734L41.0407 7.16154C41.4701 6.73212 41.4701 6.03593 41.0407 5.60642C40.6112 5.17709 39.9152 5.17709 39.4855 5.60642L37.5197 7.57222L35.5539 5.60642C35.1244 5.17709 34.4283 5.17709 33.9988 5.60642C33.5694 6.03583 33.5694 6.73203 33.9988 7.16154L35.9646 9.12734L33.9988 11.0931C33.5694 11.5226 33.5694 12.2188 33.9988 12.6483C34.4284 13.0777 35.1243 13.0777 35.5539 12.6483L37.5197 10.6825L39.4855 12.6483C39.9152 13.0777 40.6111 13.0777 41.0407 12.6483C41.4701 12.2188 41.4701 11.5226 41.0407 11.0931L39.0749 9.12734Z" fill="#FF5D70"/>
<path d="M32.3917 23.235C32.3917 14.2902 25.1405 7.03906 16.1958 7.03906C7.25116 7.03906 0 14.2902 0 23.235C0 27.7073 1.81281 31.7563 4.74368 34.6872C6.12144 36.0649 7.74636 37.1957 9.54617 38.0071C11.575 38.9218 13.826 39.4308 16.1959 39.4308C25.1406 39.4308 32.3917 32.1797 32.3917 23.235Z" fill="url(#paint1_linear_25_2215)"/>
<path d="M29.6295 32.2843H25.8282C25.8267 31.3157 26.1452 30.3736 26.7341 29.6045C27.2308 28.9549 27.1553 28.033 26.5861 27.4458C25.8821 26.7197 24.6902 26.7754 24.0757 27.5786C23.0763 28.8849 22.4817 30.5162 22.4817 32.2843V38.1656C25.3981 36.9361 27.8793 34.8773 29.6295 32.2843Z" fill="#00B562"/>
<path d="M14.3814 25.0495L4.74365 34.6873C7.90611 37.8497 12.051 39.4309 16.1959 39.4309V25.801C16.1959 24.8541 15.0509 24.38 14.3814 25.0495Z" fill="url(#paint2_linear_25_2215)"/>
<path d="M25.8284 41.7034V32.2845C25.8284 29.8444 27.8064 27.8665 30.2464 27.8665H42.3711C44.8111 27.8665 46.7891 29.8445 46.7891 32.2845V41.7034C46.7891 44.1434 44.811 46.1214 42.3711 46.1214H30.2465C27.8064 46.1214 25.8284 44.1433 25.8284 41.7034Z" fill="url(#paint3_linear_25_2215)"/>
<path d="M35.2153 40.5627C35.0709 40.5629 34.9278 40.5346 34.7944 40.4793C34.661 40.424 34.5398 40.3429 34.4377 40.2407L31.6944 37.4974C31.265 37.068 31.265 36.3718 31.6944 35.9423C32.1237 35.513 32.8199 35.513 33.2495 35.9423L35.2154 37.9081L39.9246 33.1989C40.3541 32.7696 41.0501 32.7696 41.4797 33.1989C41.9091 33.6284 41.9091 34.3247 41.4797 34.7541L35.993 40.2408C35.8909 40.343 35.7697 40.4241 35.6362 40.4793C35.5028 40.5346 35.3597 40.5629 35.2153 40.5627Z" fill="#00B562"/>
<path d="M7.79826 20.708C8.587 20.708 9.2264 20.1942 9.2264 19.5603C9.2264 18.9264 8.587 18.4126 7.79826 18.4126C7.00952 18.4126 6.37012 18.9264 6.37012 19.5603C6.37012 20.1942 7.00952 20.708 7.79826 20.708Z" fill="#FCADCD"/>
<path d="M24.6049 20.708C25.3936 20.708 26.033 20.1942 26.033 19.5603C26.033 18.9264 25.3936 18.4126 24.6049 18.4126C23.8162 18.4126 23.1768 18.9264 23.1768 19.5603C23.1768 20.1942 23.8162 20.708 24.6049 20.708Z" fill="#FCADCD"/>
<path d="M10.2466 19.5605C11.8106 19.5605 13.0786 18.2926 13.0786 16.7285C13.0786 15.1644 11.8106 13.8965 10.2466 13.8965C8.68248 13.8965 7.41455 15.1644 7.41455 16.7285C7.41455 18.2926 8.68248 19.5605 10.2466 19.5605Z" fill="white"/>
<path d="M13.0316 17.124C13.246 16.2168 12.6845 15.3076 11.7773 15.0931C10.8701 14.8787 9.96089 15.4403 9.74644 16.3474C9.532 17.2546 10.0936 18.1638 11.0007 18.3783C11.9079 18.5927 12.8171 18.0312 13.0316 17.124Z" fill="#383842"/>
<path d="M22.1565 19.5605C23.7205 19.5605 24.9885 18.2926 24.9885 16.7285C24.9885 15.1644 23.7205 13.8965 22.1565 13.8965C20.5924 13.8965 19.3245 15.1644 19.3245 16.7285C19.3245 18.2926 20.5924 19.5605 22.1565 19.5605Z" fill="white"/>
<path d="M24.4838 17.9225C25.1429 17.2633 25.1429 16.1947 24.4838 15.5355C23.8246 14.8764 22.7559 14.8764 22.0968 15.5355C21.4377 16.1947 21.4377 17.2633 22.0968 17.9225C22.7559 18.5816 23.8246 18.5816 24.4838 17.9225Z" fill="#383842"/>
<path d="M16.2014 20.5344C16.9013 20.5344 17.4686 19.7915 17.4686 18.8752C17.4686 17.9589 16.9013 17.2161 16.2014 17.2161C15.5016 17.2161 14.9343 17.9589 14.9343 18.8752C14.9343 19.7915 15.5016 20.5344 16.2014 20.5344Z" fill="#383842"/>
<path d="M20.6453 11.6577C20.5242 11.6577 20.4011 11.6375 20.2804 11.5951C20.023 11.5046 19.7627 11.4227 19.4999 11.3495C18.9148 11.1867 18.5725 10.5805 18.7353 9.99537C18.8982 9.41029 19.505 9.06817 20.0895 9.23081C20.3978 9.31658 20.7075 9.41411 21.0103 9.52054C21.5831 9.7221 21.8842 10.3499 21.6827 10.9228C21.5235 11.3748 21.0988 11.6577 20.6453 11.6577ZM12.175 11.5158C11.7069 11.5158 11.2728 11.2144 11.1258 10.7439C10.9446 10.1641 11.2677 9.5475 11.8474 9.3664C13.0818 8.98134 14.3618 8.76176 15.6539 8.71343C16.2591 8.69478 16.7713 9.16388 16.7943 9.77077C16.8172 10.3777 16.3438 10.8882 15.737 10.9112C14.6393 10.9522 13.552 11.1386 12.5034 11.4656C12.3971 11.4988 12.2864 11.5157 12.175 11.5158Z" fill="#B3F3EC"/>
<defs>
<linearGradient id="paint0_linear_25_2215" x1="27.0393" y1="0" x2="48" y2="0" gradientUnits="userSpaceOnUse">
<stop stop-color="#D0DADA"/>
<stop offset="1" stop-color="#F1F1F1"/>
</linearGradient>
<linearGradient id="paint1_linear_25_2215" x1="16.1493" y1="40.0372" x2="16.2416" y2="6.7306" gradientUnits="userSpaceOnUse">
<stop stop-color="#00CC8C"/>
<stop offset="0.202" stop-color="#05CD91"/>
<stop offset="0.457" stop-color="#15D19D"/>
<stop offset="0.739" stop-color="#2FD8B3"/>
<stop offset="1" stop-color="#4DE0CC"/>
</linearGradient>
<linearGradient id="paint2_linear_25_2215" x1="17.4986" y1="32.0835" x2="5.80061" y2="32.0835" gradientUnits="userSpaceOnUse">
<stop stop-color="#FF7081"/>
<stop offset="1" stop-color="#FF9FAA"/>
</linearGradient>
<linearGradient id="paint3_linear_25_2215" x1="25.8284" y1="27.8665" x2="46.7891" y2="27.8665" gradientUnits="userSpaceOnUse">
<stop stop-color="#D0DADA"/>
<stop offset="1" stop-color="#F1F1F1"/>
</linearGradient>
</defs>
</svg>
