<svg width="150" height="163" viewBox="0 0 150 163" fill="none" xmlns="http://www.w3.org/2000/svg">
<path fill-rule="evenodd" clip-rule="evenodd" d="M121.875 83.4771H28.125V126.865C28.1248 127.873 28.4496 128.854 29.0512 129.663C29.6529 130.472 30.4993 131.065 31.4648 131.355L73.6523 144.011C74.5316 144.274 75.4684 144.274 76.3477 144.011L118.535 131.355C119.501 131.065 120.347 130.472 120.949 129.663C121.55 128.854 121.875 127.873 121.875 126.865V83.4771Z" fill="#CADCF0"/>
<path fill-rule="evenodd" clip-rule="evenodd" d="M121.875 83.4771H75.0002C75.0002 83.4771 74.5455 144.208 75.0002 144.208C75.4549 144.208 75.9072 144.143 76.3478 144.011L118.535 131.355C119.501 131.065 120.347 130.472 120.949 129.663C121.551 128.854 121.875 127.873 121.875 126.865V83.4771Z" fill="#A4BBDB"/>
<path fill-rule="evenodd" clip-rule="evenodd" d="M75.0001 98.6856L28.1251 83.4771L16.2305 101.111C16.0272 101.412 15.8966 101.756 15.849 102.117C15.8015 102.477 15.8382 102.843 15.9564 103.186C16.0746 103.53 16.271 103.841 16.5301 104.095C16.7891 104.35 17.1038 104.541 17.4493 104.653L59.6251 118.354C60.1083 118.512 60.6295 118.507 61.1102 118.342C61.5908 118.178 62.0048 117.861 62.2899 117.44L75.0001 98.6856ZM121.875 83.4771L75.0001 98.6856L87.7102 117.44C87.9953 117.861 88.4093 118.178 88.89 118.342C89.3706 118.507 89.8918 118.512 90.3751 118.354L132.551 104.653C132.896 104.541 133.211 104.35 133.47 104.095C133.729 103.841 133.926 103.53 134.044 103.186C134.162 102.843 134.199 102.477 134.151 102.117C134.104 101.756 133.973 101.412 133.77 101.111L121.875 83.4771Z" fill="#E9F3FC"/>
<path fill-rule="evenodd" clip-rule="evenodd" d="M63.6538 51.5293C63.3683 51.11 62.9543 50.7947 62.4742 50.6307C61.9941 50.4667 61.4738 50.4629 60.9913 50.6199L18.8132 64.3239C18.4675 64.4352 18.1525 64.6256 17.8931 64.8798C17.6337 65.1341 17.4371 65.4452 17.3189 65.7886C17.2006 66.132 17.1639 66.4983 17.2118 66.8583C17.2596 67.2183 17.3906 67.5623 17.5945 67.8629L28.1249 83.477L74.9999 68.2168L63.6538 51.5293Z" fill="#CADCF0"/>
<path fill-rule="evenodd" clip-rule="evenodd" d="M132.405 67.8629C132.608 67.562 132.739 67.2182 132.786 66.8584C132.833 66.4986 132.796 66.1327 132.678 65.7896C132.56 65.4465 132.364 65.1356 132.105 64.8812C131.846 64.6268 131.532 64.436 131.187 64.3239L89.0086 50.6199C88.5262 50.4629 88.0058 50.4667 87.5257 50.6307C87.0456 50.7947 86.6317 51.11 86.3461 51.5293L75 68.2168L121.875 83.477L132.405 67.8629Z" fill="#E9F3FC"/>
<path fill-rule="evenodd" clip-rule="evenodd" d="M121.875 83.477L75 68.2168L28.125 83.477L75 98.6855L121.875 83.477Z" fill="#CADCF0"/>
<path fill-rule="evenodd" clip-rule="evenodd" d="M75 98.6855V68.2168L28.125 83.477L75 98.6855Z" fill="#A4BBDB"/>
<path fill-rule="evenodd" clip-rule="evenodd" d="M65.583 74.9483C64.6512 74.3427 63.7702 73.6623 62.9486 72.914C62.488 72.5114 61.8882 72.3049 61.2774 72.3385C60.6666 72.3721 60.0932 72.6432 59.6795 73.0938C59.2659 73.5445 59.0448 74.1391 59.0636 74.7505C59.0823 75.3619 59.3394 75.9418 59.7798 76.3663C60.7384 77.2476 61.8189 78.0866 63.0189 78.8718C63.5391 79.2008 64.1679 79.312 64.7694 79.1812C65.3709 79.0505 65.8969 78.6884 66.2336 78.1731C66.5704 77.6579 66.6909 77.0308 66.5691 76.4274C66.4474 75.824 66.0932 75.2927 65.583 74.9483ZM58.2798 67.7483C57.6138 66.8508 57.0227 65.8999 56.5126 64.9054C56.2308 64.3512 55.7403 63.9317 55.1491 63.7392C54.5579 63.5467 53.9145 63.5969 53.3603 63.8788C52.8061 64.1607 52.3867 64.6512 52.1942 65.2424C52.0016 65.8336 52.0518 66.477 52.3337 67.0312C52.9291 68.1983 53.6509 69.3679 54.5064 70.528C54.8796 71.0159 55.4294 71.3378 56.0376 71.4244C56.6457 71.5111 57.2635 71.3555 57.7581 70.9911C58.2527 70.6268 58.5844 70.0829 58.682 69.4764C58.7796 68.8699 58.6352 68.2494 58.2798 67.7483ZM54.8533 58.1835C54.8767 57.239 55.015 56.3226 55.2681 55.4437C55.3529 55.1477 55.3786 54.838 55.3437 54.5321C55.3088 54.2263 55.214 53.9303 55.0647 53.6611C54.9154 53.3918 54.7145 53.1547 54.4735 52.9631C54.2326 52.7715 53.9562 52.6292 53.6603 52.5444C53.3644 52.4596 53.0546 52.434 52.7488 52.4689C52.4429 52.5038 52.1469 52.5986 51.8777 52.7479C51.6085 52.8972 51.3713 53.0981 51.1797 53.339C50.9881 53.58 50.8459 53.8563 50.7611 54.1522C50.3986 55.4266 50.1985 56.7418 50.1658 58.0663C50.1502 58.6879 50.3823 59.2902 50.8108 59.7408C51.2394 60.1913 51.8293 60.4531 52.4509 60.4687C53.0725 60.4842 53.6748 60.2522 54.1254 59.8236C54.5759 59.3951 54.8377 58.8051 54.8533 58.1835ZM58.458 50.3554C59.0603 49.7976 59.7353 49.2819 60.4736 48.8155C60.734 48.6513 60.9595 48.4374 61.1372 48.1861C61.3149 47.9347 61.4414 47.6508 61.5094 47.3506C61.5774 47.0504 61.5856 46.7397 61.5336 46.4363C61.4815 46.1329 61.3702 45.8427 61.206 45.5823C61.0418 45.3219 60.8279 45.0964 60.5766 44.9187C60.3252 44.741 60.0413 44.6145 59.7411 44.5465C59.4409 44.4785 59.1302 44.4703 58.8268 44.5223C58.5234 44.5744 58.2332 44.6857 57.9728 44.8499C57.011 45.4542 56.1071 46.1462 55.2728 46.9171C54.8283 47.3423 54.5688 47.9252 54.5503 48.54C54.5317 49.1548 54.7556 49.7522 55.1736 50.2035C55.5916 50.6547 56.1703 50.9235 56.7847 50.9519C57.3991 50.9803 58.0001 50.7661 58.458 50.3554ZM67.1744 46.3124C68.4115 46.0865 69.6631 45.9486 70.9197 45.8999C71.5261 45.8531 72.0906 45.5726 72.4942 45.1177C72.8978 44.6627 73.109 44.0688 73.0831 43.4611C73.0573 42.8535 72.7965 42.2796 72.3557 41.8605C71.9149 41.4414 71.3286 41.2099 70.7205 41.2147C69.1736 41.2804 67.7064 41.4468 66.3212 41.7022C65.7099 41.8154 65.1685 42.1667 64.8162 42.679C64.464 43.1913 64.3296 43.8225 64.4427 44.4339C64.5559 45.0452 64.9072 45.5866 65.4195 45.9389C65.9318 46.2912 66.563 46.4255 67.1744 46.3124ZM79.39 46.1741C81.3892 46.1976 83.2501 46.1272 84.9775 45.9749C85.591 45.9128 86.1552 45.6114 86.548 45.1361C86.9408 44.6608 87.1304 44.0498 87.0759 43.4356C87.0213 42.8215 86.7269 42.2535 86.2564 41.8549C85.786 41.4563 85.1775 41.2592 84.5626 41.3062C82.9806 41.4444 81.2767 41.5101 79.4439 41.4866C78.8223 41.4795 78.2233 41.7196 77.7787 42.154C77.3341 42.5885 77.0803 43.1818 77.0732 43.8034C77.066 44.425 77.3061 45.024 77.7406 45.4686C78.1751 45.9132 78.7684 46.167 79.39 46.1741ZM92.6814 44.5382C95.0017 43.828 96.9611 42.9187 98.6017 41.8757C98.8613 41.7103 99.0858 41.4953 99.2624 41.2431C99.4389 40.9909 99.564 40.7064 99.6306 40.4059C99.6972 40.1053 99.704 39.7946 99.6505 39.4914C99.597 39.1882 99.4843 38.8986 99.3189 38.639C99.1535 38.3794 98.9385 38.1549 98.6863 37.9783C98.4341 37.8018 98.1496 37.6766 97.8491 37.61C97.5485 37.5434 97.2378 37.5367 96.9346 37.5902C96.6315 37.6437 96.3418 37.7563 96.0822 37.9218C94.5947 38.8441 92.9896 39.5615 91.3103 40.0546C90.7157 40.2364 90.2178 40.647 89.9259 41.196C89.6341 41.7449 89.5722 42.3874 89.754 42.9819C89.9359 43.5765 90.3464 44.0745 90.8954 44.3663C91.4444 44.6582 92.0868 44.72 92.6814 44.5382ZM104.611 35.3155C105.666 33.1251 106.155 30.7053 106.034 28.2773C106.019 27.9698 105.945 27.6681 105.814 27.3895C105.683 27.1109 105.498 26.8608 105.271 26.6535C105.043 26.4462 104.777 26.2858 104.488 26.1814C104.198 26.0769 103.891 26.0305 103.583 26.0448C103.276 26.0591 102.974 26.1339 102.696 26.2648C102.417 26.3957 102.167 26.5801 101.96 26.8077C101.752 27.0352 101.592 27.3014 101.487 27.5909C101.383 27.8805 101.337 28.1877 101.351 28.4952C101.435 30.1442 101.105 31.7881 100.39 33.2765C100.151 33.8318 100.135 34.458 100.347 35.0245C100.558 35.5911 100.98 36.0541 101.524 36.3171C102.069 36.5801 102.694 36.6228 103.269 36.4362C103.844 36.2496 104.325 35.8481 104.611 35.3155ZM103.118 19.9898C101.41 17.6812 99.0915 16.0733 96.565 15.5554C95.9654 15.4539 95.3497 15.5892 94.8479 15.9328C94.3461 16.2764 93.9974 16.8014 93.8752 17.3972C93.753 17.993 93.8669 18.6129 94.1929 19.1263C94.519 19.6397 95.0316 20.0064 95.6228 20.1491C97.0806 20.4468 98.365 21.4476 99.3517 22.7812C99.535 23.0285 99.7652 23.2372 100.029 23.3956C100.293 23.5539 100.586 23.6587 100.89 23.704C101.195 23.7493 101.505 23.7341 101.804 23.6594C102.102 23.5847 102.383 23.4519 102.631 23.2687C102.878 23.0854 103.087 22.8552 103.245 22.5912C103.403 22.3272 103.508 22.0346 103.553 21.7302C103.599 21.4257 103.584 21.1153 103.509 20.8167C103.434 20.518 103.301 20.2371 103.118 19.9898Z" fill="#347BFA"/>
<path fill-rule="evenodd" clip-rule="evenodd" d="M72.4993 16.0099C75.0352 1.64978 97.0125 2.5779 84.218 16.0099H72.4993ZM72.4993 19.6474C75.0352 34.0052 97.0125 33.0795 84.218 19.6474H72.4993Z" fill="#CADCF0"/>
<path fill-rule="evenodd" clip-rule="evenodd" d="M72.2884 20.1958H87.9821C88.6037 20.1958 89.1999 19.9489 89.6394 19.5093C90.0789 19.0698 90.3259 18.4737 90.3259 17.8521C90.3259 17.2304 90.0789 16.6343 89.6394 16.1948C89.1999 15.7552 88.6037 15.5083 87.9821 15.5083H72.2884C71.6849 15.5353 71.1151 15.794 70.6976 16.2306C70.2801 16.6672 70.0471 17.248 70.0471 17.8521C70.0471 18.4561 70.2801 19.0369 70.6976 19.4735C71.1151 19.9101 71.6849 20.1688 72.2884 20.1958Z" fill="#347BFA"/>
<ellipse cx="75" cy="156.5" rx="49" ry="6.5" fill="#E5E5E5"/>
</svg>
