<svg width="38" height="47" viewBox="0 0 38 47" fill="none" xmlns="http://www.w3.org/2000/svg">
<path d="M6.03 36.015L4.2225 37.2225L3.015 39.03L1.8075 37.2225L0 36.015L1.8075 34.8075L3.015 33L4.2225 34.8075L6.03 36.015ZM37.53 9.015L35.7225 10.2225L34.515 12.03L33.3075 10.2225L31.5 9.015L33.3075 7.8075L34.515 6L35.7225 7.8075L37.53 9.015ZM30.3525 0C31.7325 0 32.52 1.575 31.6875 2.6775L23.6475 13.4025H28.2975C29.7375 13.4025 30.51 15.1125 29.55 16.1925L18.6225 28.4775H26.3025C27.9 28.4775 28.59 30.495 27.33 31.4775L8.49 46.1325C7.0125 47.28 5.0475 45.51 6.0375 43.92L13.5975 31.83H8.265C6.945 31.83 6.1425 30.375 6.8475 29.2575L15.27 15.915H9.5475C8.3175 15.915 7.5075 14.6325 8.0325 13.5225L13.98 0.96C14.2575 0.375 14.85 0 15.495 0H30.3525Z" fill="#F5DD09"/>
<path d="M15.7658 31.08H18.39C19.5683 31.08 20.2868 32.3768 19.662 33.3758L14.7075 41.295L8.49 46.1325C7.0125 47.28 5.0475 45.51 6.0375 43.92L13.5975 31.83H8.26575C6.945 31.83 6.1425 30.3743 6.8475 29.2575L15.27 15.915H9.5475C8.3175 15.915 7.5075 14.6325 8.0325 13.5225L13.98 0.96C14.2575 0.375 14.85 0 15.495 0H21.6C21.555 0.0675 15.5325 12.7725 15.5325 12.7725C15.0075 13.8825 15.8175 15.165 17.0475 15.165H20.049C21.2303 15.165 21.948 16.467 21.3173 17.466L14.3475 28.5075C13.6425 29.6243 14.445 31.08 15.7658 31.08Z" fill="#F8B804"/>
<path d="M32.28 24.0004H30.03C29.8311 24.0004 29.6403 23.9214 29.4997 23.7807C29.359 23.6401 29.28 23.4493 29.28 23.2504C29.28 23.0515 29.359 22.8607 29.4997 22.7201C29.6403 22.5794 29.8311 22.5004 30.03 22.5004H32.28C32.4789 22.5004 32.6697 22.5794 32.8103 22.7201C32.951 22.8607 33.03 23.0515 33.03 23.2504C33.03 23.4493 32.951 23.6401 32.8103 23.7807C32.6697 23.9214 32.4789 24.0004 32.28 24.0004ZM30.03 21.7504C29.8815 21.7507 29.7363 21.707 29.6128 21.6246C29.4892 21.5422 29.3929 21.425 29.3361 21.2879C29.2793 21.1507 29.2645 20.9997 29.2937 20.8541C29.3228 20.7086 29.3945 20.5749 29.4997 20.4702L30.9997 18.9702C31.0694 18.9005 31.1521 18.8453 31.243 18.8076C31.334 18.7699 31.4315 18.7505 31.53 18.7505C31.6285 18.7505 31.726 18.7699 31.817 18.8076C31.9079 18.8453 31.9906 18.9005 32.0602 18.9702C32.1299 19.0398 32.1851 19.1225 32.2228 19.2134C32.2605 19.3044 32.2799 19.4019 32.2799 19.5004C32.2799 19.5989 32.2605 19.6964 32.2228 19.7874C32.1851 19.8784 32.1299 19.961 32.0602 20.0307L30.5602 21.5307C30.4907 21.6004 30.408 21.6557 30.317 21.6934C30.2261 21.7312 30.1285 21.7505 30.03 21.7504ZM31.53 27.7504C31.4315 27.7505 31.3339 27.7312 31.243 27.6934C31.152 27.6557 31.0693 27.6004 30.9997 27.5307L29.4997 26.0307C29.4301 25.961 29.3749 25.8784 29.3372 25.7874C29.2995 25.6964 29.2801 25.5989 29.2801 25.5004C29.2801 25.4019 29.2995 25.3044 29.3372 25.2134C29.3749 25.1225 29.4301 25.0398 29.4997 24.9702C29.5694 24.9005 29.6521 24.8453 29.743 24.8076C29.834 24.7699 29.9315 24.7505 30.03 24.7505C30.1285 24.7505 30.226 24.7699 30.317 24.8076C30.4079 24.8453 30.4906 24.9005 30.5602 24.9702L32.0602 26.4702C32.1655 26.5749 32.2372 26.7086 32.2663 26.8541C32.2955 26.9997 32.2807 27.1507 32.2239 27.2879C32.1671 27.425 32.0708 27.5422 31.9472 27.6246C31.8237 27.707 31.6785 27.7507 31.53 27.7504ZM6.03 20.2504H3.78C3.58109 20.2504 3.39032 20.1714 3.24967 20.0307C3.10902 19.8901 3.03 19.6993 3.03 19.5004C3.03 19.3015 3.10902 19.1107 3.24967 18.9701C3.39032 18.8294 3.58109 18.7504 3.78 18.7504H6.03C6.22891 18.7504 6.41968 18.8294 6.56033 18.9701C6.70098 19.1107 6.78 19.3015 6.78 19.5004C6.78 19.6993 6.70098 19.8901 6.56033 20.0307C6.41968 20.1714 6.22891 20.2504 6.03 20.2504ZM4.53 24.0004C4.38153 24.0007 4.2363 23.957 4.11276 23.8746C3.98922 23.7922 3.89293 23.675 3.83612 23.5379C3.7793 23.4007 3.76453 23.2497 3.79366 23.1041C3.82279 22.9586 3.89452 22.8249 3.99975 22.7202L5.49975 21.2202C5.56938 21.1505 5.65205 21.0953 5.74303 21.0576C5.83401 21.0199 5.93152 21.0005 6.03 21.0005C6.12848 21.0005 6.22599 21.0199 6.31697 21.0576C6.40795 21.0953 6.49062 21.1505 6.56025 21.2202C6.62988 21.2898 6.68512 21.3725 6.7228 21.4634C6.76049 21.5544 6.77989 21.6519 6.77989 21.7504C6.77989 21.8489 6.76049 21.9464 6.7228 22.0374C6.68512 22.1284 6.62988 22.211 6.56025 22.2807L5.06025 23.7807C4.99069 23.8504 4.90805 23.9057 4.81705 23.9434C4.72605 23.9812 4.6285 24.0005 4.53 24.0004ZM6.03 18.0004C5.9315 18.0005 5.83395 17.9812 5.74295 17.9434C5.65195 17.9057 5.5693 17.8504 5.49975 17.7807L3.99975 16.2807C3.85912 16.14 3.78011 15.9493 3.78011 15.7504C3.78011 15.5515 3.85912 15.3608 3.99975 15.2202C4.14038 15.0795 4.33112 15.0005 4.53 15.0005C4.72888 15.0005 4.91962 15.0795 5.06025 15.2202L6.56025 16.7202C6.66547 16.8249 6.7372 16.9586 6.76634 17.1041C6.79547 17.2497 6.78069 17.4007 6.72388 17.5379C6.66707 17.675 6.57078 17.7922 6.44724 17.8746C6.32369 17.957 6.17847 18.0007 6.03 18.0004ZM13.9125 24.3709C13.7762 24.3706 13.6425 24.3331 13.5259 24.2625C13.4093 24.192 13.3141 24.091 13.2505 23.9704C13.1869 23.8499 13.1573 23.7143 13.1649 23.5782C13.1725 23.4421 13.2171 23.3106 13.2937 23.1979L15.7117 19.6512C15.8271 19.4948 15.9985 19.3892 16.1901 19.3566C16.3816 19.324 16.5784 19.3669 16.7389 19.4764C16.8995 19.5859 17.0113 19.7533 17.051 19.9435C17.0906 20.1337 17.055 20.3319 16.9515 20.4964L14.5335 24.0432C14.4647 24.1444 14.3721 24.2272 14.2638 24.2844C14.1556 24.3415 14.0349 24.3712 13.9125 24.3709ZM11.6805 27.6454C11.5441 27.6453 11.4103 27.608 11.2935 27.5375C11.1767 27.467 11.0814 27.366 11.0177 27.2453C10.9541 27.1247 10.9245 26.9889 10.9323 26.8528C10.9401 26.7166 10.9848 26.5851 11.0617 26.4724L12.054 25.0174C12.1693 24.861 12.3408 24.7554 12.5323 24.7228C12.7239 24.6902 12.9206 24.7332 13.0812 24.8426C13.2417 24.9521 13.3536 25.1196 13.3932 25.3098C13.4329 25.5 13.3972 25.6982 13.2937 25.8627L12.3015 27.3177C12.2326 27.4188 12.14 27.5016 12.0317 27.5587C11.9235 27.6158 11.8029 27.6456 11.6805 27.6454ZM15.8347 5.21891C15.7078 5.21879 15.5829 5.18643 15.4718 5.12486C15.3608 5.06329 15.2671 4.97453 15.1998 4.86689C15.1324 4.75926 15.0934 4.63627 15.0866 4.50947C15.0797 4.38267 15.1051 4.2562 15.1605 4.14191L15.8595 2.69741C15.9208 2.57052 16.0166 2.46349 16.1361 2.38866C16.2555 2.31383 16.3936 2.27423 16.5345 2.27441H18.78C18.9789 2.27441 19.1697 2.35343 19.3103 2.49408C19.451 2.63474 19.53 2.8255 19.53 3.02441C19.53 3.22333 19.451 3.41409 19.3103 3.55474C19.1697 3.6954 18.9789 3.77441 18.78 3.77441H17.004L16.5097 4.79516C16.4485 4.92215 16.3527 5.02927 16.2333 5.10423C16.1139 5.17919 15.9757 5.21894 15.8347 5.21891ZM14.0017 9.00566C13.8748 9.00554 13.7499 8.97318 13.6388 8.91161C13.5278 8.85004 13.4341 8.76128 13.3668 8.65364C13.2994 8.54601 13.2604 8.42302 13.2536 8.29622C13.2467 8.16942 13.2721 8.04295 13.3275 7.92866L14.178 6.17216C14.2187 6.08003 14.2775 5.99702 14.3509 5.92811C14.4244 5.85919 14.5109 5.80577 14.6055 5.77104C14.7 5.7363 14.8006 5.72097 14.9012 5.72594C15.0017 5.73091 15.1003 5.75609 15.191 5.79998C15.2816 5.84387 15.3625 5.90556 15.4288 5.98139C15.4951 6.05721 15.5454 6.14561 15.5768 6.24131C15.6082 6.33701 15.62 6.43805 15.6114 6.5384C15.6029 6.63876 15.5743 6.73637 15.5272 6.82542L14.6767 8.58191C14.6155 8.7089 14.5197 8.81602 14.4003 8.89098C14.2809 8.96594 14.1427 9.00569 14.0017 9.00566Z" fill="#F3F354"/>
</svg>
