<svg width="20" height="15" viewBox="0 0 20 15" fill="none" xmlns="http://www.w3.org/2000/svg">
<path d="M3.33337 5C4.71409 5 5.83337 3.88071 5.83337 2.5C5.83337 1.11929 4.71409 0 3.33337 0C1.95266 0 0.833374 1.11929 0.833374 2.5C0.833374 3.88071 1.95266 5 3.33337 5Z" fill="currentColor"/>
<path d="M6.075 6.72499C5.23625 7.24838 4.54449 7.97662 4.06485 8.84113C3.58521 9.70565 3.33347 10.678 3.33333 11.6667H1.66667C1.22504 11.6653 0.801888 11.4893 0.489612 11.1771C0.177337 10.8648 0.00131894 10.4416 0 10L0 8.33333C0.00197841 7.6709 0.266006 7.03616 0.734419 6.56775C1.20283 6.09933 1.83757 5.83531 2.5 5.83333H4.16667C4.53048 5.83415 4.88972 5.91436 5.21933 6.06837C5.54893 6.22238 5.84095 6.44647 6.075 6.72499Z" fill="currentColor"/>
<path d="M16.6666 5C18.0473 5 19.1666 3.88071 19.1666 2.5C19.1666 1.11929 18.0473 0 16.6666 0C15.2859 0 14.1666 1.11929 14.1666 2.5C14.1666 3.88071 15.2859 5 16.6666 5Z" fill="currentColor"/>
<path d="M20 8.33333V10C19.9987 10.4416 19.8227 10.8648 19.5104 11.1771C19.1982 11.4893 18.775 11.6653 18.3334 11.6667H16.6667C16.6666 10.678 16.4148 9.70565 15.9352 8.84113C15.4556 7.97662 14.7638 7.24838 13.925 6.72499C14.1591 6.44647 14.4511 6.22238 14.7807 6.06837C15.1103 5.91436 15.4696 5.83415 15.8334 5.83333H17.5C18.1625 5.83531 18.7972 6.09933 19.2656 6.56775C19.734 7.03616 19.9981 7.6709 20 8.33333Z" fill="currentColor"/>
<path d="M9.99996 6.66667C11.8409 6.66667 13.3333 5.17428 13.3333 3.33333C13.3333 1.49238 11.8409 0 9.99996 0C8.15901 0 6.66663 1.49238 6.66663 3.33333C6.66663 5.17428 8.15901 6.66667 9.99996 6.66667Z" fill="currentColor"/>
<path d="M15 11.6667V12.5C14.998 13.1624 14.734 13.7972 14.2656 14.2656C13.7972 14.734 13.1624 14.998 12.5 15H7.5C6.83757 14.998 6.20283 14.734 5.73442 14.2656C5.26601 13.7972 5.00198 13.1624 5 12.5V11.6667C5 10.5616 5.43899 9.50179 6.22039 8.72039C7.00179 7.93899 8.0616 7.5 9.16667 7.5H10.8333C11.9384 7.5 12.9982 7.93899 13.7796 8.72039C14.561 9.50179 15 10.5616 15 11.6667Z" fill="currentColor"/>
</svg>
