<svg width="24" height="24" viewBox="0 0 24 24" fill="none" xmlns="http://www.w3.org/2000/svg">
<path d="M10.2516 11.4562C10.2516 12.4734 9.42656 13.2984 8.40937 13.2984C8.21719 13.2984 8.02969 13.2703 7.85625 13.2141C7.73906 13.6219 7.41094 13.9406 6.99844 14.0484C6.90469 14.0719 6.80625 14.0859 6.70312 14.0859C6.31875 14.0859 5.97656 13.9078 5.75625 13.6266C5.49375 14.0156 5.04375 14.2734 4.5375 14.2734C4.03125 14.2734 3.58125 14.0156 3.31875 13.6266C3.09844 13.9078 2.75625 14.0859 2.37187 14.0859C1.82344 14.0859 1.36406 13.7203 1.21875 13.2187C1.04531 13.275 0.857812 13.3031 0.665625 13.3031C0.501562 13.3031 0.346875 13.2797 0.196875 13.2422C0.0796875 13.2094 0 13.1062 0 12.9844V9.74061C0.20625 9.66093 0.43125 9.61405 0.665625 9.61405C0.703125 9.61405 0.740625 9.61405 0.778125 9.61874C1.00313 9.0703 1.5375 8.68593 2.16563 8.68593C2.59687 8.68593 2.98594 8.86874 3.2625 9.16405C3.6 8.71874 4.12969 8.4328 4.72969 8.4328C5.4 8.4328 5.98594 8.79374 6.30938 9.32811C6.50625 9.16874 6.74063 9.06093 6.99844 9.01405C7.07812 8.99999 7.1625 8.9953 7.24688 8.9953C7.74844 8.9953 8.18906 9.23905 8.46094 9.61405C9.45469 9.64218 10.2516 10.4578 10.2516 11.4562Z" fill="url(#paint0_linear_54_294)"/>
<path d="M2.50314 11.6016C2.43282 12.525 1.66407 13.2656 0.740637 13.2984C0.553137 13.3078 0.370325 13.2844 0.201575 13.2375C0.0843872 13.2047 0.00469971 13.1016 0.00469971 12.9797V9.74064C0.21095 9.66095 0.43595 9.61407 0.670325 9.61407C1.7297 9.61407 2.58282 10.5188 2.50314 11.6016Z" fill="url(#paint1_linear_54_294)"/>
<path d="M2.88284 10.275C2.88284 10.6453 2.99065 10.9922 3.18284 11.2781C2.91565 11.5266 2.5594 11.6812 2.16096 11.6812C1.33596 11.6812 0.665649 11.0109 0.665649 10.1859C0.665649 9.36093 1.33596 8.69061 2.16096 8.69061C2.59221 8.69061 2.98127 8.87343 3.25784 9.16874C3.02346 9.47343 2.88284 9.8578 2.88284 10.275Z" fill="url(#paint2_linear_54_294)"/>
<path d="M5.75157 10.4953C5.75157 10.8703 5.8922 11.2172 6.12189 11.4797C5.78439 11.8687 5.28751 12.1172 4.7297 12.1172C3.71251 12.1172 2.88751 11.2922 2.88751 10.275C2.88751 9.2578 3.71251 8.4328 4.7297 8.4328C5.40001 8.4328 5.98595 8.79374 6.30939 9.32811C5.9672 9.60468 5.75157 10.0219 5.75157 10.4953Z" fill="url(#paint3_linear_54_294)"/>
<path d="M10.2516 11.4563C10.2516 12.4734 9.42656 13.2984 8.40937 13.2984C7.52812 13.2984 6.7875 12.6797 6.60938 11.85C6.80156 11.9391 7.01719 11.9906 7.24688 11.9906C8.07656 11.9906 8.74219 11.3203 8.74219 10.4953C8.74219 10.1672 8.63437 9.86251 8.45625 9.61407C9.45469 9.6422 10.2516 10.4578 10.2516 11.4563Z" fill="url(#paint4_linear_54_294)"/>
<path d="M10.2516 11.4563C10.2516 12.4734 9.42656 13.2984 8.40937 13.2984C7.52812 13.2984 6.7875 12.6797 6.60938 11.85C6.80156 11.9391 7.01719 11.9906 7.24688 11.9906C8.07656 11.9906 8.74219 11.3203 8.74219 10.4953C8.74219 10.1672 8.63437 9.86251 8.45625 9.61407C9.45469 9.6422 10.2516 10.4578 10.2516 11.4563Z" fill="url(#paint5_linear_54_294)"/>
<path d="M4.5375 14.2688C5.34781 14.2688 6.00469 13.6119 6.00469 12.8016C6.00469 11.9913 5.34781 11.3344 4.5375 11.3344C3.72719 11.3344 3.07031 11.9913 3.07031 12.8016C3.07031 13.6119 3.72719 14.2688 4.5375 14.2688Z" fill="url(#paint6_linear_54_294)"/>
<path d="M6.70311 14.0813C7.36585 14.0813 7.90311 13.544 7.90311 12.8813C7.90311 12.2185 7.36585 11.6813 6.70311 11.6813C6.04037 11.6813 5.50311 12.2185 5.50311 12.8813C5.50311 13.544 6.04037 14.0813 6.70311 14.0813Z" fill="url(#paint7_linear_54_294)"/>
<path d="M3.31875 13.6219C3.09844 13.9031 2.75625 14.0813 2.37187 14.0813C1.71094 14.0813 1.17188 13.5469 1.17188 12.8813C1.17188 12.2203 1.71094 11.6813 2.37187 11.6813C2.72344 11.6813 3.04219 11.8313 3.25781 12.075C3.13594 12.2906 3.06563 12.5391 3.06563 12.8016C3.07031 13.1063 3.15938 13.3875 3.31875 13.6219Z" fill="url(#paint8_linear_54_294)"/>
<path d="M0 14.6579V18.0938C0 18.286 0.159375 18.4453 0.351563 18.4453H10.7063C10.9828 18.4453 11.2078 18.211 11.2078 17.9203C11.2078 16.5235 10.6641 15.2578 9.79219 14.3391C8.91563 13.425 7.70625 12.8578 6.37031 12.8578H3.41719C2.19844 12.8578 1.0875 13.3266 0.234375 14.1047C0.084375 14.25 0 14.4469 0 14.6579Z" fill="url(#paint9_linear_54_294)"/>
<path d="M11.0109 16.4906C10.9312 16.2 10.8234 15.9234 10.6969 15.6562H0V18.0938C0 18.2859 0.159375 18.4453 0.351562 18.4453H10.7062C10.8187 18.4453 10.9266 18.4031 11.0109 18.3375V16.4906Z" fill="url(#paint10_linear_54_294)"/>
<path d="M1.38751 14.6344L4.39689 17.6438L5.8547 14.6344H1.38751Z" fill="url(#paint11_linear_54_294)"/>
<path d="M6.93749 12.7359C6.77343 12.5109 6.50155 12.3609 6.19686 12.3609C5.98124 12.3609 5.77968 12.4359 5.6203 12.5625C5.42343 12.2391 5.06249 12.0234 4.65468 12.0234C4.28905 12.0234 3.96093 12.1969 3.75936 12.4641C3.59061 12.2859 3.35624 12.1781 3.08905 12.1781C2.70468 12.1781 2.37655 12.4078 2.24061 12.7406H2.17499C1.55155 12.7406 1.04999 13.2375 1.04999 13.8469C1.04999 14.4562 1.55624 14.9531 2.17499 14.9531C2.29218 14.9531 2.40468 14.9344 2.51249 14.9016C2.60155 15.2016 2.8828 15.4266 3.21561 15.4266C3.33749 15.4266 3.45468 15.3984 3.5578 15.3422C3.69843 15.75 4.0828 16.0453 4.54218 16.0453C4.99686 16.0453 5.38593 15.75 5.52655 15.3422C5.62968 15.3937 5.74218 15.4266 5.86874 15.4266C6.20155 15.4266 6.48749 15.2062 6.57186 14.9016C6.67968 14.9344 6.79217 14.9531 6.90936 14.9531C7.5328 14.9531 8.03436 14.4562 8.03436 13.8469C8.02968 13.2422 7.54218 12.75 6.93749 12.7359Z" fill="url(#paint12_linear_54_294)"/>
<path d="M6.93748 12.7359C6.77341 12.5109 6.50154 12.3609 6.19685 12.3609C5.98123 12.3609 5.77966 12.4359 5.62029 12.5625C5.42341 12.2391 5.06248 12.0234 4.65466 12.0234C4.28904 12.0234 3.96091 12.1969 3.75935 12.4641C3.5906 12.2859 3.35623 12.1781 3.08904 12.1781C2.94373 12.1781 2.80779 12.2109 2.68591 12.2719V15.2016C2.82185 15.3422 3.00935 15.4266 3.2156 15.4266C3.33748 15.4266 3.45466 15.3984 3.55779 15.3422C3.69841 15.75 4.08279 16.0453 4.54216 16.0453C4.99685 16.0453 5.38591 15.75 5.52654 15.3422C5.62966 15.3937 5.74216 15.4266 5.86873 15.4266C6.20154 15.4266 6.48748 15.2062 6.57185 14.9016C6.67966 14.9344 6.79216 14.9531 6.90935 14.9531C7.53279 14.9531 8.03435 14.4562 8.03435 13.8469C8.02966 13.2422 7.54216 12.75 6.93748 12.7359Z" fill="url(#paint13_linear_54_294)"/>
<path d="M4.53751 10.3688C5.51251 10.3688 6.3047 11.161 6.3047 12.136V13.0406C6.3047 14.0156 5.51251 14.8078 4.53751 14.8078C3.56251 14.8078 2.77032 14.0156 2.77032 13.0406V12.136C2.77032 11.161 3.56251 10.3688 4.53751 10.3688Z" fill="url(#paint14_linear_54_294)"/>
<path d="M2.8031 13.3969C2.96716 14.2078 3.67966 14.8172 4.53748 14.8172C5.39529 14.8172 6.10779 14.2078 6.27185 13.3969H2.8031Z" fill="url(#paint15_linear_54_294)"/>
<path d="M2.8031 13.3969C2.96716 14.2078 3.67966 14.8172 4.53748 14.8172C5.39529 14.8172 6.10779 14.2078 6.27185 13.3969H2.8031Z" fill="url(#paint16_linear_54_294)"/>
<path d="M0 9.82967C0 9.20155 0.440625 8.67186 1.02656 8.53124C1.18594 8.49374 1.33594 8.61561 1.33594 8.77967V10.889C1.33594 11.0531 1.18594 11.175 1.02656 11.1375C0.440625 10.9922 0 10.4625 0 9.82967Z" fill="url(#paint17_linear_54_294)"/>
<path d="M9.07501 9.82972C9.07501 9.19691 8.63439 8.66722 8.04845 8.5266C7.88907 8.4891 7.73907 8.61097 7.73907 8.77504V10.8844C7.73907 11.0485 7.88907 11.1703 8.04845 11.1328C8.63439 10.9922 9.07501 10.4625 9.07501 9.82972Z" fill="url(#paint18_linear_54_294)"/>
<path d="M4.53748 4.91254C6.50623 4.91254 8.09998 6.50629 8.09998 8.47504V10.3032C8.09998 12.2719 6.50623 13.8657 4.53748 13.8657C2.56873 13.8657 0.974976 12.2719 0.974976 10.3032V8.47504C0.974976 6.50629 2.56873 4.91254 4.53748 4.91254Z" fill="url(#paint19_linear_54_294)"/>
<path d="M4.53748 4.91254V13.8703C6.50623 13.8703 8.09998 12.2766 8.09998 10.3078V8.47972C8.09998 6.50629 6.50623 4.91254 4.53748 4.91254Z" fill="url(#paint20_linear_54_294)"/>
<path d="M1.04065 11.0109C1.36877 12.6422 2.80784 13.8703 4.53752 13.8703C6.26252 13.8703 7.70627 12.6422 8.0344 11.0109H1.04065Z" fill="url(#paint21_linear_54_294)"/>
<path d="M6.31873 12.1735C6.30935 12.0188 6.2531 11.8828 6.15935 11.775C5.97185 11.5594 5.6531 11.475 5.36248 11.611C5.12341 11.7235 4.84216 11.7891 4.53748 11.7891C4.23279 11.7891 3.94685 11.7235 3.71248 11.611C3.42654 11.475 3.1031 11.5594 2.9156 11.775C2.82185 11.8782 2.76091 12.0141 2.75623 12.1735V12.2203C2.75623 12.9282 3.5531 13.5047 4.53748 13.5047C5.52185 13.5047 6.31873 12.9282 6.31873 12.2203V12.1735Z" fill="url(#paint22_linear_54_294)"/>
<path d="M4.73435 11.475H4.3406C4.01248 11.475 3.76404 11.1797 3.82029 10.8563L4.0031 9.81562C4.02654 9.68437 4.14373 9.58594 4.27498 9.58594H4.7906C4.92654 9.58594 5.03904 9.68437 5.06248 9.81562L5.24529 10.8563C5.31092 11.1797 5.06248 11.475 4.73435 11.475Z" fill="url(#paint23_linear_54_294)"/>
<path d="M4.73435 11.475H4.3406C4.01248 11.475 3.76404 11.1797 3.82029 10.8563L4.0031 9.81562C4.02654 9.68437 4.14373 9.58594 4.27498 9.58594H4.7906C4.92654 9.58594 5.03904 9.68437 5.06248 9.81562L5.24529 10.8563C5.31092 11.1797 5.06248 11.475 4.73435 11.475Z" fill="url(#paint24_linear_54_294)"/>
<path d="M4.3406 11.475H4.73435C5.06247 11.475 5.31091 11.1797 5.25466 10.8563L5.07185 9.81562C5.04841 9.68437 4.93122 9.58594 4.79997 9.58594H4.28435C4.14841 9.58594 4.03591 9.68437 4.01247 9.81562L3.82966 10.8563C3.76404 11.1797 4.01247 11.475 4.3406 11.475Z" fill="url(#paint25_linear_54_294)"/>
<path d="M8.62501 8.28282V8.76563C8.62501 8.86875 8.54064 8.95313 8.43751 8.95313H7.56095C7.50001 8.95313 7.44845 8.91563 7.4297 8.85938C7.34064 8.57813 7.22345 8.31094 7.0922 8.06719V8.8125C7.0922 8.8875 7.03126 8.95313 6.95157 8.95313H2.12814C2.05314 8.95313 1.98751 8.89219 1.98751 8.8125V8.06719C1.85157 8.31094 1.73907 8.57813 1.65001 8.85938C1.63126 8.91563 1.5797 8.95313 1.51876 8.95313H0.637512C0.534387 8.95313 0.450012 8.86875 0.450012 8.76563V8.28282C0.450012 6.50157 1.58907 4.98282 3.18282 4.425C3.65626 4.26094 4.18126 4.37813 4.53751 4.72969C4.89376 4.37344 5.41876 4.25625 5.8922 4.425C7.48595 4.98282 8.62501 6.50157 8.62501 8.28282Z" fill="url(#paint26_linear_54_294)"/>
<path d="M1.98749 8.06717V8.81248C1.98749 8.88748 2.04843 8.95311 2.12811 8.95311H6.95155C7.02655 8.95311 7.09218 8.89217 7.09218 8.81248V8.06717C7.08749 6.62342 6.59061 5.36248 5.85468 4.70155C5.48436 4.36405 4.9078 4.37342 4.54686 4.72967L4.54218 4.73436L4.53749 4.72967C4.18124 4.37811 3.60468 4.36873 3.22968 4.70155C2.48905 5.36248 1.99218 6.62342 1.98749 8.06717Z" fill="url(#paint27_linear_54_294)"/>
<path d="M1.98749 8.06717V8.81248C1.98749 8.88748 2.04843 8.95311 2.12811 8.95311H6.95155C7.02655 8.95311 7.09218 8.89217 7.09218 8.81248V8.06717C7.08749 6.62342 6.59061 5.36248 5.85468 4.70155C5.48436 4.36405 4.9078 4.37342 4.54686 4.72967L4.54218 4.73436L4.53749 4.72967C4.18124 4.37811 3.60468 4.36873 3.22968 4.70155C2.48905 5.36248 1.99218 6.62342 1.98749 8.06717Z" fill="url(#paint28_linear_54_294)"/>
<path d="M0.450012 8.28281V8.76562C0.450012 8.86875 0.534387 8.95312 0.637512 8.95312H1.51407C1.57501 8.95312 1.62657 8.91563 1.64532 8.85938C1.73439 8.57812 1.84689 8.31094 1.98282 8.06719V8.8125C1.98282 8.8875 2.04376 8.95312 2.12345 8.95312H6.94689C7.02189 8.95312 7.08751 8.89219 7.08751 8.8125V8.06719C7.22345 8.31094 7.33595 8.57812 7.42501 8.85938C7.44376 8.91563 7.49532 8.95312 7.55626 8.95312H8.43751C8.54064 8.95312 8.62501 8.86875 8.62501 8.76562V8.28281C8.62501 7.79531 8.54064 7.32656 8.38126 6.89062H0.693762C0.534387 7.32656 0.450012 7.79531 0.450012 8.28281Z" fill="url(#paint29_linear_54_294)"/>
<path d="M6.01877 8.81721V8.10002C6.01877 6.75002 5.77034 5.5594 5.39065 4.86096C5.2219 4.5469 4.79534 4.48127 4.54221 4.7344L4.53752 4.73908L4.53284 4.7344C4.27971 4.48596 3.85315 4.55158 3.6844 4.86096C3.30471 5.5594 3.05627 6.75002 3.05627 8.10002V8.81721C3.05627 8.89221 3.09377 8.95783 3.13596 8.95783H5.9344C5.98127 8.95315 6.01877 8.89221 6.01877 8.81721Z" fill="url(#paint30_linear_54_294)"/>
<path d="M6.01877 8.81721V8.10002C6.01877 6.75002 5.77034 5.5594 5.39065 4.86096C5.2219 4.5469 4.79534 4.48127 4.54221 4.7344L4.53752 4.73908L4.53284 4.7344C4.27971 4.48596 3.85315 4.55158 3.6844 4.86096C3.30471 5.5594 3.05627 6.75002 3.05627 8.10002V8.81721C3.05627 8.89221 3.09377 8.95783 3.13596 8.95783H5.9344C5.98127 8.95315 6.01877 8.89221 6.01877 8.81721Z" fill="url(#paint31_linear_54_294)"/>
<path d="M3.24846 10.2281C3.14534 10.2328 3.05159 10.1719 3.00003 10.0781C2.98128 10.0453 2.96253 10.0172 2.9344 9.98908C2.86409 9.91877 2.77503 9.88127 2.67659 9.88127C2.53596 9.88127 2.41409 9.96095 2.35315 10.0781C2.30628 10.1719 2.21253 10.2281 2.1094 10.2235H2.09534C1.90784 10.2188 1.78128 10.0219 1.86565 9.85314C2.02971 9.50626 2.41409 9.28595 2.84065 9.35627C2.9344 9.37033 3.02346 9.40314 3.10784 9.45002C3.27659 9.54377 3.40784 9.68439 3.48753 9.84377C3.5719 10.0125 3.45003 10.2141 3.25784 10.2235C3.26253 10.2281 3.24846 10.2281 3.24846 10.2281Z" fill="url(#paint32_linear_54_294)"/>
<path d="M6.96093 10.2281C6.8578 10.2328 6.76405 10.1719 6.71249 10.0781C6.69374 10.0453 6.67499 10.0172 6.64687 9.98908C6.57655 9.91877 6.48749 9.88127 6.38905 9.88127C6.24843 9.88127 6.12655 9.96095 6.06561 10.0781C6.01874 10.1719 5.92499 10.2281 5.82186 10.2235H5.8078C5.6203 10.2188 5.49374 10.0219 5.57812 9.85314C5.74218 9.50626 6.12186 9.28595 6.54843 9.35627C6.64218 9.37033 6.73124 9.40314 6.81561 9.45002C6.98905 9.54377 7.11562 9.68439 7.1953 9.84845C7.27968 10.0172 7.1578 10.2188 6.96562 10.2281H6.96093Z" fill="url(#paint33_linear_54_294)"/>
<path d="M24 14.6579V18.0938C24 18.286 23.8406 18.4453 23.6484 18.4453H13.2937C13.0172 18.4453 12.7922 18.211 12.7922 17.9203C12.7922 16.5235 13.3359 15.2578 14.2078 14.3391C15.0844 13.425 16.2937 12.8578 17.6297 12.8578H20.5781C21.7969 12.8578 22.9078 13.3266 23.7609 14.1047C23.9156 14.25 24 14.4469 24 14.6579Z" fill="url(#paint34_linear_54_294)"/>
<path d="M24 14.6579V18.0938C24 18.286 23.8406 18.4453 23.6484 18.4453H13.2937C13.0172 18.4453 12.7922 18.211 12.7922 17.9203C12.7922 16.5235 13.3359 15.2578 14.2078 14.3391C15.0844 13.425 16.2937 12.8578 17.6297 12.8578H20.5781C21.7969 12.8578 22.9078 13.3266 23.7609 14.1047C23.9156 14.25 24 14.4469 24 14.6579Z" fill="url(#paint35_linear_54_294)"/>
<path d="M20.5828 12.8625H20.5219V18.45H23.6531C23.8453 18.45 24.0047 18.2906 24.0047 18.0984V14.6578C24.0047 14.4516 23.9203 14.2547 23.7656 14.1141C22.9125 13.3359 21.7969 12.8625 20.5828 12.8625Z" fill="url(#paint36_linear_54_294)"/>
<path d="M13.5281 15.2344C13.0594 16.0125 12.7875 16.9359 12.7875 17.925C12.7875 18.2156 13.0125 18.45 13.289 18.45H23.6437C23.8359 18.45 23.9953 18.2906 23.9953 18.0984V15.2391H13.5281V15.2344Z" fill="url(#paint37_linear_54_294)"/>
<path d="M19.1063 9.98907C20.1703 9.98907 21.0281 10.8516 21.0281 11.9109V12.8953C21.0281 13.9594 20.1656 14.8172 19.1063 14.8172C18.0422 14.8172 17.1844 13.9547 17.1844 12.8953V11.9109C17.1844 10.8516 18.0422 9.98907 19.1063 9.98907Z" fill="url(#paint38_linear_54_294)"/>
<path d="M19.1063 9.98907C20.1703 9.98907 21.0281 10.8516 21.0281 11.9109V12.8953C21.0281 13.9594 20.1656 14.8172 19.1063 14.8172C18.0422 14.8172 17.1844 13.9547 17.1844 12.8953V11.9109C17.1844 10.8516 18.0422 9.98907 19.1063 9.98907Z" fill="url(#paint39_linear_54_294)"/>
<path d="M24 9.16408C24 8.48439 23.5266 7.91252 22.8891 7.76252C22.7203 7.72033 22.5563 7.85158 22.5563 8.02971V10.3031C22.5563 10.4766 22.7203 10.6078 22.8891 10.5703C23.5266 10.4156 24 9.84846 24 9.16408Z" fill="url(#paint40_linear_54_294)"/>
<path d="M19.1063 3.85785C21.2297 3.85785 22.95 5.57816 22.95 7.7016V9.67504C22.95 11.7985 21.2297 13.5188 19.1063 13.5188C16.9828 13.5188 15.2625 11.7985 15.2625 9.67504V7.7016C15.2625 5.57816 16.9828 3.85785 19.1063 3.85785Z" fill="url(#paint41_linear_54_294)"/>
<path d="M19.1063 3.85785V13.5188C21.2297 13.5188 22.95 11.7985 22.95 9.67504V7.7016C22.95 5.57816 21.2297 3.85785 19.1063 3.85785Z" fill="url(#paint42_linear_54_294)"/>
<path d="M15.3375 10.4344C15.6891 12.1922 17.2453 13.5188 19.1063 13.5188C20.9672 13.5188 22.5235 12.1922 22.875 10.4344H15.3375Z" fill="url(#paint43_linear_54_294)"/>
<path d="M21.2391 11.625C21.2297 11.4375 21.1594 11.2735 21.0469 11.1516C20.8219 10.8985 20.4375 10.7953 20.0953 10.9594C19.8141 11.0953 19.4719 11.175 19.1063 11.175C18.7406 11.175 18.4031 11.0953 18.1172 10.9594C17.775 10.7953 17.3906 10.8985 17.1656 11.1516C17.0531 11.2782 16.9828 11.4422 16.9734 11.625V11.6813C16.9734 12.5297 17.9297 13.2188 19.1063 13.2188C20.2828 13.2188 21.2391 12.5297 21.2391 11.6813V11.625Z" fill="url(#paint44_linear_54_294)"/>
<path d="M17.3203 10.4484C17.0109 10.4484 16.7625 10.2 16.7625 9.89062V9.60469C16.7625 9.29531 17.0109 9.04688 17.3203 9.04688C17.6297 9.04688 17.8781 9.29531 17.8781 9.60469V9.89062C17.8781 10.2 17.6297 10.4484 17.3203 10.4484Z" fill="url(#paint45_linear_54_294)"/>
<path d="M20.8922 10.4484C20.5828 10.4484 20.3344 10.2 20.3344 9.89062V9.60469C20.3344 9.29531 20.5828 9.04688 20.8922 9.04688C21.2015 9.04688 21.45 9.29531 21.45 9.60469V9.89062C21.45 10.2 21.1969 10.4484 20.8922 10.4484Z" fill="url(#paint46_linear_54_294)"/>
<path d="M19.3172 10.936H18.8906C18.5344 10.936 18.2672 10.6172 18.3328 10.2657L18.5344 9.14535C18.5578 9.00472 18.6844 8.89691 18.8297 8.89691H19.3875C19.5328 8.89691 19.6547 9.00004 19.6828 9.14535L19.8844 10.2657C19.9406 10.6172 19.6735 10.936 19.3172 10.936Z" fill="url(#paint47_linear_54_294)"/>
<path d="M19.3172 10.936H18.8906C18.5344 10.936 18.2672 10.6172 18.3328 10.2657L18.5344 9.14535C18.5578 9.00472 18.6844 8.89691 18.8297 8.89691H19.3875C19.5328 8.89691 19.6547 9.00004 19.6828 9.14535L19.8844 10.2657C19.9406 10.6172 19.6735 10.936 19.3172 10.936Z" fill="url(#paint48_linear_54_294)"/>
<path d="M18.8953 10.936H19.3219C19.6781 10.936 19.9453 10.6172 19.8797 10.2657L19.6781 9.14535C19.6547 9.00472 19.5281 8.89691 19.3828 8.89691H18.825C18.6797 8.89691 18.5578 9.00004 18.5297 9.14535L18.3281 10.2657C18.2719 10.6172 18.5391 10.936 18.8953 10.936Z" fill="url(#paint49_linear_54_294)"/>
<g opacity="0.55">
<path d="M15.7969 8.65314H18.1875C18.3422 8.65314 18.4641 8.77501 18.4641 8.9297V10.2C18.4641 10.3547 18.3422 10.4766 18.1875 10.4766H15.7969C15.6422 10.4766 15.5203 10.3547 15.5203 10.2V8.9297C15.5203 8.7797 15.6422 8.65314 15.7969 8.65314Z" fill="url(#paint50_linear_54_294)"/>
<path d="M15.7969 8.65314H18.1875C18.3422 8.65314 18.4641 8.77501 18.4641 8.9297V10.2C18.4641 10.3547 18.3422 10.4766 18.1875 10.4766H15.7969C15.6422 10.4766 15.5203 10.3547 15.5203 10.2V8.9297C15.5203 8.7797 15.6422 8.65314 15.7969 8.65314Z" fill="url(#paint51_linear_54_294)"/>
<path d="M15.7969 8.65314H18.1875C18.3422 8.65314 18.4641 8.77501 18.4641 8.9297V10.2C18.4641 10.3547 18.3422 10.4766 18.1875 10.4766H15.7969C15.6422 10.4766 15.5203 10.3547 15.5203 10.2V8.9297C15.5203 8.7797 15.6422 8.65314 15.7969 8.65314Z" fill="url(#paint52_linear_54_294)"/>
<path d="M20.025 8.65314H22.4157C22.5704 8.65314 22.6922 8.77501 22.6922 8.9297V10.2C22.6922 10.3547 22.5704 10.4766 22.4157 10.4766H20.025C19.8704 10.4766 19.7485 10.3547 19.7485 10.2V8.9297C19.7485 8.7797 19.8704 8.65314 20.025 8.65314Z" fill="url(#paint53_linear_54_294)"/>
<path d="M20.025 8.65314H22.4157C22.5704 8.65314 22.6922 8.77501 22.6922 8.9297V10.2C22.6922 10.3547 22.5704 10.4766 22.4157 10.4766H20.025C19.8704 10.4766 19.7485 10.3547 19.7485 10.2V8.9297C19.7485 8.7797 19.8704 8.65314 20.025 8.65314Z" fill="url(#paint54_linear_54_294)"/>
<path d="M20.025 8.65314H22.4157C22.5704 8.65314 22.6922 8.77501 22.6922 8.9297V10.2C22.6922 10.3547 22.5704 10.4766 22.4157 10.4766H20.025C19.8704 10.4766 19.7485 10.3547 19.7485 10.2V8.9297C19.7485 8.7797 19.8704 8.65314 20.025 8.65314Z" fill="url(#paint55_linear_54_294)"/>
</g>
<path d="M18.3234 9.34219V9.525C18.3234 9.65156 18.4687 9.71719 18.5672 9.6375C18.5719 9.6375 18.5719 9.63281 18.5766 9.63281C18.8859 9.38437 19.3312 9.38437 19.6406 9.63281C19.6453 9.63281 19.6453 9.6375 19.65 9.6375C19.7484 9.71719 19.8937 9.65156 19.8937 9.525V9.34219C19.8937 9.25313 19.8469 9.17344 19.7719 9.13125C19.3641 8.90156 18.8578 8.90156 18.45 9.13125C18.3703 9.17813 18.3234 9.25781 18.3234 9.34219Z" fill="url(#paint56_linear_54_294)"/>
<path d="M21.5812 3.26252C20.7844 3.18752 19.9547 3.15002 19.1062 3.15002C18.2531 3.15002 17.4281 3.18752 16.6312 3.26252C15.3797 3.37971 14.5078 4.56565 14.625 5.92034L14.8359 8.44221C14.85 8.60627 14.9859 8.73284 15.1406 8.73284H15.4969C15.6515 8.73284 15.7687 8.60159 15.7594 8.44221L15.7031 7.56096C15.6844 7.2469 16.0265 7.01721 16.3453 7.1344C17.0531 7.3969 18.0328 7.56096 19.1109 7.56096C20.1937 7.56096 21.1734 7.3969 21.8765 7.1344C22.1953 7.01721 22.5422 7.2469 22.5187 7.56096L22.4625 8.44221C22.4531 8.60627 22.5703 8.73284 22.725 8.73284H23.0812C23.2359 8.73284 23.3719 8.60159 23.3859 8.44221L23.5969 5.92034C23.7047 4.56565 22.8375 3.37971 21.5812 3.26252Z" fill="url(#paint57_linear_54_294)"/>
<path d="M21.5812 3.26252C20.7844 3.18752 19.9547 3.15002 19.1062 3.15002C18.9515 3.15002 18.8015 3.15002 18.6469 3.15471V7.55627C18.7969 7.56096 18.9515 7.56565 19.1062 7.56565C20.189 7.56565 21.1687 7.40159 21.8719 7.13909C22.1906 7.0219 22.5375 7.25159 22.514 7.56565L22.4578 8.4469C22.4484 8.61096 22.5656 8.73752 22.7203 8.73752H23.0765C23.2312 8.73752 23.3672 8.60627 23.3812 8.4469L23.5922 5.92502C23.7047 4.56565 22.8375 3.37971 21.5812 3.26252Z" fill="url(#paint58_linear_54_294)"/>
<path d="M19.7485 18.0187C19.7485 18.1969 19.6781 18.3562 19.5703 18.4734C19.4578 18.5906 19.3031 18.6609 19.1344 18.6609H4.86565C4.52815 18.6609 4.25159 18.375 4.25159 18.0187C4.25159 16.3031 4.91721 14.7516 5.99065 13.6266C7.06409 12.5016 8.55002 11.8078 10.1906 11.8078H13.8094C17.0906 11.8078 19.7485 14.5875 19.7485 18.0187Z" fill="url(#paint59_linear_54_294)"/>
<path d="M19.7484 18.0187C19.7484 14.5875 17.0906 11.8078 13.8094 11.8078H12.0187L9.64685 14.1797L14.1281 18.6609H19.1344C19.3031 18.6609 19.4578 18.5906 19.5703 18.4734C19.6781 18.3562 19.7484 18.1969 19.7484 18.0187Z" fill="url(#paint60_linear_54_294)"/>
<path d="M13.8094 11.8078H11.9953V18.6609H19.1344C19.3031 18.6609 19.4578 18.5906 19.5703 18.4734C19.6828 18.3562 19.7484 18.1969 19.7484 18.0187C19.7484 14.5875 17.0906 11.8078 13.8094 11.8078Z" fill="url(#paint61_linear_54_294)"/>
<path d="M13.8094 11.8078H11.9953V18.6609H19.1344C19.3031 18.6609 19.4578 18.5906 19.5703 18.4734C19.6828 18.3562 19.7484 18.1969 19.7484 18.0187C19.7484 14.5875 17.0906 11.8078 13.8094 11.8078Z" fill="url(#paint62_linear_54_294)"/>
<path d="M11.5969 13.0219H12.4078C12.4828 13.0219 12.5438 13.0829 12.5438 13.1579V15.7032C12.5438 15.7782 12.4828 15.8391 12.4078 15.8391H11.5969C11.5219 15.8391 11.4609 15.7782 11.4609 15.7032V13.1579C11.4609 13.0829 11.5219 13.0219 11.5969 13.0219Z" fill="url(#paint63_linear_54_294)"/>
<path d="M11.5969 13.0219H12.4078C12.4828 13.0219 12.5438 13.0829 12.5438 13.1579V15.7032C12.5438 15.7782 12.4828 15.8391 12.4078 15.8391H11.5969C11.5219 15.8391 11.4609 15.7782 11.4609 15.7032V13.1579C11.4609 13.0829 11.5219 13.0219 11.5969 13.0219Z" fill="url(#paint64_linear_54_294)"/>
<path d="M4.25159 18.0188C4.25159 18.375 4.52815 18.661 4.86565 18.661H19.1344C19.3031 18.661 19.4578 18.5906 19.5703 18.4735C19.6828 18.3563 19.7485 18.1969 19.7485 18.0188C19.7485 17.2031 19.5985 16.425 19.3266 15.7125H4.67346C4.40159 16.425 4.25159 17.2031 4.25159 18.0188Z" fill="url(#paint65_linear_54_294)"/>
<path d="M12 10.9828H9.98438L10.1063 12.6328L12 13.875L13.8937 12.6328L14.0156 10.9828H12Z" fill="url(#paint66_linear_54_294)"/>
<path d="M12 10.9828H9.98438L10.1063 12.6328L12 13.875L13.8937 12.6328L14.0156 10.9828H12Z" fill="url(#paint67_linear_54_294)"/>
<path d="M12 13.875C12 13.875 10.4016 12.1735 9.98437 10.9781L8.96718 11.5078C8.78437 11.6016 8.70468 11.8172 8.77499 12.0094L9.51562 14.0344C9.57187 14.1891 9.75937 14.2453 9.89062 14.1516L10.1578 13.9641C10.5281 13.7063 10.9922 13.6219 11.4281 13.7297L12 13.875Z" fill="url(#paint68_linear_54_294)"/>
<path d="M12 13.875C12 13.875 13.5984 12.1735 14.0156 10.9781L15.0328 11.5078C15.2156 11.6016 15.2953 11.8172 15.225 12.0094L14.4844 14.0391C14.4281 14.1938 14.2406 14.25 14.1094 14.1563L13.8422 13.9688C13.4719 13.711 13.0078 13.6266 12.5719 13.7344L12 13.875Z" fill="url(#paint69_linear_54_294)"/>
<path d="M8.42343 20.4562C10.9035 20.4562 12.9141 19.6546 12.9141 18.6656C12.9141 17.6767 10.9035 16.875 8.42343 16.875C5.94332 16.875 3.9328 17.6767 3.9328 18.6656C3.9328 19.6546 5.94332 20.4562 8.42343 20.4562Z" fill="url(#paint70_linear_54_294)"/>
<path d="M15.5766 20.4562C18.0567 20.4562 20.0672 19.6546 20.0672 18.6656C20.0672 17.6767 18.0567 16.875 15.5766 16.875C13.0965 16.875 11.0859 17.6767 11.0859 18.6656C11.0859 19.6546 13.0965 20.4562 15.5766 20.4562Z" fill="url(#paint71_linear_54_294)"/>
<path d="M19.2047 24H4.7953C4.51874 24 4.27968 23.8172 4.21405 23.55L2.92499 18.6422C2.82655 18.2578 3.11249 17.8875 3.50624 17.8875H20.4891C20.8828 17.8875 21.1734 18.2625 21.0703 18.6422L19.7859 23.55C19.7203 23.8172 19.4812 24 19.2047 24Z" fill="url(#paint72_linear_54_294)"/>
<path d="M20.4938 17.8828H14.0203V24H19.2094C19.4859 24 19.725 23.8172 19.7906 23.55L21.075 18.6422C21.1734 18.2578 20.8875 17.8828 20.4938 17.8828Z" fill="url(#paint73_linear_54_294)"/>
<path d="M3.36096 20.3063L4.2094 23.55C4.27971 23.8172 4.51877 24 4.79065 24H19.2047C19.4813 24 19.7203 23.8172 19.786 23.55L20.6344 20.3063H3.36096Z" fill="url(#paint74_linear_54_294)"/>
<path d="M6.07971 7.17187C6.07971 6.38905 6.62346 5.7328 7.35002 5.56405C7.5469 5.51718 7.72971 5.66718 7.72971 5.86874V8.47499C7.72971 8.67655 7.54221 8.82655 7.35002 8.77968C6.62346 8.61093 6.07971 7.95468 6.07971 7.17187Z" fill="url(#paint75_linear_54_294)"/>
<path d="M17.3063 7.17187C17.3063 6.38905 16.7625 5.7328 16.0359 5.56405C15.8391 5.51718 15.6562 5.66718 15.6562 5.86874V8.47499C15.6562 8.67655 15.8438 8.82655 16.0359 8.77968C16.7625 8.61093 17.3063 7.95468 17.3063 7.17187Z" fill="url(#paint76_linear_54_294)"/>
<path d="M11.6953 1.08752C14.1281 1.08752 16.1062 3.06096 16.1062 5.49846V7.75784C16.1062 10.1906 14.1328 12.1688 11.6953 12.1688C9.26249 12.1688 7.28436 10.1953 7.28436 7.75784V5.49846C7.28436 3.06096 9.2578 1.08752 11.6953 1.08752Z" fill="url(#paint77_linear_54_294)"/>
<path d="M11.6953 1.08752V12.1688C14.1281 12.1688 16.1063 10.1953 16.1063 7.75784V5.49846C16.1016 3.06096 14.1281 1.08752 11.6953 1.08752Z" fill="url(#paint78_linear_54_294)"/>
<path d="M7.36877 8.6297C7.7719 10.6453 9.55315 12.1641 11.6906 12.1641C13.8281 12.1641 15.6094 10.6453 16.0125 8.6297H7.36877Z" fill="url(#paint79_linear_54_294)"/>
<path d="M13.9172 9.96098C13.9078 9.7641 13.8328 9.59535 13.7156 9.4641C13.4812 9.19691 13.0828 9.09379 12.7219 9.26254C12.4266 9.40316 12.0703 9.48285 11.6906 9.48285C11.3109 9.48285 10.9547 9.40316 10.6594 9.26254C10.3031 9.09379 9.89999 9.19691 9.66561 9.4641C9.54843 9.59535 9.47343 9.7641 9.46405 9.96098V10.0172C9.46405 10.9032 10.4578 11.6204 11.6859 11.6204C12.9141 11.6204 13.9078 10.9032 13.9078 10.0172C13.9172 9.99848 13.9172 9.97973 13.9172 9.96098Z" fill="url(#paint80_linear_54_294)"/>
<path d="M11.9344 9.20626H11.4469C11.0391 9.20626 10.7344 8.84064 10.8047 8.43751L11.0344 7.15314C11.0625 6.98907 11.2078 6.87189 11.3719 6.87189H12.0094C12.1781 6.87189 12.3187 6.98907 12.3469 7.15314L12.5766 8.43751C12.6516 8.84064 12.3422 9.20626 11.9344 9.20626Z" fill="url(#paint81_linear_54_294)"/>
<path d="M11.9344 9.20626H11.4469C11.0391 9.20626 10.7344 8.84064 10.8047 8.43751L11.0344 7.15314C11.0625 6.98907 11.2078 6.87189 11.3719 6.87189H12.0094C12.1781 6.87189 12.3187 6.98907 12.3469 7.15314L12.5766 8.43751C12.6516 8.84064 12.3422 9.20626 11.9344 9.20626Z" fill="url(#paint82_linear_54_294)"/>
<path d="M11.4515 9.20626H11.939C12.3469 9.20626 12.6515 8.84064 12.5812 8.43751L12.3515 7.15314C12.3234 6.98907 12.1781 6.87189 12.014 6.87189H11.3765C11.2078 6.87189 11.0672 6.98907 11.039 7.15314L10.8094 8.43751C10.7344 8.84064 11.0437 9.20626 11.4515 9.20626Z" fill="url(#paint83_linear_54_294)"/>
<path d="M16.2234 3.58597H15.3844C15.3141 3.51566 15.2156 3.4641 15.1078 3.45472C14.025 3.33285 12.8766 3.27191 11.6906 3.27191C10.5047 3.27191 9.35626 3.33754 8.27345 3.45472C8.03439 3.48285 7.85626 3.68441 7.85626 3.91879V5.73754C7.85626 5.91566 7.71095 6.06097 7.53282 6.06097H7.12501C6.94689 6.06097 6.80157 5.91566 6.80157 5.73754V5.41879C6.80157 2.71879 8.99064 0.529724 11.6906 0.529724C13.7438 0.529724 15.5016 1.79066 16.2234 3.58597Z" fill="url(#paint84_linear_54_294)"/>
<path d="M16.2234 3.58597H15.3844C15.3141 3.51566 15.2156 3.4641 15.1078 3.45472C14.025 3.33285 12.8766 3.27191 11.6906 3.27191C10.5047 3.27191 9.35626 3.33754 8.27345 3.45472C8.03439 3.48285 7.85626 3.68441 7.85626 3.91879V5.73754C7.85626 5.91566 7.71095 6.06097 7.53282 6.06097H7.12501C6.94689 6.06097 6.80157 5.91566 6.80157 5.73754V5.41879C6.80157 2.71879 8.99064 0.529724 11.6906 0.529724C13.7438 0.529724 15.5016 1.79066 16.2234 3.58597Z" fill="url(#paint85_linear_54_294)"/>
<path d="M7.50938 2.70938C7.86095 4.02657 9.3422 6.64688 15.525 6.1125C16.1859 6.05625 16.7016 5.55 16.6922 4.96875C16.6688 3.7875 16.3219 1.84688 14.4609 0.614065C13.3078 -0.154685 10.0969 -0.510935 7.90314 1.47657C7.53751 1.80469 7.3922 2.27344 7.50938 2.70938Z" fill="url(#paint86_linear_54_294)"/>
<path d="M14.4656 0.609386C13.8 0.168761 12.4547 -0.135927 11.0109 0.0609482L11.8125 6.00939C12.8109 6.18751 14.0297 6.24376 15.525 6.11251C16.1859 6.05626 16.7016 5.55001 16.6922 4.96876C16.6734 3.78751 16.3219 1.84689 14.4656 0.609386Z" fill="url(#paint87_linear_54_294)"/>
<path d="M7.50937 2.70941C7.86094 4.0266 9.34219 6.64691 15.525 6.11254C16.1859 6.05629 16.7016 5.55004 16.6922 4.96879C16.6734 4.02191 16.4484 2.58754 15.4031 1.42035L7.47656 2.4891C7.48125 2.5641 7.49062 2.6391 7.50937 2.70941Z" fill="url(#paint88_linear_54_294)"/>
<path d="M10.275 6.80627C10.1578 6.80158 10.0547 6.8672 10.0031 6.97033C9.98437 7.00783 9.96094 7.03595 9.93281 7.06877C9.85781 7.14377 9.75937 7.18595 9.65156 7.18595C9.49687 7.18595 9.36094 7.09689 9.29531 6.97033C9.24375 6.8672 9.14062 6.80627 9.02812 6.81095H9.01406C8.80781 6.81564 8.67187 7.03595 8.76094 7.21877C8.94375 7.60314 9.36562 7.84689 9.83437 7.7672C9.9375 7.74845 10.0359 7.71564 10.1297 7.66408C10.3172 7.56095 10.4625 7.40627 10.5469 7.22814C10.6406 7.04064 10.5047 6.82033 10.2937 6.81095L10.275 6.80627Z" fill="url(#paint89_linear_54_294)"/>
<path d="M14.3672 6.80627C14.25 6.80158 14.1468 6.8672 14.0953 6.97033C14.0765 7.00314 14.0531 7.03595 14.025 7.06877C13.95 7.14377 13.8515 7.18595 13.7437 7.18595C13.589 7.18595 13.4531 7.09689 13.3875 6.97033C13.3359 6.8672 13.2328 6.80627 13.1203 6.81095H13.1062C12.9 6.81564 12.764 7.03595 12.8531 7.21877C13.0359 7.60314 13.4531 7.8422 13.9218 7.7672C14.025 7.74845 14.1234 7.71564 14.2172 7.66408C14.4047 7.56095 14.55 7.40627 14.639 7.22814C14.7328 7.04064 14.5968 6.82033 14.3859 6.81095L14.3672 6.80627Z" fill="url(#paint90_linear_54_294)"/>
<defs>
<linearGradient id="paint0_linear_54_294" x1="3.85969" y1="8.68044" x2="5.26781" y2="12.4583" gradientUnits="userSpaceOnUse">
<stop stop-color="#537983"/>
<stop offset="1" stop-color="#384949"/>
</linearGradient>
<linearGradient id="paint1_linear_54_294" x1="0.984715" y1="11.7597" x2="0.519715" y2="13.5639" gradientUnits="userSpaceOnUse">
<stop stop-color="#554E56" stop-opacity="0"/>
<stop offset="0.399" stop-color="#4C464D" stop-opacity="0.143"/>
<stop offset="0.771" stop-color="#322F33" stop-opacity="0.577"/>
<stop offset="1" stop-color="#1A1A1A"/>
</linearGradient>
<linearGradient id="paint2_linear_54_294" x1="2.64687" y1="9.87032" x2="3.59838" y2="9.2518" gradientUnits="userSpaceOnUse">
<stop stop-color="#554E56" stop-opacity="0"/>
<stop offset="0.399" stop-color="#4C464D" stop-opacity="0.143"/>
<stop offset="0.771" stop-color="#322F33" stop-opacity="0.577"/>
<stop offset="1" stop-color="#1A1A1A"/>
</linearGradient>
<linearGradient id="paint3_linear_54_294" x1="5.31339" y1="9.92825" x2="6.5979" y2="9.16705" gradientUnits="userSpaceOnUse">
<stop stop-color="#554E56" stop-opacity="0"/>
<stop offset="0.399" stop-color="#4C464D" stop-opacity="0.143"/>
<stop offset="0.771" stop-color="#322F33" stop-opacity="0.577"/>
<stop offset="1" stop-color="#1A1A1A"/>
</linearGradient>
<linearGradient id="paint4_linear_54_294" x1="8.17617" y1="10.9322" x2="7.70039" y2="9.86172" gradientUnits="userSpaceOnUse">
<stop stop-color="#554E56" stop-opacity="0"/>
<stop offset="0.399" stop-color="#4C464D" stop-opacity="0.143"/>
<stop offset="0.771" stop-color="#322F33" stop-opacity="0.577"/>
<stop offset="1" stop-color="#1A1A1A"/>
</linearGradient>
<linearGradient id="paint5_linear_54_294" x1="8.48742" y1="11.5374" x2="9.71498" y2="12.8022" gradientUnits="userSpaceOnUse">
<stop stop-color="#554E56" stop-opacity="0"/>
<stop offset="0.399" stop-color="#4C464D" stop-opacity="0.143"/>
<stop offset="0.771" stop-color="#322F33" stop-opacity="0.577"/>
<stop offset="1" stop-color="#1A1A1A"/>
</linearGradient>
<linearGradient id="paint6_linear_54_294" x1="4.33917" y1="12.4555" x2="5.19619" y2="13.9503" gradientUnits="userSpaceOnUse">
<stop stop-color="#554E56" stop-opacity="0"/>
<stop offset="0.399" stop-color="#4C464D" stop-opacity="0.143"/>
<stop offset="0.771" stop-color="#322F33" stop-opacity="0.577"/>
<stop offset="1" stop-color="#1A1A1A"/>
</linearGradient>
<linearGradient id="paint7_linear_54_294" x1="6.68403" y1="12.8503" x2="7.20224" y2="13.787" gradientUnits="userSpaceOnUse">
<stop stop-color="#554E56" stop-opacity="0"/>
<stop offset="0.399" stop-color="#4C464D" stop-opacity="0.143"/>
<stop offset="0.771" stop-color="#322F33" stop-opacity="0.577"/>
<stop offset="1" stop-color="#1A1A1A"/>
</linearGradient>
<linearGradient id="paint8_linear_54_294" x1="2.39372" y1="13.0324" x2="2.73248" y2="13.8694" gradientUnits="userSpaceOnUse">
<stop stop-color="#554E56" stop-opacity="0"/>
<stop offset="0.399" stop-color="#4C464D" stop-opacity="0.143"/>
<stop offset="0.771" stop-color="#322F33" stop-opacity="0.577"/>
<stop offset="1" stop-color="#1A1A1A"/>
</linearGradient>
<linearGradient id="paint9_linear_54_294" x1="4.17516" y1="13.4029" x2="5.41158" y2="17.0341" gradientUnits="userSpaceOnUse">
<stop stop-color="#60B7FF"/>
<stop offset="1" stop-color="#0172FB"/>
</linearGradient>
<linearGradient id="paint10_linear_54_294" x1="5.50561" y1="17.3609" x2="5.50561" y2="18.4545" gradientUnits="userSpaceOnUse">
<stop stop-color="#2740B0" stop-opacity="0"/>
<stop offset="0.192" stop-color="#263FAF" stop-opacity="0.022"/>
<stop offset="0.354" stop-color="#263EAD" stop-opacity="0.092"/>
<stop offset="0.506" stop-color="#253DAA" stop-opacity="0.209"/>
<stop offset="0.652" stop-color="#243BA6" stop-opacity="0.374"/>
<stop offset="0.793" stop-color="#2239A0" stop-opacity="0.587"/>
<stop offset="0.929" stop-color="#20369A" stop-opacity="0.844"/>
<stop offset="1" stop-color="#1F3596"/>
</linearGradient>
<linearGradient id="paint11_linear_54_294" x1="2.96725" y1="16.5039" x2="3.45737" y2="15.1005" gradientUnits="userSpaceOnUse">
<stop stop-color="#2740B0" stop-opacity="0"/>
<stop offset="0.192" stop-color="#263FAF" stop-opacity="0.022"/>
<stop offset="0.354" stop-color="#263EAD" stop-opacity="0.092"/>
<stop offset="0.506" stop-color="#253DAA" stop-opacity="0.209"/>
<stop offset="0.652" stop-color="#243BA6" stop-opacity="0.374"/>
<stop offset="0.793" stop-color="#2239A0" stop-opacity="0.587"/>
<stop offset="0.929" stop-color="#20369A" stop-opacity="0.844"/>
<stop offset="1" stop-color="#1F3596"/>
</linearGradient>
<linearGradient id="paint12_linear_54_294" x1="4.53758" y1="12.9938" x2="4.53758" y2="16.0534" gradientUnits="userSpaceOnUse">
<stop stop-color="#60B7FF"/>
<stop offset="1" stop-color="#0172FB"/>
</linearGradient>
<linearGradient id="paint13_linear_54_294" x1="4.79477" y1="13.8082" x2="5.70813" y2="14.5434" gradientUnits="userSpaceOnUse">
<stop stop-color="#2740B0" stop-opacity="0"/>
<stop offset="0.192" stop-color="#263FAF" stop-opacity="0.022"/>
<stop offset="0.354" stop-color="#263EAD" stop-opacity="0.092"/>
<stop offset="0.506" stop-color="#253DAA" stop-opacity="0.209"/>
<stop offset="0.652" stop-color="#243BA6" stop-opacity="0.374"/>
<stop offset="0.793" stop-color="#2239A0" stop-opacity="0.587"/>
<stop offset="0.929" stop-color="#20369A" stop-opacity="0.844"/>
<stop offset="1" stop-color="#1F3596"/>
</linearGradient>
<linearGradient id="paint14_linear_54_294" x1="4.4117" y1="12.4652" x2="6.06475" y2="14.1182" gradientUnits="userSpaceOnUse">
<stop stop-color="#FFDFCF"/>
<stop offset="1" stop-color="#FFA78F"/>
</linearGradient>
<linearGradient id="paint15_linear_54_294" x1="4.53762" y1="14.1168" x2="4.53762" y2="15.0459" gradientUnits="userSpaceOnUse">
<stop stop-color="#F89580" stop-opacity="0"/>
<stop offset="0.103" stop-color="#F5937E" stop-opacity="0.048"/>
<stop offset="0.275" stop-color="#EE8E79" stop-opacity="0.18"/>
<stop offset="0.495" stop-color="#E38671" stop-opacity="0.393"/>
<stop offset="0.751" stop-color="#D57C65" stop-opacity="0.686"/>
<stop offset="0.997" stop-color="#C5715A"/>
</linearGradient>
<linearGradient id="paint16_linear_54_294" x1="4.53762" y1="14.8659" x2="4.53762" y2="13.458" gradientUnits="userSpaceOnUse">
<stop stop-color="#F89580" stop-opacity="0"/>
<stop offset="0.103" stop-color="#F5937E" stop-opacity="0.048"/>
<stop offset="0.275" stop-color="#EE8E79" stop-opacity="0.18"/>
<stop offset="0.495" stop-color="#E38671" stop-opacity="0.393"/>
<stop offset="0.751" stop-color="#D57C65" stop-opacity="0.686"/>
<stop offset="0.997" stop-color="#C5715A"/>
</linearGradient>
<linearGradient id="paint17_linear_54_294" x1="0.393328" y1="9.25367" x2="1.4685" y2="10.3288" gradientUnits="userSpaceOnUse">
<stop stop-color="#FFDFCF"/>
<stop offset="1" stop-color="#FFA78F"/>
</linearGradient>
<linearGradient id="paint18_linear_54_294" x1="7.32184" y1="9.04949" x2="8.82634" y2="10.554" gradientUnits="userSpaceOnUse">
<stop stop-color="#FFDFCF"/>
<stop offset="1" stop-color="#FFA78F"/>
</linearGradient>
<linearGradient id="paint19_linear_54_294" x1="4.28374" y1="9.13696" x2="7.61585" y2="12.4691" gradientUnits="userSpaceOnUse">
<stop stop-color="#FFDFCF"/>
<stop offset="1" stop-color="#FFA78F"/>
</linearGradient>
<linearGradient id="paint20_linear_54_294" x1="6.14037" y1="9.39079" x2="8.26301" y2="9.39079" gradientUnits="userSpaceOnUse">
<stop stop-color="#F89580" stop-opacity="0"/>
<stop offset="0.103" stop-color="#F5937E" stop-opacity="0.048"/>
<stop offset="0.275" stop-color="#EE8E79" stop-opacity="0.18"/>
<stop offset="0.495" stop-color="#E38671" stop-opacity="0.393"/>
<stop offset="0.751" stop-color="#D57C65" stop-opacity="0.686"/>
<stop offset="0.997" stop-color="#C5715A"/>
</linearGradient>
<linearGradient id="paint21_linear_54_294" x1="4.53766" y1="12.466" x2="4.53766" y2="14.339" gradientUnits="userSpaceOnUse">
<stop stop-color="#F89580" stop-opacity="0"/>
<stop offset="0.103" stop-color="#F5937E" stop-opacity="0.048"/>
<stop offset="0.275" stop-color="#EE8E79" stop-opacity="0.18"/>
<stop offset="0.495" stop-color="#E38671" stop-opacity="0.393"/>
<stop offset="0.751" stop-color="#D57C65" stop-opacity="0.686"/>
<stop offset="0.997" stop-color="#C5715A"/>
</linearGradient>
<linearGradient id="paint22_linear_54_294" x1="4.26307" y1="11.7557" x2="5.1243" y2="13.3101" gradientUnits="userSpaceOnUse">
<stop stop-color="#FE646F"/>
<stop offset="1" stop-color="#C41926"/>
</linearGradient>
<linearGradient id="paint23_linear_54_294" x1="4.53762" y1="10.4315" x2="4.53762" y2="11.6704" gradientUnits="userSpaceOnUse">
<stop stop-color="#C4573A" stop-opacity="0"/>
<stop offset="0.139" stop-color="#C15539" stop-opacity="0.044"/>
<stop offset="0.324" stop-color="#B95237" stop-opacity="0.167"/>
<stop offset="0.535" stop-color="#AD4E35" stop-opacity="0.37"/>
<stop offset="0.765" stop-color="#9C4732" stop-opacity="0.654"/>
<stop offset="1" stop-color="#883F2E"/>
</linearGradient>
<linearGradient id="paint24_linear_54_294" x1="4.75142" y1="10.5795" x2="5.48239" y2="10.7574" gradientUnits="userSpaceOnUse">
<stop stop-color="#C4573A" stop-opacity="0"/>
<stop offset="0.139" stop-color="#C15539" stop-opacity="0.044"/>
<stop offset="0.324" stop-color="#B95237" stop-opacity="0.167"/>
<stop offset="0.535" stop-color="#AD4E35" stop-opacity="0.37"/>
<stop offset="0.765" stop-color="#9C4732" stop-opacity="0.654"/>
<stop offset="1" stop-color="#883F2E"/>
</linearGradient>
<linearGradient id="paint25_linear_54_294" x1="4.32382" y1="10.5795" x2="3.5928" y2="10.7574" gradientUnits="userSpaceOnUse">
<stop stop-color="#FFDDCD" stop-opacity="0"/>
<stop offset="0.089" stop-color="#FFDDCD" stop-opacity="0.027"/>
<stop offset="0.216" stop-color="#FFDDCD" stop-opacity="0.101"/>
<stop offset="0.366" stop-color="#FFDDCD" stop-opacity="0.223"/>
<stop offset="0.535" stop-color="#FFDDCD" stop-opacity="0.393"/>
<stop offset="0.718" stop-color="#FFDDCD" stop-opacity="0.612"/>
<stop offset="0.911" stop-color="#FFDDCD" stop-opacity="0.873"/>
<stop offset="0.997" stop-color="#FFDDCD"/>
</linearGradient>
<linearGradient id="paint26_linear_54_294" x1="1.82767" y1="5.90672" x2="7.45717" y2="8.9175" gradientUnits="userSpaceOnUse">
<stop stop-color="#537983"/>
<stop offset="1" stop-color="#384949"/>
</linearGradient>
<linearGradient id="paint27_linear_54_294" x1="3.60922" y1="3.48922" x2="5.06385" y2="10.8035" gradientUnits="userSpaceOnUse">
<stop stop-color="#554E56" stop-opacity="0"/>
<stop offset="0.399" stop-color="#4C464D" stop-opacity="0.143"/>
<stop offset="0.771" stop-color="#322F33" stop-opacity="0.577"/>
<stop offset="1" stop-color="#1A1A1A"/>
</linearGradient>
<linearGradient id="paint28_linear_54_294" x1="6.19752" y1="6.62351" x2="7.19179" y2="6.52545" gradientUnits="userSpaceOnUse">
<stop stop-color="#554E56" stop-opacity="0"/>
<stop offset="0.399" stop-color="#4C464D" stop-opacity="0.143"/>
<stop offset="0.771" stop-color="#322F33" stop-opacity="0.577"/>
<stop offset="1" stop-color="#1A1A1A"/>
</linearGradient>
<linearGradient id="paint29_linear_54_294" x1="4.53765" y1="8.41425" x2="4.53765" y2="8.99273" gradientUnits="userSpaceOnUse">
<stop stop-color="#554E56" stop-opacity="0"/>
<stop offset="0.399" stop-color="#4C464D" stop-opacity="0.143"/>
<stop offset="0.771" stop-color="#322F33" stop-opacity="0.577"/>
<stop offset="1" stop-color="#1A1A1A"/>
</linearGradient>
<linearGradient id="paint30_linear_54_294" x1="4.02256" y1="7.04496" x2="2.46813" y2="7.4861" gradientUnits="userSpaceOnUse">
<stop stop-color="#554E56" stop-opacity="0"/>
<stop offset="0.399" stop-color="#4C464D" stop-opacity="0.143"/>
<stop offset="0.771" stop-color="#322F33" stop-opacity="0.577"/>
<stop offset="1" stop-color="#1A1A1A"/>
</linearGradient>
<linearGradient id="paint31_linear_54_294" x1="5.53404" y1="6.18424" x2="6.59782" y2="5.13424" gradientUnits="userSpaceOnUse">
<stop stop-color="#554E56" stop-opacity="0"/>
<stop offset="0.399" stop-color="#4C464D" stop-opacity="0.143"/>
<stop offset="0.771" stop-color="#322F33" stop-opacity="0.577"/>
<stop offset="1" stop-color="#1A1A1A"/>
</linearGradient>
<linearGradient id="paint32_linear_54_294" x1="2.09726" y1="9.51053" x2="3.30879" y2="10.3493" gradientUnits="userSpaceOnUse">
<stop stop-color="#537983"/>
<stop offset="1" stop-color="#384949"/>
</linearGradient>
<linearGradient id="paint33_linear_54_294" x1="5.80729" y1="9.51058" x2="7.01882" y2="10.3493" gradientUnits="userSpaceOnUse">
<stop stop-color="#537983"/>
<stop offset="1" stop-color="#384949"/>
</linearGradient>
<linearGradient id="paint34_linear_54_294" x1="17.8976" y1="14.0803" x2="18.811" y2="18.1125" gradientUnits="userSpaceOnUse">
<stop stop-color="#BBEC6C"/>
<stop offset="1" stop-color="#0AB69F"/>
</linearGradient>
<linearGradient id="paint35_linear_54_294" x1="20.6641" y1="15.6119" x2="19.2606" y2="15.8793" gradientUnits="userSpaceOnUse">
<stop stop-color="#037E73" stop-opacity="0"/>
<stop offset="0.256" stop-color="#037E73" stop-opacity="0.022"/>
<stop offset="0.428" stop-color="#037E73" stop-opacity="0.093"/>
<stop offset="0.576" stop-color="#037E73" stop-opacity="0.213"/>
<stop offset="0.711" stop-color="#037E73" stop-opacity="0.384"/>
<stop offset="0.836" stop-color="#037E73" stop-opacity="0.605"/>
<stop offset="0.952" stop-color="#037E73" stop-opacity="0.871"/>
<stop offset="1" stop-color="#037E73"/>
</linearGradient>
<linearGradient id="paint36_linear_54_294" x1="23.1019" y1="15.6555" x2="23.9511" y2="15.6555" gradientUnits="userSpaceOnUse">
<stop stop-color="#037E73" stop-opacity="0"/>
<stop offset="0.256" stop-color="#037E73" stop-opacity="0.022"/>
<stop offset="0.428" stop-color="#037E73" stop-opacity="0.093"/>
<stop offset="0.576" stop-color="#037E73" stop-opacity="0.213"/>
<stop offset="0.711" stop-color="#037E73" stop-opacity="0.384"/>
<stop offset="0.836" stop-color="#037E73" stop-opacity="0.605"/>
<stop offset="0.952" stop-color="#037E73" stop-opacity="0.871"/>
<stop offset="1" stop-color="#037E73"/>
</linearGradient>
<linearGradient id="paint37_linear_54_294" x1="18.3956" y1="17.4055" x2="18.3956" y2="18.3859" gradientUnits="userSpaceOnUse">
<stop stop-color="#037E73" stop-opacity="0"/>
<stop offset="0.256" stop-color="#037E73" stop-opacity="0.022"/>
<stop offset="0.428" stop-color="#037E73" stop-opacity="0.093"/>
<stop offset="0.576" stop-color="#037E73" stop-opacity="0.213"/>
<stop offset="0.711" stop-color="#037E73" stop-opacity="0.384"/>
<stop offset="0.836" stop-color="#037E73" stop-opacity="0.605"/>
<stop offset="0.952" stop-color="#037E73" stop-opacity="0.871"/>
<stop offset="1" stop-color="#037E73"/>
</linearGradient>
<linearGradient id="paint38_linear_54_294" x1="19.1846" y1="12.5979" x2="19.853" y2="14.2242" gradientUnits="userSpaceOnUse">
<stop stop-color="#BB5D4C"/>
<stop offset="1" stop-color="#A44F3E"/>
</linearGradient>
<linearGradient id="paint39_linear_54_294" x1="19.1057" y1="14.5317" x2="19.1057" y2="13.1441" gradientUnits="userSpaceOnUse">
<stop stop-color="#883F2E" stop-opacity="0"/>
<stop offset="0.16" stop-color="#853D2D" stop-opacity="0.088"/>
<stop offset="0.428" stop-color="#7F3B2B" stop-opacity="0.324"/>
<stop offset="0.768" stop-color="#743628" stop-opacity="0.706"/>
<stop offset="0.997" stop-color="#6D3326"/>
</linearGradient>
<linearGradient id="paint40_linear_54_294" x1="22.6266" y1="9.01441" x2="23.6224" y2="9.60278" gradientUnits="userSpaceOnUse">
<stop stop-color="#BB5D4C"/>
<stop offset="1" stop-color="#A44F3E"/>
</linearGradient>
<linearGradient id="paint41_linear_54_294" x1="18.8319" y1="8.41541" x2="22.4259" y2="12.0095" gradientUnits="userSpaceOnUse">
<stop stop-color="#BB5D4C"/>
<stop offset="1" stop-color="#A44F3E"/>
</linearGradient>
<linearGradient id="paint42_linear_54_294" x1="20.8344" y1="8.68921" x2="23.1239" y2="8.68921" gradientUnits="userSpaceOnUse">
<stop stop-color="#883F2E" stop-opacity="0"/>
<stop offset="0.16" stop-color="#853D2D" stop-opacity="0.088"/>
<stop offset="0.428" stop-color="#7F3B2B" stop-opacity="0.324"/>
<stop offset="0.768" stop-color="#743628" stop-opacity="0.706"/>
<stop offset="0.997" stop-color="#6D3326"/>
</linearGradient>
<linearGradient id="paint43_linear_54_294" x1="19.1057" y1="12.0062" x2="19.1057" y2="14.0264" gradientUnits="userSpaceOnUse">
<stop stop-color="#883F2E" stop-opacity="0"/>
<stop offset="0.16" stop-color="#853D2D" stop-opacity="0.088"/>
<stop offset="0.428" stop-color="#7F3B2B" stop-opacity="0.324"/>
<stop offset="0.768" stop-color="#743628" stop-opacity="0.706"/>
<stop offset="0.997" stop-color="#6D3326"/>
</linearGradient>
<linearGradient id="paint44_linear_54_294" x1="18.7771" y1="11.1252" x2="19.8078" y2="12.9855" gradientUnits="userSpaceOnUse">
<stop stop-color="#FE646F"/>
<stop offset="1" stop-color="#C41926"/>
</linearGradient>
<linearGradient id="paint45_linear_54_294" x1="15.4257" y1="8.43455" x2="18.1802" y2="10.3415" gradientUnits="userSpaceOnUse">
<stop stop-color="#537983"/>
<stop offset="1" stop-color="#384949"/>
</linearGradient>
<linearGradient id="paint46_linear_54_294" x1="18.9956" y1="8.43455" x2="21.7502" y2="10.3415" gradientUnits="userSpaceOnUse">
<stop stop-color="#537983"/>
<stop offset="1" stop-color="#384949"/>
</linearGradient>
<linearGradient id="paint47_linear_54_294" x1="19.1057" y1="9.81182" x2="19.1057" y2="11.1481" gradientUnits="userSpaceOnUse">
<stop stop-color="#C4573A" stop-opacity="0"/>
<stop offset="0.139" stop-color="#C15539" stop-opacity="0.044"/>
<stop offset="0.324" stop-color="#B95237" stop-opacity="0.167"/>
<stop offset="0.535" stop-color="#AD4E35" stop-opacity="0.37"/>
<stop offset="0.765" stop-color="#9C4732" stop-opacity="0.654"/>
<stop offset="1" stop-color="#883F2E"/>
</linearGradient>
<linearGradient id="paint48_linear_54_294" x1="19.3362" y1="9.97147" x2="20.1247" y2="10.1632" gradientUnits="userSpaceOnUse">
<stop stop-color="#C4573A" stop-opacity="0"/>
<stop offset="0.139" stop-color="#C15539" stop-opacity="0.044"/>
<stop offset="0.324" stop-color="#B95237" stop-opacity="0.167"/>
<stop offset="0.535" stop-color="#AD4E35" stop-opacity="0.37"/>
<stop offset="0.765" stop-color="#9C4732" stop-opacity="0.654"/>
<stop offset="1" stop-color="#883F2E"/>
</linearGradient>
<linearGradient id="paint49_linear_54_294" x1="18.8751" y1="9.97147" x2="18.0866" y2="10.1632" gradientUnits="userSpaceOnUse">
<stop stop-color="#FFDDCD" stop-opacity="0"/>
<stop offset="0.089" stop-color="#FFDDCD" stop-opacity="0.027"/>
<stop offset="0.216" stop-color="#FFDDCD" stop-opacity="0.101"/>
<stop offset="0.366" stop-color="#FFDDCD" stop-opacity="0.223"/>
<stop offset="0.535" stop-color="#FFDDCD" stop-opacity="0.393"/>
<stop offset="0.718" stop-color="#FFDDCD" stop-opacity="0.612"/>
<stop offset="0.911" stop-color="#FFDDCD" stop-opacity="0.873"/>
<stop offset="0.997" stop-color="#FFDDCD"/>
</linearGradient>
<linearGradient id="paint50_linear_54_294" x1="17.5054" y1="10.8055" x2="16.5085" y2="8.40386" gradientUnits="userSpaceOnUse">
<stop stop-color="white" stop-opacity="0"/>
<stop offset="0.094" stop-color="white" stop-opacity="0.023"/>
<stop offset="0.219" stop-color="white" stop-opacity="0.089"/>
<stop offset="0.361" stop-color="white" stop-opacity="0.197"/>
<stop offset="0.515" stop-color="white" stop-opacity="0.347"/>
<stop offset="0.68" stop-color="white" stop-opacity="0.541"/>
<stop offset="0.851" stop-color="white" stop-opacity="0.772"/>
<stop offset="1" stop-color="white"/>
</linearGradient>
<linearGradient id="paint51_linear_54_294" x1="18.2079" y1="9.56786" x2="18.4512" y2="9.56786" gradientUnits="userSpaceOnUse">
<stop stop-color="white" stop-opacity="0"/>
<stop offset="0.094" stop-color="white" stop-opacity="0.023"/>
<stop offset="0.219" stop-color="white" stop-opacity="0.089"/>
<stop offset="0.361" stop-color="white" stop-opacity="0.197"/>
<stop offset="0.515" stop-color="white" stop-opacity="0.347"/>
<stop offset="0.68" stop-color="white" stop-opacity="0.541"/>
<stop offset="0.851" stop-color="white" stop-opacity="0.772"/>
<stop offset="1" stop-color="white"/>
</linearGradient>
<linearGradient id="paint52_linear_54_294" x1="16.9917" y1="10.1873" x2="16.9917" y2="10.5115" gradientUnits="userSpaceOnUse">
<stop stop-color="white" stop-opacity="0"/>
<stop offset="0.094" stop-color="white" stop-opacity="0.023"/>
<stop offset="0.219" stop-color="white" stop-opacity="0.089"/>
<stop offset="0.361" stop-color="white" stop-opacity="0.197"/>
<stop offset="0.515" stop-color="white" stop-opacity="0.347"/>
<stop offset="0.68" stop-color="white" stop-opacity="0.541"/>
<stop offset="0.851" stop-color="white" stop-opacity="0.772"/>
<stop offset="1" stop-color="white"/>
</linearGradient>
<linearGradient id="paint53_linear_54_294" x1="21.7333" y1="10.8055" x2="20.7365" y2="8.40386" gradientUnits="userSpaceOnUse">
<stop stop-color="white" stop-opacity="0"/>
<stop offset="0.094" stop-color="white" stop-opacity="0.023"/>
<stop offset="0.219" stop-color="white" stop-opacity="0.089"/>
<stop offset="0.361" stop-color="white" stop-opacity="0.197"/>
<stop offset="0.515" stop-color="white" stop-opacity="0.347"/>
<stop offset="0.68" stop-color="white" stop-opacity="0.541"/>
<stop offset="0.851" stop-color="white" stop-opacity="0.772"/>
<stop offset="1" stop-color="white"/>
</linearGradient>
<linearGradient id="paint54_linear_54_294" x1="22.4117" y1="9.56786" x2="22.7714" y2="9.56786" gradientUnits="userSpaceOnUse">
<stop stop-color="white" stop-opacity="0"/>
<stop offset="0.094" stop-color="white" stop-opacity="0.023"/>
<stop offset="0.219" stop-color="white" stop-opacity="0.089"/>
<stop offset="0.361" stop-color="white" stop-opacity="0.197"/>
<stop offset="0.515" stop-color="white" stop-opacity="0.347"/>
<stop offset="0.68" stop-color="white" stop-opacity="0.541"/>
<stop offset="0.851" stop-color="white" stop-opacity="0.772"/>
<stop offset="1" stop-color="white"/>
</linearGradient>
<linearGradient id="paint55_linear_54_294" x1="21.2196" y1="10.1873" x2="21.2196" y2="10.5115" gradientUnits="userSpaceOnUse">
<stop stop-color="white" stop-opacity="0"/>
<stop offset="0.094" stop-color="white" stop-opacity="0.023"/>
<stop offset="0.219" stop-color="white" stop-opacity="0.089"/>
<stop offset="0.361" stop-color="white" stop-opacity="0.197"/>
<stop offset="0.515" stop-color="white" stop-opacity="0.347"/>
<stop offset="0.68" stop-color="white" stop-opacity="0.541"/>
<stop offset="0.851" stop-color="white" stop-opacity="0.772"/>
<stop offset="1" stop-color="white"/>
</linearGradient>
<linearGradient id="paint56_linear_54_294" x1="19.1056" y1="9.04186" x2="19.1056" y2="9.61111" gradientUnits="userSpaceOnUse">
<stop stop-color="#FEF0AE"/>
<stop offset="1" stop-color="#FAC600"/>
</linearGradient>
<linearGradient id="paint57_linear_54_294" x1="18.1034" y1="3.79235" x2="19.1601" y2="6.68285" gradientUnits="userSpaceOnUse">
<stop stop-color="#537983"/>
<stop offset="1" stop-color="#384949"/>
</linearGradient>
<linearGradient id="paint58_linear_54_294" x1="22.1659" y1="5.9779" x2="23.2537" y2="6.01934" gradientUnits="userSpaceOnUse">
<stop stop-color="#554E56" stop-opacity="0"/>
<stop offset="0.399" stop-color="#4C464D" stop-opacity="0.143"/>
<stop offset="0.771" stop-color="#322F33" stop-opacity="0.577"/>
<stop offset="1" stop-color="#1A1A1A"/>
</linearGradient>
<linearGradient id="paint59_linear_54_294" x1="11.1559" y1="13.4277" x2="12.2006" y2="18.7581" gradientUnits="userSpaceOnUse">
<stop stop-color="#E5CAF3"/>
<stop offset="1" stop-color="#AF66DA"/>
</linearGradient>
<linearGradient id="paint60_linear_54_294" x1="14.5797" y1="15.2012" x2="13.477" y2="12.1938" gradientUnits="userSpaceOnUse">
<stop stop-color="#814AA0" stop-opacity="0"/>
<stop offset="0.235" stop-color="#814AA0" stop-opacity="0.017"/>
<stop offset="0.393" stop-color="#814AA0" stop-opacity="0.073"/>
<stop offset="0.529" stop-color="#814AA0" stop-opacity="0.168"/>
<stop offset="0.653" stop-color="#814AA0" stop-opacity="0.303"/>
<stop offset="0.767" stop-color="#814AA0" stop-opacity="0.476"/>
<stop offset="0.876" stop-color="#814AA0" stop-opacity="0.69"/>
<stop offset="0.978" stop-color="#814AA0" stop-opacity="0.938"/>
<stop offset="1" stop-color="#814AA0"/>
</linearGradient>
<linearGradient id="paint61_linear_54_294" x1="16.7764" y1="15.2356" x2="19.6881" y2="15.2356" gradientUnits="userSpaceOnUse">
<stop stop-color="#814AA0" stop-opacity="0"/>
<stop offset="0.235" stop-color="#814AA0" stop-opacity="0.017"/>
<stop offset="0.393" stop-color="#814AA0" stop-opacity="0.073"/>
<stop offset="0.529" stop-color="#814AA0" stop-opacity="0.168"/>
<stop offset="0.653" stop-color="#814AA0" stop-opacity="0.303"/>
<stop offset="0.767" stop-color="#814AA0" stop-opacity="0.476"/>
<stop offset="0.876" stop-color="#814AA0" stop-opacity="0.69"/>
<stop offset="0.978" stop-color="#814AA0" stop-opacity="0.938"/>
<stop offset="1" stop-color="#814AA0"/>
</linearGradient>
<linearGradient id="paint62_linear_54_294" x1="17.7434" y1="14.8444" x2="19.3975" y2="14.5437" gradientUnits="userSpaceOnUse">
<stop stop-color="#E5CAF3" stop-opacity="0"/>
<stop offset="0.167" stop-color="#E5CAF3" stop-opacity="0.013"/>
<stop offset="0.3" stop-color="#E5CAF3" stop-opacity="0.054"/>
<stop offset="0.422" stop-color="#E5CAF3" stop-opacity="0.124"/>
<stop offset="0.536" stop-color="#E5CAF3" stop-opacity="0.221"/>
<stop offset="0.646" stop-color="#E5CAF3" stop-opacity="0.348"/>
<stop offset="0.753" stop-color="#E5CAF3" stop-opacity="0.502"/>
<stop offset="0.856" stop-color="#E5CAF3" stop-opacity="0.686"/>
<stop offset="0.955" stop-color="#E5CAF3" stop-opacity="0.894"/>
<stop offset="1" stop-color="#E5CAF3"/>
</linearGradient>
<linearGradient id="paint63_linear_54_294" x1="11.447" y1="14.4312" x2="12.5003" y2="14.4312" gradientUnits="userSpaceOnUse">
<stop stop-color="#FEF0AE"/>
<stop offset="1" stop-color="#FAC600"/>
</linearGradient>
<linearGradient id="paint64_linear_54_294" x1="12" y1="14.8548" x2="12" y2="13.6507" gradientUnits="userSpaceOnUse">
<stop stop-color="#FE9738" stop-opacity="0"/>
<stop offset="0.102" stop-color="#FE9738" stop-opacity="0.02"/>
<stop offset="0.227" stop-color="#FE9738" stop-opacity="0.078"/>
<stop offset="0.361" stop-color="#FE9738" stop-opacity="0.175"/>
<stop offset="0.505" stop-color="#FE9738" stop-opacity="0.31"/>
<stop offset="0.654" stop-color="#FE9738" stop-opacity="0.483"/>
<stop offset="0.808" stop-color="#FE9738" stop-opacity="0.695"/>
<stop offset="0.965" stop-color="#FE9738" stop-opacity="0.94"/>
<stop offset="1" stop-color="#FE9738"/>
</linearGradient>
<linearGradient id="paint65_linear_54_294" x1="12" y1="16.2916" x2="12" y2="17.748" gradientUnits="userSpaceOnUse">
<stop stop-color="#814AA0" stop-opacity="0"/>
<stop offset="0.235" stop-color="#814AA0" stop-opacity="0.017"/>
<stop offset="0.393" stop-color="#814AA0" stop-opacity="0.073"/>
<stop offset="0.529" stop-color="#814AA0" stop-opacity="0.168"/>
<stop offset="0.653" stop-color="#814AA0" stop-opacity="0.303"/>
<stop offset="0.767" stop-color="#814AA0" stop-opacity="0.476"/>
<stop offset="0.876" stop-color="#814AA0" stop-opacity="0.69"/>
<stop offset="0.978" stop-color="#814AA0" stop-opacity="0.938"/>
<stop offset="1" stop-color="#814AA0"/>
</linearGradient>
<linearGradient id="paint66_linear_54_294" x1="11.4261" y1="11.1361" x2="12.8605" y2="12.6502" gradientUnits="userSpaceOnUse">
<stop stop-color="#FFA78F"/>
<stop offset="1" stop-color="#EC806B"/>
</linearGradient>
<linearGradient id="paint67_linear_54_294" x1="11.9999" y1="12.7046" x2="11.9999" y2="11.6991" gradientUnits="userSpaceOnUse">
<stop stop-color="#CA6E59" stop-opacity="0"/>
<stop offset="0.283" stop-color="#B9614E" stop-opacity="0.256"/>
<stop offset="0.909" stop-color="#8E4332" stop-opacity="0.902"/>
<stop offset="1" stop-color="#883F2E"/>
</linearGradient>
<linearGradient id="paint68_linear_54_294" x1="10.6399" y1="12.4831" x2="9.50381" y2="13.842" gradientUnits="userSpaceOnUse">
<stop stop-color="#FEF0AE"/>
<stop offset="1" stop-color="#FAC600"/>
</linearGradient>
<linearGradient id="paint69_linear_54_294" x1="13.2733" y1="12.4973" x2="14.5483" y2="13.5067" gradientUnits="userSpaceOnUse">
<stop stop-color="#FEF0AE"/>
<stop offset="1" stop-color="#FAC600"/>
</linearGradient>
<linearGradient id="paint70_linear_54_294" x1="8.42291" y1="16.9302" x2="8.42291" y2="17.9695" gradientUnits="userSpaceOnUse">
<stop stop-color="#F5FBFF"/>
<stop offset="1" stop-color="#91DCFA"/>
</linearGradient>
<linearGradient id="paint71_linear_54_294" x1="15.5771" y1="17.0973" x2="15.5771" y2="17.9187" gradientUnits="userSpaceOnUse">
<stop stop-color="#F5FBFF"/>
<stop offset="1" stop-color="#91DCFA"/>
</linearGradient>
<linearGradient id="paint72_linear_54_294" x1="11.8772" y1="17.6275" x2="12.7794" y2="23.9432" gradientUnits="userSpaceOnUse">
<stop stop-color="#FBC56D"/>
<stop offset="1" stop-color="#C5715A"/>
</linearGradient>
<linearGradient id="paint73_linear_54_294" x1="18.4416" y1="21.3287" x2="20.1123" y2="21.8968" gradientUnits="userSpaceOnUse">
<stop stop-color="#8C3D27" stop-opacity="0"/>
<stop offset="0.202" stop-color="#8C3D27" stop-opacity="0.023"/>
<stop offset="0.369" stop-color="#8C3D27" stop-opacity="0.097"/>
<stop offset="0.524" stop-color="#8C3D27" stop-opacity="0.22"/>
<stop offset="0.672" stop-color="#8C3D27" stop-opacity="0.394"/>
<stop offset="0.814" stop-color="#8C3D27" stop-opacity="0.618"/>
<stop offset="0.951" stop-color="#8C3D27" stop-opacity="0.889"/>
<stop offset="1" stop-color="#8C3D27"/>
</linearGradient>
<linearGradient id="paint74_linear_54_294" x1="12" y1="22.4104" x2="12" y2="23.981" gradientUnits="userSpaceOnUse">
<stop stop-color="#8C3D27" stop-opacity="0"/>
<stop offset="0.202" stop-color="#8C3D27" stop-opacity="0.023"/>
<stop offset="0.369" stop-color="#8C3D27" stop-opacity="0.097"/>
<stop offset="0.524" stop-color="#8C3D27" stop-opacity="0.22"/>
<stop offset="0.672" stop-color="#8C3D27" stop-opacity="0.394"/>
<stop offset="0.814" stop-color="#8C3D27" stop-opacity="0.618"/>
<stop offset="0.951" stop-color="#8C3D27" stop-opacity="0.889"/>
<stop offset="1" stop-color="#8C3D27"/>
</linearGradient>
<linearGradient id="paint75_linear_54_294" x1="6.56726" y1="6.45773" x2="7.89706" y2="7.78757" gradientUnits="userSpaceOnUse">
<stop stop-color="#FFA78F"/>
<stop offset="1" stop-color="#EC806B"/>
</linearGradient>
<linearGradient id="paint76_linear_54_294" x1="15.1367" y1="6.20512" x2="16.9976" y2="8.06596" gradientUnits="userSpaceOnUse">
<stop stop-color="#FFA78F"/>
<stop offset="1" stop-color="#EC806B"/>
</linearGradient>
<linearGradient id="paint77_linear_54_294" x1="11.3791" y1="6.31334" x2="15.5004" y2="10.4346" gradientUnits="userSpaceOnUse">
<stop stop-color="#FFA78F"/>
<stop offset="1" stop-color="#EC806B"/>
</linearGradient>
<linearGradient id="paint78_linear_54_294" x1="13.6755" y1="6.62726" x2="16.3009" y2="6.62726" gradientUnits="userSpaceOnUse">
<stop stop-color="#CA6E59" stop-opacity="0"/>
<stop offset="0.283" stop-color="#B9614E" stop-opacity="0.256"/>
<stop offset="0.909" stop-color="#8E4332" stop-opacity="0.902"/>
<stop offset="1" stop-color="#883F2E"/>
</linearGradient>
<linearGradient id="paint79_linear_54_294" x1="11.6931" y1="10.4309" x2="11.6931" y2="12.7475" gradientUnits="userSpaceOnUse">
<stop stop-color="#CA6E59" stop-opacity="0"/>
<stop offset="0.283" stop-color="#B9614E" stop-opacity="0.256"/>
<stop offset="0.909" stop-color="#8E4332" stop-opacity="0.902"/>
<stop offset="1" stop-color="#883F2E"/>
</linearGradient>
<linearGradient id="paint80_linear_54_294" x1="11.3505" y1="9.43912" x2="12.4252" y2="11.3787" gradientUnits="userSpaceOnUse">
<stop stop-color="#FE646F"/>
<stop offset="1" stop-color="#C41926"/>
</linearGradient>
<linearGradient id="paint81_linear_54_294" x1="11.6931" y1="7.91453" x2="11.6931" y2="9.44687" gradientUnits="userSpaceOnUse">
<stop stop-color="#C4573A" stop-opacity="0"/>
<stop offset="0.139" stop-color="#C15539" stop-opacity="0.044"/>
<stop offset="0.324" stop-color="#B95237" stop-opacity="0.167"/>
<stop offset="0.535" stop-color="#AD4E35" stop-opacity="0.37"/>
<stop offset="0.765" stop-color="#9C4732" stop-opacity="0.654"/>
<stop offset="1" stop-color="#883F2E"/>
</linearGradient>
<linearGradient id="paint82_linear_54_294" x1="11.9575" y1="8.09762" x2="12.8616" y2="8.31756" gradientUnits="userSpaceOnUse">
<stop stop-color="#C4573A" stop-opacity="0"/>
<stop offset="0.139" stop-color="#C15539" stop-opacity="0.044"/>
<stop offset="0.324" stop-color="#B95237" stop-opacity="0.167"/>
<stop offset="0.535" stop-color="#AD4E35" stop-opacity="0.37"/>
<stop offset="0.765" stop-color="#9C4732" stop-opacity="0.654"/>
<stop offset="1" stop-color="#883F2E"/>
</linearGradient>
<linearGradient id="paint83_linear_54_294" x1="11.4287" y1="8.09762" x2="10.5245" y2="8.31756" gradientUnits="userSpaceOnUse">
<stop stop-color="#FFDDCD" stop-opacity="0"/>
<stop offset="0.089" stop-color="#FFDDCD" stop-opacity="0.027"/>
<stop offset="0.216" stop-color="#FFDDCD" stop-opacity="0.101"/>
<stop offset="0.366" stop-color="#FFDDCD" stop-opacity="0.223"/>
<stop offset="0.535" stop-color="#FFDDCD" stop-opacity="0.393"/>
<stop offset="0.718" stop-color="#FFDDCD" stop-opacity="0.612"/>
<stop offset="0.911" stop-color="#FFDDCD" stop-opacity="0.873"/>
<stop offset="0.997" stop-color="#FFDDCD"/>
</linearGradient>
<linearGradient id="paint84_linear_54_294" x1="9.09132" y1="2.36671" x2="11.7408" y2="4.53449" gradientUnits="userSpaceOnUse">
<stop stop-color="#FFA78F"/>
<stop offset="1" stop-color="#EC806B"/>
</linearGradient>
<linearGradient id="paint85_linear_54_294" x1="5.81626" y1="0.259959" x2="10.4236" y2="3.49893" gradientUnits="userSpaceOnUse">
<stop stop-color="#CA6E59" stop-opacity="0"/>
<stop offset="0.283" stop-color="#B9614E" stop-opacity="0.256"/>
<stop offset="0.909" stop-color="#8E4332" stop-opacity="0.902"/>
<stop offset="1" stop-color="#883F2E"/>
</linearGradient>
<linearGradient id="paint86_linear_54_294" x1="11.7938" y1="0.79999" x2="12.2561" y2="5.35889" gradientUnits="userSpaceOnUse">
<stop stop-color="#BB5D4C"/>
<stop offset="1" stop-color="#A44F3E"/>
</linearGradient>
<linearGradient id="paint87_linear_54_294" x1="12.8503" y1="3.14284" x2="16.1029" y2="2.70308" gradientUnits="userSpaceOnUse">
<stop stop-color="#883F2E" stop-opacity="0"/>
<stop offset="0.16" stop-color="#853D2D" stop-opacity="0.088"/>
<stop offset="0.428" stop-color="#7F3B2B" stop-opacity="0.324"/>
<stop offset="0.768" stop-color="#743628" stop-opacity="0.706"/>
<stop offset="0.997" stop-color="#6D3326"/>
</linearGradient>
<linearGradient id="paint88_linear_54_294" x1="12.0783" y1="3.20057" x2="12.0887" y2="6.12603" gradientUnits="userSpaceOnUse">
<stop stop-color="#883F2E" stop-opacity="0"/>
<stop offset="0.16" stop-color="#853D2D" stop-opacity="0.088"/>
<stop offset="0.428" stop-color="#7F3B2B" stop-opacity="0.324"/>
<stop offset="0.768" stop-color="#743628" stop-opacity="0.706"/>
<stop offset="0.997" stop-color="#6D3326"/>
</linearGradient>
<linearGradient id="paint89_linear_54_294" x1="9.64697" y1="6.8642" x2="9.64697" y2="7.73308" gradientUnits="userSpaceOnUse">
<stop stop-color="#537983"/>
<stop offset="1" stop-color="#384949"/>
</linearGradient>
<linearGradient id="paint90_linear_54_294" x1="13.7392" y1="6.8642" x2="13.7392" y2="7.73308" gradientUnits="userSpaceOnUse">
<stop stop-color="#537983"/>
<stop offset="1" stop-color="#384949"/>
</linearGradient>
</defs>
</svg>
