<svg width="24" height="24" viewBox="0 0 24 24" fill="none" xmlns="http://www.w3.org/2000/svg">
<path d="M12 22.75C17.9371 22.75 22.75 17.9371 22.75 12C22.75 6.06294 17.9371 1.25 12 1.25C6.06294 1.25 1.25 6.06294 1.25 12C1.25 17.9371 6.06294 22.75 12 22.75Z" fill="#E89B32"/>
<path d="M12 9C12.8284 9 13.5 8.32843 13.5 7.5C13.5 6.67157 12.8284 6 12 6C11.1716 6 10.5 6.67157 10.5 7.5C10.5 8.32843 11.1716 9 12 9Z" fill="#EEF3FF"/>
<path d="M12.5 10.5H11.5C10.9477 10.5 10.5 10.9477 10.5 11.5V17.5C10.5 18.0523 10.9477 18.5 11.5 18.5H12.5C13.0523 18.5 13.5 18.0523 13.5 17.5V11.5C13.5 10.9477 13.0523 10.5 12.5 10.5Z" fill="#EEF3FF"/>
</svg>
