<svg width="24" height="24" viewBox="0 0 24 24" fill="none" xmlns="http://www.w3.org/2000/svg">
<path d="M23.8255 11.9126C23.8255 15.5277 22.2151 18.7665 19.6726 20.9511C19.1143 21.4315 18.5125 21.8589 17.875 22.2279C17.383 22.5133 16.8709 22.7627 16.3429 22.9742C15.7959 23.1936 15.2332 23.3715 14.6596 23.5066C14.0279 23.6559 13.3851 23.753 12.7375 23.7969C12.4652 23.8159 12.19 23.8252 11.9129 23.8252C11.6358 23.8252 11.3605 23.8159 11.0883 23.7969C10.4405 23.753 9.79754 23.6559 9.16573 23.5066C8.59223 23.3716 8.0297 23.1936 7.48287 22.9742C6.95485 22.7627 6.44282 22.5133 5.95076 22.2279C5.31324 21.8587 4.71131 21.4313 4.15268 20.9511C1.61023 18.7659 0.000305176 15.5272 0.000305176 11.9126C0.000305176 5.33344 5.33374 0 11.9129 0C18.492 0 23.8255 5.33339 23.8255 11.9126Z" fill="#FFCC4E"/>
<path d="M23.172 15.8136C21.5568 20.477 17.1258 23.8252 11.913 23.8252C10.003 23.8252 8.19816 23.3759 6.59799 22.577C4.1341 17.8684 2.16723 12.9161 0.729189 7.80007C0.487396 6.94059 0.260782 6.07691 0.0494551 5.20943C-0.180045 4.26809 0.411705 3.32187 1.35839 3.11426C2.50346 2.86338 3.64805 2.61199 4.79311 2.3606C7.99003 1.65949 11.1865 0.957868 14.3835 0.256712L14.8026 0.164837C14.9917 0.123493 15.1808 0.0816809 15.3705 0.040384C15.9034 -0.0762879 16.4324 0.0661653 16.8268 0.386087C17.1098 0.614603 17.3232 0.934572 17.418 1.31477C17.4209 1.32645 17.4238 1.33859 17.4272 1.35026C17.6332 2.17316 17.8569 2.99151 18.0983 3.80473C18.3907 4.78906 18.7088 5.76559 19.0523 6.73329C20.1656 9.87139 21.5438 12.9091 23.172 15.8136Z" fill="#F2F2F2"/>
<path d="M18.0983 3.80473L13.4096 16.7802L12.3992 11.4394L14.8026 0.164837C14.9918 0.123493 15.1809 0.0816809 15.3706 0.040384C15.9035 -0.0762879 16.4325 0.0661653 16.8268 0.386087C17.1098 0.614603 17.3233 0.934572 17.4181 1.31477C17.421 1.32645 17.4239 1.33859 17.4273 1.35026C17.6332 2.17316 17.8569 2.99151 18.0983 3.80473ZM23.1721 15.8136C21.5568 20.477 17.1258 23.8252 11.913 23.8252C10.003 23.8252 8.19816 23.3759 6.59799 22.577C6.07842 21.5844 5.58089 20.5805 5.10577 19.5658C5.58082 19.8977 6.07957 20.1943 6.59799 20.4532C8.19816 21.2521 10.003 21.7014 11.913 21.7014C16.6605 21.7014 20.7599 18.924 22.6737 14.9053C22.8371 15.2095 23.0033 15.5123 23.1721 15.8136Z" fill="#D5D4E2"/>
<path d="M3.74403 8.76529C3.43091 8.76529 3.14146 8.56204 3.04616 8.24681C2.92963 7.86121 3.14764 7.45415 3.53324 7.33762L16.0779 3.54506C16.4637 3.42853 16.8706 3.64659 16.9871 4.03213C17.1036 4.41773 16.8856 4.82479 16.5 4.94132L3.95535 8.73388C3.88499 8.75512 3.81392 8.76529 3.74403 8.76529ZM5.59213 13.1414C5.29757 13.1414 5.02016 12.9616 4.90981 12.6698C4.76736 12.293 4.95725 11.8721 5.33403 11.7296L16.9063 7.35356C17.2829 7.21106 17.704 7.40099 17.8464 7.77778C17.9889 8.15456 17.799 8.57549 17.4222 8.71795L5.84999 13.094C5.76761 13.1253 5.68024 13.1413 5.59213 13.1414ZM7.75616 17.8577C7.4818 17.8577 7.21897 17.7022 7.09503 17.4373C6.92436 17.0724 7.08177 16.6382 7.44664 16.4676L14.6185 13.1126C14.9833 12.9419 15.4175 13.0993 15.5882 13.4642C15.7589 13.8291 15.6015 14.2632 15.2366 14.4339L8.06474 17.7889C7.96818 17.8342 7.86282 17.8577 7.75616 17.8577Z" fill="#D5D4E2"/>
<path d="M18.8981 13.1931L16.2208 14.9433L13.4097 16.7809L13.3136 13.4238L13.2223 10.2266L14.5271 10.2837L18.0345 10.4383L18.8981 13.1931Z" fill="#D5D4E2"/>
<path d="M13.4097 16.7809L13.3136 13.4238L13.2223 10.2266L14.5271 10.2837L15.077 11.5464L13.4097 16.7809Z" fill="#CBCBD3"/>
<path d="M23.8741 3.67338L22.7321 5.85831L17.0563 2.89169L18.1983 0.70675C18.4811 0.165766 19.1488 -0.0434841 19.6897 0.239219L23.4065 2.18195C23.9475 2.46475 24.1568 3.13244 23.8741 3.67338Z" fill="#CF3067"/>
<path d="M23.8741 3.6719L22.7321 5.85683L18.7892 3.79598L19.9312 1.61104C20.214 1.0701 20.8816 0.860804 21.4226 1.14351L23.4066 2.18048C23.9475 2.46327 24.1568 3.13096 23.8741 3.6719Z" fill="#F14881"/>
<path d="M22.7058 5.90813L18.8981 13.1932C18.1145 12.7836 17.147 13.0868 16.7375 13.8704C17.147 13.0868 16.8438 12.1193 16.0602 11.7098C15.2766 11.3003 14.3091 11.6035 13.8996 12.387C14.3091 11.6035 14.0059 10.636 13.2224 10.2264L17.0301 2.94141L22.7058 5.90813Z" fill="#2176C4"/>
<path d="M22.7059 5.90719L18.8981 13.1922C18.1145 12.7827 17.147 13.0859 16.7375 13.8695C17.147 13.0859 16.8438 12.1184 16.0602 11.7089L19.868 4.42383L22.7059 5.90719Z" fill="#72BAED"/>
<path d="M21.2868 5.165L16.7374 13.869C17.1469 13.0854 16.8437 12.1179 16.0601 11.7084C15.2766 11.2988 14.3091 11.6021 13.8995 12.3856L18.4489 3.68164L21.2868 5.165Z" fill="#55ACE5"/>
<path d="M23.0574 6.09215C23.0161 6.17142 22.9597 6.24176 22.8911 6.29913C22.8226 6.35649 22.7435 6.39975 22.6582 6.42641C22.5729 6.4532 22.4832 6.46288 22.3942 6.45488C22.3053 6.44688 22.2187 6.42137 22.1396 6.37982L16.9662 3.67579C16.6332 3.50174 16.5044 3.09107 16.6784 2.75802C16.7656 2.59124 16.9117 2.47579 17.0776 2.42376C17.2436 2.37173 17.4295 2.38321 17.5962 2.47035L22.7697 5.17443C23.1027 5.34843 23.2315 5.75915 23.0574 6.09215Z" fill="#CBCBD3"/>
<path d="M23.0574 6.09086C23.0162 6.17013 22.9597 6.24047 22.8912 6.29784C22.8227 6.3552 22.7435 6.39846 22.6582 6.42512C22.573 6.45191 22.4833 6.46159 22.3943 6.45359C22.3053 6.4456 22.2188 6.42009 22.1396 6.37853L18.5233 4.4883C18.1903 4.31425 18.0615 3.90358 18.2356 3.57053C18.2768 3.49126 18.3333 3.42092 18.4018 3.36355C18.4703 3.30619 18.5495 3.26293 18.6348 3.23627C18.72 3.20948 18.8097 3.1998 18.8987 3.2078C18.9877 3.21579 19.0742 3.2413 19.1533 3.28286L22.7697 5.17309C23.1027 5.34714 23.2315 5.75786 23.0574 6.09086Z" fill="#D5D4E2"/>
<path d="M16.2208 14.9429L13.4096 16.7804L13.3136 13.4234C13.6917 13.412 14.0689 13.4652 14.4292 13.5806C14.614 13.6396 14.7933 13.7145 14.9651 13.8045C15.4931 14.0803 15.9168 14.4771 16.2208 14.9429Z" fill="#454A5B"/>
<path d="M13.4097 16.7804L13.3137 13.4234C13.6917 13.412 14.069 13.4652 14.4292 13.5806L13.4097 16.7804Z" fill="#33384A"/>
</svg>
