<svg width="48" height="36" viewBox="0 0 48 36" fill="none" xmlns="http://www.w3.org/2000/svg">
<path d="M42.8 28C42.5763 27.5439 42.4981 27.03 42.576 26.528C42.928 24.472 46.16 23.624 47.2 23.2C46.16 22.776 42.928 21.928 42.576 19.872C42.224 17.816 44.968 15.896 45.8 15.144C44.68 15.104 41.36 15.432 40.328 13.624C39.296 11.816 41.24 9.056 41.776 8.056C40.712 8.416 37.696 9.872 36.12 8.528C34.544 7.184 35.44 3.92 35.6 2.8C34.72 3.504 32.384 5.92 30.448 5.208C28.512 4.496 28.256 1.112 28.032 0C27.44 0.968 26.056 4.048 24 4.048C21.944 4.048 20.56 0.968 19.968 0C19.744 1.112 19.48 4.488 17.552 5.208C15.624 5.928 13.28 3.504 12.4 2.8C12.56 3.92 13.456 7.192 11.88 8.528C10.304 9.864 7.28799 8.416 6.22399 8.056C6.75999 9.056 8.69599 11.816 7.67199 13.624C6.64799 15.432 3.31999 15.104 2.19999 15.144C3.03199 15.896 5.78399 17.816 5.42399 19.872C5.06399 21.928 1.83999 22.776 0.799988 23.2C1.83999 23.624 5.07199 24.472 5.42399 26.528C5.50185 27.03 5.42366 27.5439 5.19999 28H42.8Z" fill="#F9EAB0"/>
<path d="M39.3368 28.0002C40.0455 25.5993 40.1885 23.0668 39.7547 20.6014C39.3209 18.1359 38.322 15.8044 36.8364 13.7896C35.3507 11.7748 33.4187 10.1313 31.1917 8.98812C28.9646 7.8449 26.5031 7.23294 24 7.2002C21.4969 7.23294 19.0353 7.8449 16.8083 8.98812C14.5813 10.1313 12.6492 11.7748 11.1636 13.7896C9.67798 15.8044 8.67912 18.1359 8.24531 20.6014C7.8115 23.0668 7.95453 25.5993 8.66319 28.0002H39.3368Z" fill="#F0C419"/>
<path d="M16.8 12.8002C17.2418 12.8002 17.6 12.442 17.6 12.0002C17.6 11.5584 17.2418 11.2002 16.8 11.2002C16.3582 11.2002 16 11.5584 16 12.0002C16 12.442 16.3582 12.8002 16.8 12.8002Z" fill="#F9EAB0"/>
<path d="M13.6 16.8002C14.0418 16.8002 14.4 16.442 14.4 16.0002C14.4 15.5584 14.0418 15.2002 13.6 15.2002C13.1582 15.2002 12.8 15.5584 12.8 16.0002C12.8 16.442 13.1582 16.8002 13.6 16.8002Z" fill="#F9EAB0"/>
<path d="M17.6 16.8002C18.0418 16.8002 18.4 16.442 18.4 16.0002C18.4 15.5584 18.0418 15.2002 17.6 15.2002C17.1582 15.2002 16.8 15.5584 16.8 16.0002C16.8 16.442 17.1582 16.8002 17.6 16.8002Z" fill="#F9EAB0"/>
<path d="M47.2 28.8002H0.8C0.587827 28.8002 0.384344 28.7159 0.234315 28.5659C0.0842855 28.4159 0 28.2124 0 28.0002C0 27.788 0.0842855 27.5845 0.234315 27.4345C0.384344 27.2845 0.587827 27.2002 0.8 27.2002H47.2C47.4122 27.2002 47.6157 27.2845 47.7657 27.4345C47.9157 27.5845 48 27.788 48 28.0002C48 28.2124 47.9157 28.4159 47.7657 28.5659C47.6157 28.7159 47.4122 28.8002 47.2 28.8002ZM42.4 32.0002H5.6C5.38783 32.0002 5.18434 31.9159 5.03431 31.7659C4.88429 31.6159 4.8 31.4124 4.8 31.2002C4.8 30.988 4.88429 30.7845 5.03431 30.6345C5.18434 30.4845 5.38783 30.4002 5.6 30.4002H42.4C42.6122 30.4002 42.8157 30.4845 42.9657 30.6345C43.1157 30.7845 43.2 30.988 43.2 31.2002C43.2 31.4124 43.1157 31.6159 42.9657 31.7659C42.8157 31.9159 42.6122 32.0002 42.4 32.0002ZM36.8 36.0002H11.2C10.9878 36.0002 10.7843 35.9159 10.6343 35.7659C10.4843 35.6159 10.4 35.4124 10.4 35.2002C10.4 34.988 10.4843 34.7845 10.6343 34.6345C10.7843 34.4845 10.9878 34.4002 11.2 34.4002H36.8C37.0122 34.4002 37.2157 34.4845 37.3657 34.6345C37.5157 34.7845 37.6 34.988 37.6 35.2002C37.6 35.4124 37.5157 35.6159 37.3657 35.7659C37.2157 35.9159 37.0122 36.0002 36.8 36.0002Z" fill="#F29C1F"/>
</svg>
