<svg width="39" height="39" viewBox="0 0 39 39" fill="none" xmlns="http://www.w3.org/2000/svg">
<path d="M38.2282 24.8613C37.2842 28.1162 35.5081 31.0689 33.0751 33.4283C30.6421 35.7876 27.6362 37.4721 24.3538 38.3157C21.0713 39.1593 17.6257 39.1328 14.3566 38.2389C11.0875 37.345 8.10787 35.6145 5.71142 33.218C3.31496 30.8216 1.58446 27.8419 0.690545 24.5728C-0.203375 21.3038 -0.229849 17.8581 0.613733 14.5757C1.45732 11.2933 3.14182 8.28737 5.50117 5.85437C7.86052 3.42138 10.8132 1.6453 14.0682 0.701251C14.3679 0.615511 14.6869 0.625295 14.9809 0.729242C15.2748 0.833189 15.529 1.02613 15.7082 1.28125C15.8919 1.53412 15.9909 1.83867 15.9909 2.15125C15.9909 2.46383 15.8919 2.76838 15.7082 3.02125C13.949 5.46852 13.0044 8.40729 13.0082 11.4213C13.0135 15.2653 14.5429 18.9503 17.261 21.6685C19.9791 24.3866 23.6642 25.916 27.5082 25.9213C30.5222 25.9251 33.4609 24.9805 35.9082 23.2213C36.1611 23.0375 36.4656 22.9385 36.7782 22.9385C37.0908 22.9385 37.3953 23.0375 37.6482 23.2213C37.9033 23.4004 38.0963 23.6547 38.2002 23.9486C38.3042 24.2425 38.3139 24.5615 38.2282 24.8613ZM38.9282 6.66125C38.8488 6.39307 38.6931 6.1538 38.48 5.97266C38.2669 5.79153 38.0057 5.67637 37.7282 5.64125L33.0882 4.96125L31.0882 0.761251C30.9499 0.529197 30.7537 0.337041 30.5188 0.203598C30.2839 0.0701557 30.0184 0 29.7482 0C29.4781 0 29.2125 0.0701557 28.9776 0.203598C28.7427 0.337041 28.5465 0.529197 28.4082 0.761251L26.4082 4.96125L21.7682 5.64125C21.4907 5.67637 21.2295 5.79153 21.0164 5.97266C20.8033 6.1538 20.6476 6.39307 20.5682 6.66125C20.4789 6.92755 20.4672 7.21376 20.5345 7.48646C20.6018 7.75915 20.7453 8.00707 20.9482 8.20125L24.1282 11.4213L23.3482 16.0413C23.3002 16.3164 23.3311 16.5996 23.4373 16.8579C23.5435 17.1163 23.7206 17.3393 23.9482 17.5013C24.1741 17.6667 24.4418 17.7657 24.7211 17.7869C25.0003 17.8081 25.2799 17.7507 25.5282 17.6213L29.6682 15.4213L33.8082 17.6013C34.0228 17.719 34.2635 17.7809 34.5082 17.7813C34.8269 17.7828 35.1368 17.6772 35.3882 17.4813C35.6158 17.3193 35.7929 17.0963 35.8991 16.8379C36.0053 16.5796 36.0362 16.2964 35.9882 16.0213L35.2082 11.4213L38.5482 8.16125C38.7438 7.97063 38.8828 7.72961 38.9498 7.46487C39.0169 7.20013 39.0094 6.922 38.9282 6.66125Z" fill="url(#paint0_linear_384_1216)"/>
<defs>
<linearGradient id="paint0_linear_384_1216" x1="5.7282" y1="33.2013" x2="35.7282" y2="3.20126" gradientUnits="userSpaceOnUse">
<stop stop-color="#6D03A8"/>
<stop offset="1" stop-color="#FD60C4"/>
</linearGradient>
</defs>
</svg>
