<svg width="19" height="13" viewBox="0 0 19 13" fill="none" xmlns="http://www.w3.org/2000/svg">
<path fill-rule="evenodd" clip-rule="evenodd" d="M18.9998 2.69243V11.9256C17.8706 11.6472 16.711 11.5106 15.548 11.519C13.219 11.519 11.1218 12.0298 9.9046 12.8452V11.7872C10.3656 10.9866 11.9746 10.1794 14.1746 10.1794C15.144 10.168 16.1066 10.344 17.0094 10.6974C17.0797 10.7289 17.1568 10.7421 17.2336 10.7358C17.3104 10.7294 17.3843 10.7037 17.4484 10.661C17.5126 10.6184 17.5649 10.5602 17.6004 10.4918C17.636 10.4235 17.6537 10.3472 17.6518 10.2702V2.40603C18.1068 2.47284 18.5571 2.56857 19 2.69263L18.9998 2.69243ZM4.8258 10.1792C3.85618 10.168 2.8935 10.3442 1.9906 10.6978C1.92031 10.7292 1.84323 10.7422 1.76654 10.7358C1.68985 10.7294 1.61603 10.7037 1.55193 10.6611C1.48784 10.6185 1.43556 10.5603 1.39994 10.4921C1.36432 10.4239 1.34652 10.3478 1.3482 10.2708V2.40583C0.893142 2.47276 0.442825 2.56869 0 2.69303V11.9258C1.12935 11.6472 2.28903 11.5106 3.4522 11.519C5.7162 11.519 7.7624 12.0014 8.9922 12.7772V11.6278C8.3526 10.7674 6.6878 10.1792 4.8258 10.1792ZM4.8258 0.000833666C3.95399 -0.00595394 3.08725 0.133861 2.2618 0.414433V9.63143C3.09371 9.38366 3.95779 9.26072 4.8258 9.26663C6.4912 9.26663 8.0058 9.69403 8.9918 10.3916L8.9922 10.119C8.9922 10.0852 8.9962 10.0518 9.0042 10.019V1.46583C8.373 0.595433 6.699 0.000233614 4.8258 0.000233614V0.000833666ZM16.7392 9.63163V0.414034C15.9138 0.13336 15.047 -0.00652379 14.1752 0.000233614C12.2162 0.000233614 10.4748 0.651033 9.9174 1.58683V10.4578C10.8994 9.72063 12.4578 9.26623 14.1754 9.26623C15.0434 9.26063 15.9072 9.38363 16.7392 9.63123V9.63163Z" fill="currentColor"/>
</svg>
