<svg width="48" height="48" viewBox="0 0 48 48" fill="none" xmlns="http://www.w3.org/2000/svg">
<path d="M24.846 30.1177C24.8083 32.0734 23.2118 33.6467 21.2474 33.6467H20.0315V39.2908C20.0315 39.3923 20.0115 39.4928 19.9727 39.5865C19.9339 39.6803 19.877 39.7655 19.8052 39.8372C19.7335 39.9089 19.6483 39.9659 19.5545 40.0047C19.4608 40.0435 19.3603 40.0635 19.2589 40.0634H15.1205C11.7674 35.5377 10.921 29.8007 11.5065 23.9356C12.5824 23.332 13.2015 22.0688 13.2015 20.6412V19.5171L20.0315 20.0319V26.4486H21.176C23.1945 26.4487 24.8846 28.1002 24.846 30.1177Z" fill="#7293DF"/>
<path d="M15.1205 40.0634H2.23097C0.998625 40.0634 0 39.0648 0 37.8325V20.0319L6.80503 19.5171V20.7128C6.80503 22.6772 7.99003 24.2737 9.94584 24.3113C10.5369 24.3229 11.0614 24.1857 11.5066 23.9356C11.9005 29.8415 13.1252 35.531 15.1205 40.0634Z" fill="#5C85DA"/>
<path d="M19.3081 13.2653H20.5038L20.0314 20.0317H14.3873C13.9614 20.0317 13.6147 20.3774 13.6147 20.8043V21.2272C13.6147 22.6682 12.7687 23.9112 11.546 24.4858C9.55723 16.3512 10.7799 5.67656 15.0837 0H20.0314L20.5366 6.72488H19.4124C17.3939 6.72488 15.7038 8.06831 15.7424 10.0858C15.78 12.0416 17.3436 13.2653 19.3081 13.2653Z" fill="#FBF198"/>
<path d="M11.5461 24.4861C11.0886 24.7006 10.591 24.8164 10.0858 24.826C8.06831 24.8646 6.41672 23.1745 6.41672 21.156V20.8044C6.41674 20.7029 6.39678 20.6025 6.35796 20.5087C6.31914 20.415 6.26223 20.3298 6.19049 20.258C6.11874 20.1863 6.03356 20.1294 5.93981 20.0906C5.84607 20.0517 5.74559 20.0318 5.64412 20.0318H0V2.23131C0 0.998963 0.998625 0.000244141 2.23097 0.000244141H15.0837C12.0126 6.73478 10.8941 15.8741 11.5461 24.4861Z" fill="#F4E74D"/>
<path d="M47.2273 27.7543H41.5835V26.63C41.5835 24.6117 39.9318 22.9216 37.9139 22.9601C35.9584 22.9975 34.3847 24.5944 34.3847 26.5588V27.7542H28.7409C28.6394 27.7542 28.5389 27.7742 28.4452 27.813C28.3514 27.8518 28.2663 27.9087 28.1945 27.9805C28.1228 28.0522 28.0659 28.1374 28.027 28.2311C27.9882 28.3249 27.9682 28.4253 27.9683 28.5268V33.3983C27.9682 33.4998 27.9882 33.6003 28.027 33.694C28.0659 33.7878 28.1228 33.8729 28.1945 33.9447C28.2663 34.0164 28.3514 34.0733 28.4452 34.1121C28.5389 34.151 28.6394 34.1709 28.7409 34.1709H29.0906C31.0569 34.1709 32.7149 35.7173 32.7618 37.683C32.7745 38.1702 32.6876 38.655 32.5065 39.1075C32.3253 39.56 32.0537 39.9707 31.7083 40.3147C31.3745 40.6496 30.9778 40.9152 30.5409 41.0962C30.104 41.2772 29.6357 41.3699 29.1628 41.3692H28.7409C28.6394 41.3691 28.5389 41.3891 28.4452 41.4279C28.3514 41.4668 28.2663 41.5237 28.1945 41.5954C28.1228 41.6672 28.0659 41.7523 28.027 41.8461C27.9882 41.9398 27.9682 42.0403 27.9683 42.1417V47.0133C27.9682 47.1147 27.9882 47.2152 28.027 47.3089C28.0659 47.4027 28.1228 47.4879 28.1945 47.5596C28.2663 47.6314 28.3514 47.6883 28.4452 47.7271C28.5389 47.7659 28.6394 47.7859 28.7409 47.7859H45.7691C47.0012 47.7859 47.9999 46.7872 47.9999 45.5551V28.5269C47.9999 28.322 47.9185 28.1255 47.7736 27.9806C47.6287 27.8357 47.4322 27.7543 47.2273 27.7543Z" fill="#FD7A6E"/>
<path d="M20.0317 0V5.64384C20.0317 5.74531 20.0117 5.84578 19.9729 5.93952C19.934 6.03326 19.8771 6.11843 19.8054 6.19018C19.7336 6.26192 19.6485 6.31883 19.5547 6.35765C19.461 6.39647 19.3605 6.41645 19.2591 6.41644H18.9073C16.8891 6.41644 15.1989 8.06812 15.2375 10.086C15.2749 12.0415 16.8717 13.6152 18.8362 13.6152H19.259C19.3604 13.6152 19.4609 13.6352 19.5546 13.674C19.6484 13.7128 19.7336 13.7697 19.8053 13.8415C19.877 13.9132 19.9339 13.9984 19.9728 14.0921C20.0116 14.1859 20.0316 14.2863 20.0316 14.3878V20.0317H25.6754C25.7769 20.0317 25.8773 20.0117 25.9711 19.9729C26.0648 19.934 26.15 19.8771 26.2217 19.8054C26.2935 19.7337 26.3504 19.6485 26.3892 19.5547C26.428 19.461 26.448 19.3605 26.448 19.2591V18.9093C26.448 16.9431 27.9944 15.285 29.9601 15.2381C30.4473 15.2254 30.932 15.3123 31.3845 15.4935C31.837 15.6746 32.2478 15.9462 32.5917 16.2916C32.9267 16.6254 33.1923 17.0221 33.3732 17.459C33.5542 17.8959 33.647 18.3642 33.6462 18.8371V19.2591C33.6462 19.3605 33.6662 19.461 33.705 19.5547C33.7438 19.6485 33.8007 19.7337 33.8725 19.8054C33.9442 19.8771 34.0294 19.934 34.1231 19.9729C34.2169 20.0117 34.3173 20.0317 34.4188 20.0317H39.2906C39.3921 20.0317 39.4926 20.0117 39.5863 19.9729C39.68 19.934 39.7652 19.8771 39.837 19.8054C39.9087 19.7337 39.9656 19.6485 40.0044 19.5547C40.0433 19.461 40.0632 19.3605 40.0632 19.2591V2.23078C40.0632 0.998719 39.0645 0 37.8324 0H20.0317Z" fill="#80E0B7"/>
</svg>
