<svg width="48" height="45" viewBox="0 0 48 45" fill="none" xmlns="http://www.w3.org/2000/svg">
<path d="M44.3015 8.41455L40.6966 10.0956L37.0918 11.7765L38.7727 15.3813L44.0585 17.3051L45.9824 12.0194L44.3015 8.41455Z" fill="#32393F"/>
<path d="M39.0156 6.49048L35.4108 8.17142L31.8059 9.85245L33.4868 13.4572L38.7727 15.3811L40.6965 10.0954L39.0156 6.49048Z" fill="#D8D8D8"/>
<path d="M33.7299 4.56669L29.7656 3.12378L26.8799 11.0524L33.487 13.4573L35.4109 8.17147L33.7299 4.56669Z" fill="#32393F"/>
<path d="M42.6204 4.80957L39.0156 6.49051L40.6966 10.0954L45.9824 12.0192L48 6.73341L42.6204 4.80957Z" fill="#D8D8D8"/>
<path d="M37.3348 2.88574L42.6205 4.80959L40.6967 10.0954L35.411 8.17146L33.6248 4.8558L37.3348 2.88574Z" fill="#32393F"/>
<path d="M32.049 0.961914L37.3348 2.88576L35.4109 8.17148L28.8037 5.7667L29.8558 2.87601L32.049 0.961914Z" fill="#D8D8D8"/>
<path d="M29.4061 0L24 14.853L18.8247 29.0717L21.4676 30.0337L24 23.0761L32.0488 0.961781L29.4061 0Z" fill="#474F54"/>
<path d="M29.4061 0L24 14.853V23.0761L32.0488 0.961781L29.4061 0Z" fill="#32393F"/>
<path d="M0 33.75L3.74906 39.375L0 45H7.125C11.0018 45 14.1562 41.8456 14.1562 37.9688V33.75H0Z" fill="#FABE2C"/>
<path d="M48 33.75H33.8438V37.9688C33.8438 41.8456 36.9982 45 40.875 45H48L44.2509 39.375L48 33.75Z" fill="#FF9100"/>
<path d="M3.69852 8.41455L7.30339 10.0956L10.9082 11.7765L9.22723 15.3813L3.94142 17.3051L2.01758 12.0194L3.69852 8.41455Z" fill="#474F54"/>
<path d="M8.9844 6.49048L12.5892 8.17142L16.1941 9.85245L14.5131 13.4572L9.22731 15.3811L7.30347 10.0954L8.9844 6.49048Z" fill="#ECECF1"/>
<path d="M14.27 4.56669L18.2345 3.12378L21.1202 11.0524L14.513 13.4573L12.5891 8.17147L14.27 4.56669Z" fill="#474F54"/>
<path d="M5.37956 4.80957L8.98434 6.49051L7.30341 10.0954L2.01759 12.0192L0 6.73341L5.37956 4.80957Z" fill="#ECECF1"/>
<path d="M10.6654 2.88574L5.37964 4.80959L7.30348 10.0954L12.5892 8.17146L14.3754 4.8558L10.6654 2.88574Z" fill="#474F54"/>
<path d="M15.9511 0.961914L10.6653 2.88576L12.5891 8.17148L19.1963 5.7667L18.1443 2.87601L15.9511 0.961914Z" fill="#ECECF1"/>
<path d="M24 14.853L18.5939 0L15.9512 0.961781L24 23.0761L26.5324 30.0337L29.1753 29.0717L24 14.853Z" fill="#575F64"/>
<path d="M29.1753 29.0717L24 14.853V23.0761L26.5324 30.0337L29.1753 29.0717Z" fill="#474F54"/>
<path d="M24 28.125H8.53125V39.375H39.4688V28.125H24Z" fill="#FF9100"/>
<path d="M24 28.125H39.4688V39.375H24V28.125Z" fill="#FF641A"/>
</svg>
