<svg width="18" height="18" viewBox="0 0 18 18" fill="none" xmlns="http://www.w3.org/2000/svg">
<g clip-path="url(#clip0_146_1150)">
<path d="M3.66944 18.0001H14.3299C14.6854 18.0001 15.0264 17.8588 15.2778 17.6074C15.5292 17.356 15.6704 17.0151 15.6704 16.6595V9.9564H2.32888V16.6595C2.32888 17.0151 2.47012 17.356 2.72152 17.6074C2.97293 17.8588 3.3139 18.0001 3.66944 18.0001ZM1.49573 7.47067V9.27004H16.5043V7.47067C16.5043 7.11513 16.363 6.77416 16.1116 6.52276C15.8602 6.27135 15.5193 6.13012 15.1637 6.13012H11.2396C13.1033 6.13012 15.7831 4.32137 15.1959 2.40337C14.7056 0.801064 13.234 -0.00930333 11.7302 8.05702e-05C9.60711 0.0121456 9.05681 4.46313 9.05681 4.46313H8.99983C8.99983 4.46313 8.44987 0.0121456 6.32643 8.05702e-05C4.82232 -0.00930333 3.35106 0.801064 2.86075 2.40337C2.27325 4.32137 4.95336 6.13012 6.81774 6.13012H2.83629C2.48075 6.13012 2.13977 6.27135 1.88837 6.52276C1.63696 6.77416 1.49573 7.11513 1.49573 7.47067ZM13.2916 1.6178C13.2916 1.6178 13.2259 3.80827 10.2824 5.44408C10.2827 5.44408 10.8387 2.63193 13.2916 1.6178ZM4.78981 1.6178C7.24203 2.6316 7.79802 5.44408 7.79802 5.44408C4.85516 3.80827 4.78981 1.6178 4.78981 1.6178Z" fill="none" stroke="black" stroke-width="0.8"/>
</g>
<defs>
<clipPath id="clip0_146_1150">
<rect width="18" height="18" fill="white"/>
</clipPath>
</defs>
</svg>
