<svg width="48" height="48" viewBox="0 0 48 48" fill="none" xmlns="http://www.w3.org/2000/svg">
<path d="M27.4948 2.29665L29.4302 0.308023C29.9843 -0.261227 30.948 -0.0030393 31.1431 0.767023L31.825 3.45699C32.4995 6.1179 35.2365 7.69805 37.8781 6.9518L40.5487 6.1973C41.3131 5.9813 42.0186 6.68677 41.8026 7.45121L41.0481 10.1218C40.3018 12.7635 41.8819 15.5004 44.5429 16.1749L47.2329 16.8568C48.003 17.052 48.2611 18.0156 47.6919 18.5697L45.7033 20.5051C43.7361 22.4198 43.7361 25.5801 45.7033 27.4947L47.6919 29.4301C48.2611 29.9842 48.003 30.9479 47.2329 31.1431L44.5429 31.8249C41.882 32.4994 40.3019 35.2364 41.0481 37.8781L41.8026 40.5486C42.0186 41.3131 41.3131 42.0185 40.5487 41.8025L37.8781 41.048C35.2365 40.3017 32.4995 41.8818 31.825 44.5428L31.1431 47.2328C30.948 48.0029 29.9843 48.2611 29.4302 47.6918L27.4948 45.7032C25.5801 43.736 22.4198 43.736 20.5052 45.7032L18.5698 47.6918C18.0157 48.2611 17.0521 48.0029 16.8569 47.2328L16.175 44.5428C15.5005 41.8819 12.7636 40.3018 10.1219 41.048L7.4513 41.8025C6.68687 42.0185 5.9814 41.3131 6.1974 40.5486L6.9519 37.8781C7.69824 35.2364 6.11809 32.4994 3.45709 31.8249L0.767117 31.1431C-0.0029456 30.9479 -0.261133 29.9842 0.308117 29.4301L2.29674 27.4947C4.2639 25.58 4.2639 22.4197 2.29674 20.5051L0.308023 18.5697C-0.261227 18.0156 -0.0030393 17.052 0.767023 16.8568L3.45699 16.1749C6.1179 15.5004 7.69805 12.7635 6.9518 10.1218L6.1973 7.45121C5.9813 6.68677 6.68677 5.9813 7.45121 6.1973L10.1218 6.9518C12.7635 7.69815 15.5004 6.11799 16.1749 3.45699L16.8568 0.767023C17.052 -0.0030393 18.0156 -0.261227 18.5697 0.308023L20.5051 2.29665C22.4198 4.2638 25.5801 4.2638 27.4948 2.29665Z" fill="#FFE177"/>
<path d="M45.7033 20.5055L47.6919 18.5701C48.2611 18.016 48.003 17.0524 47.2329 16.8572L44.5429 16.1753C41.882 15.5008 40.3019 12.7639 41.0482 10.1222L41.8027 7.4516C42.0187 6.68716 41.3132 5.98169 40.5488 6.19769L37.8782 6.95219C37.5509 7.04478 37.2147 7.10303 36.8753 7.12601C38.3873 10.1216 39.24 13.5068 39.24 17.0915C39.2401 29.2936 29.2931 39.2404 17.091 39.2404C13.5063 39.2404 10.1211 38.3878 7.12552 36.8758C7.10254 37.2152 7.04428 37.5513 6.95171 37.8786L6.19721 40.5492C5.98121 41.3136 6.68667 42.0191 7.45111 41.8031L10.1217 41.0486C12.7634 40.3023 15.5003 41.8824 16.1748 44.5434L16.8567 47.2334C17.0519 48.0034 18.0155 48.2616 18.5696 47.6924L20.505 45.7038C22.4197 43.7366 25.58 43.7366 27.4946 45.7038L29.43 47.6924C29.9841 48.2616 30.9478 48.0034 31.143 47.2334L31.8248 44.5434C32.4993 41.8825 35.2363 40.3023 37.878 41.0486L40.5485 41.8031C41.313 42.0191 42.0184 41.3136 41.8024 40.5492L41.0479 37.8786C40.3016 35.2369 41.8817 32.5 44.5426 31.8255L47.2326 31.1436C48.0027 30.9484 48.2609 29.9848 47.6916 29.4307L45.703 27.4953C43.7361 25.5805 43.7361 22.4202 45.7033 20.5055Z" fill="#FFD15B"/>
<path d="M45.7033 20.5055L47.6919 18.5701C48.2611 18.016 48.003 17.0524 47.2329 16.8572L44.5429 16.1753C41.882 15.5008 40.3019 12.7639 41.0482 10.1222L41.8027 7.4516C42.0187 6.68716 41.3132 5.98169 40.5488 6.19769L37.8782 6.95219C37.5509 7.04478 37.2147 7.10303 36.8753 7.12601C38.3873 10.1216 39.24 13.5068 39.24 17.0915C39.2401 29.2936 29.2931 39.2404 17.091 39.2404C13.5063 39.2404 10.1211 38.3878 7.12552 36.8758C7.10254 37.2152 7.04428 37.5513 6.95171 37.8786L6.19721 40.5492C5.98121 41.3136 6.68667 42.0191 7.45111 41.8031L10.1217 41.0486C12.7634 40.3023 15.5003 41.8824 16.1748 44.5434L16.8567 47.2334C17.0519 48.0034 18.0155 48.2616 18.5696 47.6924L20.505 45.7038C22.4197 43.7366 25.58 43.7366 27.4946 45.7038L29.43 47.6924C29.9841 48.2616 30.9478 48.0034 31.143 47.2334L31.8248 44.5434C32.4993 41.8825 35.2363 40.3023 37.878 41.0486L40.5485 41.8031C41.313 42.0191 42.0184 41.3136 41.8024 40.5492L41.0479 37.8786C40.3016 35.2369 41.8817 32.5 44.5426 31.8255L47.2326 31.1436C48.0027 30.9484 48.2609 29.9848 47.6916 29.4307L45.703 27.4953C43.7361 25.5805 43.7361 22.4202 45.7033 20.5055Z" fill="#FFD15B"/>
<path d="M24 40.2559C32.9778 40.2559 40.2558 32.9779 40.2558 24C40.2558 15.0221 32.9778 7.74414 24 7.74414C15.0221 7.74414 7.74408 15.0221 7.74408 24C7.74408 32.9779 15.0221 40.2559 24 40.2559Z" fill="#FFC344"/>
<path d="M33.7416 10.9854C35.777 13.7003 36.9829 17.0727 36.9829 20.727C36.9829 29.7049 29.7049 36.9829 20.7271 36.9829C17.0728 36.9829 13.7003 35.777 10.9854 33.7416C13.9506 37.6966 18.6764 40.2558 24 40.2558C32.9778 40.2558 40.2558 32.9778 40.2558 23.9999C40.2558 18.6763 37.6967 13.9506 33.7416 10.9854Z" fill="#FEB237"/>
</svg>
