<svg width="48" height="45" viewBox="0 0 48 45" fill="none" xmlns="http://www.w3.org/2000/svg">
<path d="M17.4295 0H22.8467V44.032H17.4295C7.80421 44.0321 -7.62939e-06 34.1748 -7.62939e-06 22.0161C-7.62939e-06 9.85734 7.80421 0 17.4295 0Z" fill="url(#paint0_linear_369_4956)"/>
<path d="M17.4295 0H22.8467V44.032H17.4295C7.80421 44.0321 -7.62939e-06 34.1748 -7.62939e-06 22.0161C-7.62939e-06 9.85734 7.80421 0 17.4295 0Z" fill="url(#paint1_linear_369_4956)"/>
<path d="M22.8468 44.0325H17.4296C7.80421 44.0325 -1.14441e-05 34.1752 -1.14441e-05 22.0165C-1.14441e-05 20.9399 0.0623302 19.8819 0.18055 18.8467H22.8468V44.0325Z" fill="url(#paint2_linear_369_4956)"/>
<path d="M22.8468 44.0317C13.2208 44.0317 5.41743 34.1749 5.41743 22.0159C5.41743 9.85684 13.2208 0 22.8468 0C32.4727 0 40.2761 9.85684 40.2761 22.0159C40.2761 34.1749 32.4727 44.0317 22.8468 44.0317Z" fill="url(#paint3_linear_369_4956)"/>
<path d="M22.6612 21.1045H40.2601C40.2703 21.4083 40.2757 21.7123 40.2761 22.0163C40.2761 34.1754 32.4727 44.0322 22.8468 44.0322C17.0638 44.0322 11.9396 40.4736 8.76909 34.9966L22.6612 21.1045Z" fill="url(#paint4_linear_369_4956)"/>
<path d="M40.2761 22.0164C40.2761 34.1755 32.4727 44.0322 22.8468 44.0322C13.2208 44.0322 5.41743 34.1755 5.41743 22.0164C5.41743 21.576 5.42887 21.139 5.44902 20.7051H40.2444C40.2647 21.139 40.2761 21.576 40.2761 22.0164Z" fill="url(#paint5_linear_369_4956)"/>
<path d="M26.6017 20.7051H40.2444C40.2646 21.139 40.276 21.576 40.276 22.0164C40.276 32.5468 34.4226 41.3488 26.6017 43.5183V20.7051Z" fill="url(#paint6_linear_369_4956)"/>
<path d="M22.8468 0C23.8121 0.000373786 24.7747 0.10069 25.7194 0.299344V43.7325C24.7747 43.9311 23.8121 44.0315 22.8468 44.0318C13.2208 44.0318 5.41742 34.175 5.41742 22.016C5.41742 9.85697 13.2208 0 22.8468 0Z" fill="url(#paint7_linear_369_4956)"/>
<path d="M22.8468 3.92969C30.754 3.92969 37.1648 12.0276 37.1648 22.0158C37.1648 32.0039 30.754 40.1018 22.8468 40.1018C14.9395 40.1018 8.52873 32.0039 8.52873 22.0158C8.52873 12.0276 14.9395 3.92969 22.8468 3.92969ZM22.8468 36.4852C29.173 36.4852 34.3016 30.0064 34.3016 22.0158C34.3016 14.0251 29.173 7.54628 22.8468 7.54628C16.5205 7.54628 11.392 14.025 11.392 22.0158C11.392 30.0065 16.5205 36.4852 22.8468 36.4852Z" fill="url(#paint8_linear_369_4956)"/>
<path d="M22.8468 11.4707C27.458 11.4707 31.1951 16.1921 31.1951 22.0165C31.1951 27.8408 27.458 32.5622 22.8468 32.5622C18.2356 32.5622 14.4983 27.8408 14.4983 22.0165C14.4983 16.1921 18.2356 11.4707 22.8468 11.4707ZM22.8468 28.3355C25.61 28.3355 27.8497 25.5063 27.8497 22.0165C27.8497 18.5266 25.6101 15.6974 22.8468 15.6974C20.0835 15.6974 17.8439 18.5266 17.8439 22.0165C17.8439 25.5063 20.0835 28.3355 22.8468 28.3355Z" fill="url(#paint9_linear_369_4956)"/>
<path d="M18.5372 25.2276C19.4081 27.0876 21.0122 28.3345 22.8469 28.3345C25.6097 28.3345 27.8494 25.5051 27.8494 22.0157C27.8494 21.7054 27.8316 21.4007 27.7978 21.1035H31.1634C31.185 21.4045 31.1953 21.7082 31.1953 22.0157C31.1953 27.8404 27.4575 32.5616 22.8469 32.5616C19.9481 32.5616 17.3953 30.697 15.9 27.8648L18.5372 25.2276Z" fill="url(#paint10_linear_369_4956)"/>
<path d="M13.4587 30.307C15.5297 34.0429 18.9628 36.4851 22.8469 36.4851C29.1731 36.4851 34.3012 30.006 34.3012 22.0157C34.3012 21.7091 34.2937 21.4054 34.2787 21.1035H37.1466C37.1587 21.4054 37.1644 21.7101 37.1644 22.0157C37.1644 32.0038 30.7537 40.102 22.8469 40.102C18.0525 40.102 13.8094 37.1254 11.2097 32.556L13.4587 30.307Z" fill="url(#paint11_linear_369_4956)"/>
<path d="M30.7906 22.0156H42.7981L47.8409 14.8297C48.245 14.2541 47.8325 13.4609 47.1293 13.4609H46.6081C46.099 13.4609 45.6218 13.7084 45.3303 14.1256L44.1706 15.7775L44.6234 14.1894C44.7275 13.8247 44.4537 13.4609 44.074 13.4609H42.001C41.9017 13.4609 41.8059 13.4982 41.7328 13.5656L41.434 13.8403C41.3712 13.8981 41.2914 13.9341 41.2065 13.9429C41.1216 13.9516 41.0361 13.9327 40.9628 13.889C40.9036 13.8537 40.8362 13.8345 40.7673 13.8332C40.6984 13.8319 40.6303 13.8486 40.5698 13.8816L40.1021 14.1372C40.0128 14.186 39.9098 14.204 39.8092 14.1882C39.7086 14.1725 39.616 14.124 39.5458 14.0502C39.1584 13.6432 38.5787 13.4845 38.0365 13.6321C36.9472 13.9287 35.996 14.5971 35.3478 15.5215L30.7906 22.0156Z" fill="url(#paint12_linear_369_4956)"/>
<path d="M42.7981 22.0161H30.7906L34.3553 16.9365H46.3628L42.7981 22.0161Z" fill="url(#paint13_linear_369_4956)"/>
<path d="M35.3478 15.5216C35.996 14.5972 36.9472 13.9288 38.0365 13.6322C38.5787 13.4846 39.1584 13.6433 39.5458 14.0503C39.616 14.1241 39.7086 14.1726 39.8092 14.1883C39.9098 14.2041 40.0128 14.1861 40.1021 14.1373L40.5698 13.8817C40.6303 13.8486 40.6984 13.8319 40.7673 13.8332C40.8362 13.8345 40.9036 13.8537 40.9628 13.889C41.0361 13.9327 41.1216 13.9516 41.2065 13.9428C41.2914 13.934 41.3712 13.8981 41.434 13.8403L41.7328 13.5656C41.8059 13.4983 41.9017 13.4609 42.001 13.4609H44.074C44.4537 13.4609 44.7275 13.8247 44.6234 14.1894L44.1799 15.745L39.7795 22.0156H30.7907L35.3478 15.5216Z" fill="url(#paint14_linear_369_4956)"/>
<path d="M35.3478 15.5216C35.996 14.5972 36.9472 13.9288 38.0365 13.6322C38.5787 13.4846 39.1584 13.6433 39.5458 14.0503C39.616 14.1241 39.7086 14.1726 39.8092 14.1883C39.9098 14.2041 40.0128 14.1861 40.1021 14.1373L40.5698 13.8817C40.6303 13.8486 40.6984 13.8319 40.7673 13.8332C40.8362 13.8345 40.9036 13.8537 40.9628 13.889C41.0361 13.9327 41.1216 13.9516 41.2065 13.9428C41.2914 13.934 41.3712 13.8981 41.434 13.8403L41.7328 13.5656C41.8059 13.4983 41.9017 13.4609 42.001 13.4609H44.074C44.204 13.4606 44.3302 13.5052 44.4312 13.587C44.3488 13.5956 44.2665 13.61 44.185 13.6322C43.0957 13.9288 42.1445 14.5972 41.4963 15.5216L36.9391 22.0156H30.7906L35.3478 15.5216Z" fill="url(#paint15_linear_369_4956)"/>
<path d="M35.3478 15.5217C35.996 14.5973 36.9472 13.9289 38.0365 13.6323C38.5787 13.4847 39.1584 13.6434 39.5458 14.0505C39.616 14.1242 39.7086 14.1727 39.8092 14.1885C39.9098 14.2042 40.0128 14.1862 40.1021 14.1374L40.5698 13.8818C40.6303 13.8487 40.6984 13.832 40.7673 13.8333C40.8362 13.8346 40.9036 13.8538 40.9628 13.8891C41.0114 13.9179 41.0655 13.9359 41.1216 13.9421C41.1777 13.9482 41.2345 13.9422 41.2881 13.9246C40.5276 14.2829 39.8738 14.8334 39.3911 15.5217L34.8339 22.0157H30.7906L35.3478 15.5217Z" fill="url(#paint16_linear_369_4956)"/>
<path d="M35.3478 15.5217C35.996 14.5973 36.9472 13.9289 38.0365 13.6323C38.5787 13.4847 39.1584 13.6434 39.5458 14.0505C39.616 14.1242 39.7086 14.1727 39.8092 14.1885C39.9098 14.2042 40.0128 14.1862 40.1021 14.1374L40.5698 13.8818C40.6303 13.8487 40.6984 13.832 40.7673 13.8333C40.8362 13.8346 40.9036 13.8538 40.9628 13.8891C41.0114 13.9179 41.0655 13.9359 41.1216 13.9421C41.1777 13.9482 41.2345 13.9422 41.2881 13.9246C40.5276 14.2829 39.8738 14.8334 39.3911 15.5217L34.8339 22.0157H30.7906L35.3478 15.5217Z" fill="url(#paint17_linear_369_4956)"/>
<path d="M30.7906 22.0156H42.7981L47.8409 29.2016C48.245 29.7772 47.8325 30.5703 47.1293 30.5703H46.6081C46.099 30.5703 45.6218 30.3228 45.3303 29.9056L44.1706 28.2538L44.6234 29.8419C44.7275 30.2066 44.4537 30.5703 44.074 30.5703H42.001C41.9017 30.5703 41.8059 30.533 41.7328 30.4657L41.434 30.1909C41.3712 30.1331 41.2914 30.0971 41.2065 30.0884C41.1216 30.0796 41.0361 30.0985 40.9628 30.1422C40.9036 30.1775 40.8362 30.1968 40.7673 30.1981C40.6984 30.1994 40.6303 30.1827 40.5698 30.1497L40.1021 29.8941C40.0128 29.8452 39.9098 29.8273 39.8092 29.843C39.7086 29.8587 39.616 29.9072 39.5458 29.981C39.1584 30.3881 38.5787 30.5468 38.0365 30.3991C36.9472 30.1026 35.996 29.4341 35.3478 28.5098L30.7906 22.0156Z" fill="url(#paint18_linear_369_4956)"/>
<path d="M45.6119 26.0254L47.8409 29.2018C48.245 29.7775 47.8325 30.5706 47.1293 30.5706H46.6081C46.099 30.5706 45.6218 30.3231 45.3303 29.9059L44.1706 28.254L44.6234 29.8421C44.7275 30.2068 44.4537 30.5706 44.074 30.5706H42.001C41.9017 30.5706 41.8059 30.5333 41.7328 30.466L41.434 30.1912C41.3712 30.1334 41.2914 30.0974 41.2065 30.0886C41.1216 30.0799 41.0361 30.0988 40.9628 30.1425C40.9036 30.1778 40.8362 30.1971 40.7673 30.1983C40.6984 30.1996 40.6303 30.183 40.5698 30.1499L40.1021 29.8944C40.0128 29.8455 39.9098 29.8276 39.8092 29.8433C39.7086 29.859 39.616 29.9075 39.5458 29.9813C39.1584 30.3883 38.5787 30.547 38.0365 30.3994C36.9472 30.1028 35.996 29.4344 35.3478 28.51L33.6043 26.0255H45.6119V26.0254Z" fill="url(#paint19_linear_369_4956)"/>
<path d="M35.3478 28.5097C35.996 29.434 36.9472 30.1024 38.0365 30.399C38.5787 30.5467 39.1584 30.388 39.5458 29.9809C39.616 29.9071 39.7086 29.8586 39.8092 29.8429C39.9098 29.8272 40.0128 29.8452 40.1021 29.894L40.5698 30.1496C40.6303 30.1826 40.6984 30.1994 40.7673 30.1981C40.8362 30.1968 40.9036 30.1776 40.9628 30.1422C41.0361 30.0986 41.1216 30.0797 41.2065 30.0885C41.2914 30.0972 41.3712 30.1332 41.434 30.1909L41.7328 30.4657C41.8059 30.533 41.9017 30.5703 42.001 30.5703H44.074C44.4537 30.5703 44.7275 30.2066 44.6234 29.8419L44.1799 28.2863L39.7795 22.0156H30.7907L35.3478 28.5097Z" fill="url(#paint20_linear_369_4956)"/>
<path d="M35.3478 28.5097C35.996 29.434 36.9472 30.1024 38.0365 30.399C38.5787 30.5467 39.1584 30.388 39.5458 29.9809C39.616 29.9071 39.7086 29.8586 39.8092 29.8429C39.9098 29.8272 40.0128 29.8452 40.1021 29.894L40.5698 30.1496C40.6303 30.1826 40.6984 30.1994 40.7673 30.1981C40.8362 30.1968 40.9036 30.1776 40.9628 30.1423C41.0361 30.0986 41.1216 30.0797 41.2065 30.0885C41.2914 30.0972 41.3712 30.1332 41.434 30.1909L41.7328 30.4657C41.8059 30.533 41.9017 30.5703 42.001 30.5703H44.074C44.204 30.5706 44.3302 30.5261 44.4312 30.4442C44.3481 30.4359 44.2657 30.4208 44.185 30.399C43.0957 30.1025 42.1445 29.4341 41.4963 28.5097L36.9391 22.0156H30.7906L35.3478 28.5097Z" fill="url(#paint21_linear_369_4956)"/>
<path d="M35.3478 28.5097C35.996 29.434 36.9472 30.1024 38.0365 30.399C38.5787 30.5467 39.1584 30.388 39.5458 29.9809C39.616 29.9071 39.7086 29.8586 39.8092 29.8429C39.9098 29.8272 40.0128 29.8452 40.1021 29.894L40.5698 30.1496C40.6303 30.1826 40.6984 30.1994 40.7673 30.1981C40.8362 30.1968 40.9036 30.1776 40.9628 30.1422C41.0114 30.1135 41.0655 30.0954 41.1216 30.0893C41.1777 30.0832 41.2345 30.0892 41.2881 30.1068C40.5276 29.7485 39.8738 29.198 39.3911 28.5097L34.8339 22.0156H30.7906L35.3478 28.5097Z" fill="url(#paint22_linear_369_4956)"/>
<path d="M35.3478 28.5097C35.996 29.434 36.9472 30.1024 38.0365 30.399C38.5787 30.5467 39.1584 30.388 39.5458 29.9809C39.616 29.9071 39.7086 29.8586 39.8092 29.8429C39.9098 29.8272 40.0128 29.8452 40.1021 29.894L40.5698 30.1496C40.6303 30.1826 40.6984 30.1994 40.7673 30.1981C40.8362 30.1968 40.9036 30.1776 40.9628 30.1422C41.0114 30.1135 41.0655 30.0954 41.1216 30.0893C41.1777 30.0832 41.2345 30.0892 41.2881 30.1068C40.5276 29.7485 39.8738 29.198 39.3911 28.5097L34.8339 22.0156H30.7906L35.3478 28.5097Z" fill="url(#paint23_linear_369_4956)"/>
<path d="M22.2991 22.0157V22.0292C22.2997 22.7463 22.8812 23.3272 23.5983 23.3272H46.6884C47.4128 23.3272 48 22.7401 48 22.0157C48 21.2914 47.4128 20.7041 46.6884 20.7041H23.5982C22.8811 20.7041 22.2997 21.2851 22.299 22.0022L22.2991 22.0157Z" fill="url(#paint24_linear_369_4956)"/>
<defs>
<linearGradient id="paint0_linear_369_4956" x1="11.4233" y1="1.74872" x2="11.4233" y2="44.6565" gradientUnits="userSpaceOnUse">
<stop stop-color="#FFA1AE"/>
<stop offset="1" stop-color="#FF4565"/>
</linearGradient>
<linearGradient id="paint1_linear_369_4956" x1="11.4867" y1="25.1564" x2="0.906648" y2="29.7852" gradientUnits="userSpaceOnUse">
<stop stop-color="#FE0364" stop-opacity="0"/>
<stop offset="0.234" stop-color="#F90362" stop-opacity="0.234"/>
<stop offset="0.517" stop-color="#EA035B" stop-opacity="0.517"/>
<stop offset="0.824" stop-color="#D20250" stop-opacity="0.824"/>
<stop offset="1" stop-color="#C00148"/>
</linearGradient>
<linearGradient id="paint2_linear_369_4956" x1="11.4233" y1="23.24" x2="11.4233" y2="42.7073" gradientUnits="userSpaceOnUse">
<stop stop-color="#FE0364" stop-opacity="0"/>
<stop offset="0.234" stop-color="#F90362" stop-opacity="0.234"/>
<stop offset="0.517" stop-color="#EA035B" stop-opacity="0.517"/>
<stop offset="0.824" stop-color="#D20250" stop-opacity="0.824"/>
<stop offset="1" stop-color="#C00148"/>
</linearGradient>
<linearGradient id="paint3_linear_369_4956" x1="35.4418" y1="14.7703" x2="8.10984" y2="30.4936" gradientUnits="userSpaceOnUse">
<stop stop-color="#FFA1AE"/>
<stop offset="1" stop-color="#FF4565"/>
</linearGradient>
<linearGradient id="paint4_linear_369_4956" x1="24.5566" y1="30.412" x2="27.0962" y2="21.9243" gradientUnits="userSpaceOnUse">
<stop stop-color="#FE0364" stop-opacity="0"/>
<stop offset="0.234" stop-color="#F90362" stop-opacity="0.234"/>
<stop offset="0.517" stop-color="#EA035B" stop-opacity="0.517"/>
<stop offset="0.824" stop-color="#D20250" stop-opacity="0.824"/>
<stop offset="1" stop-color="#C00148"/>
</linearGradient>
<linearGradient id="paint5_linear_369_4956" x1="22.8468" y1="33.0486" x2="22.8468" y2="45.6424" gradientUnits="userSpaceOnUse">
<stop stop-color="#FE0364" stop-opacity="0"/>
<stop offset="0.234" stop-color="#F90362" stop-opacity="0.234"/>
<stop offset="0.517" stop-color="#EA035B" stop-opacity="0.517"/>
<stop offset="0.824" stop-color="#D20250" stop-opacity="0.824"/>
<stop offset="1" stop-color="#C00148"/>
</linearGradient>
<linearGradient id="paint6_linear_369_4956" x1="31.6476" y1="28.6108" x2="34.4099" y2="26.0712" gradientUnits="userSpaceOnUse">
<stop stop-color="#FE0364" stop-opacity="0"/>
<stop offset="0.234" stop-color="#F90362" stop-opacity="0.234"/>
<stop offset="0.517" stop-color="#EA035B" stop-opacity="0.517"/>
<stop offset="0.824" stop-color="#D20250" stop-opacity="0.824"/>
<stop offset="1" stop-color="#C00148"/>
</linearGradient>
<linearGradient id="paint7_linear_369_4956" x1="16.5296" y1="26.2106" x2="7.38224" y2="34.0356" gradientUnits="userSpaceOnUse">
<stop stop-color="#FE0364" stop-opacity="0"/>
<stop offset="0.234" stop-color="#F90362" stop-opacity="0.234"/>
<stop offset="0.517" stop-color="#EA035B" stop-opacity="0.517"/>
<stop offset="0.824" stop-color="#D20250" stop-opacity="0.824"/>
<stop offset="1" stop-color="#C00148"/>
</linearGradient>
<linearGradient id="paint8_linear_369_4956" x1="33.1934" y1="16.0637" x2="10.7407" y2="28.9801" gradientUnits="userSpaceOnUse">
<stop stop-color="#F5FBFF"/>
<stop offset="1" stop-color="#DBD5EF"/>
</linearGradient>
<linearGradient id="paint9_linear_369_4956" x1="28.8798" y1="18.5458" x2="15.7878" y2="26.0772" gradientUnits="userSpaceOnUse">
<stop stop-color="#F5FBFF"/>
<stop offset="1" stop-color="#DBD5EF"/>
</linearGradient>
<linearGradient id="paint10_linear_369_4956" x1="23.6058" y1="25.8121" x2="25.1206" y2="21.1784" gradientUnits="userSpaceOnUse">
<stop stop-color="#DBD5EF" stop-opacity="0"/>
<stop offset="0.285" stop-color="#D9D2EE" stop-opacity="0.285"/>
<stop offset="0.474" stop-color="#D4C9E9" stop-opacity="0.474"/>
<stop offset="0.635" stop-color="#CBBAE2" stop-opacity="0.635"/>
<stop offset="0.779" stop-color="#BFA5D7" stop-opacity="0.78"/>
<stop offset="0.913" stop-color="#AF8ACA" stop-opacity="0.913"/>
<stop offset="1" stop-color="#A274BF"/>
</linearGradient>
<linearGradient id="paint11_linear_369_4956" x1="29.5968" y1="27.666" x2="32.5819" y2="25.26" gradientUnits="userSpaceOnUse">
<stop stop-color="#DBD5EF" stop-opacity="0"/>
<stop offset="0.285" stop-color="#D9D2EE" stop-opacity="0.285"/>
<stop offset="0.474" stop-color="#D4C9E9" stop-opacity="0.474"/>
<stop offset="0.635" stop-color="#CBBAE2" stop-opacity="0.635"/>
<stop offset="0.779" stop-color="#BFA5D7" stop-opacity="0.78"/>
<stop offset="0.913" stop-color="#AF8ACA" stop-opacity="0.913"/>
<stop offset="1" stop-color="#A274BF"/>
</linearGradient>
<linearGradient id="paint12_linear_369_4956" x1="39.3953" y1="14.5022" x2="39.3953" y2="19.7739" gradientUnits="userSpaceOnUse">
<stop stop-color="#B3DAFE"/>
<stop offset="1" stop-color="#0182FC"/>
</linearGradient>
<linearGradient id="paint13_linear_369_4956" x1="38.5767" y1="19.0751" x2="38.5767" y2="21.4151" gradientUnits="userSpaceOnUse">
<stop stop-color="#314DC9" stop-opacity="0"/>
<stop offset="0.276" stop-color="#304BC4" stop-opacity="0.276"/>
<stop offset="0.563" stop-color="#2B45B8" stop-opacity="0.563"/>
<stop offset="0.854" stop-color="#243BA3" stop-opacity="0.854"/>
<stop offset="1" stop-color="#1F3596"/>
</linearGradient>
<linearGradient id="paint14_linear_369_4956" x1="39.0592" y1="19.1402" x2="41.2981" y2="21.212" gradientUnits="userSpaceOnUse">
<stop stop-color="#314DC9" stop-opacity="0"/>
<stop offset="0.276" stop-color="#304BC4" stop-opacity="0.276"/>
<stop offset="0.563" stop-color="#2B45B8" stop-opacity="0.563"/>
<stop offset="0.854" stop-color="#243BA3" stop-opacity="0.854"/>
<stop offset="1" stop-color="#1F3596"/>
</linearGradient>
<linearGradient id="paint15_linear_369_4956" x1="37.8691" y1="18.15" x2="39.7738" y2="20.7231" gradientUnits="userSpaceOnUse">
<stop stop-color="#314DC9" stop-opacity="0"/>
<stop offset="0.276" stop-color="#304BC4" stop-opacity="0.276"/>
<stop offset="0.563" stop-color="#2B45B8" stop-opacity="0.563"/>
<stop offset="0.854" stop-color="#243BA3" stop-opacity="0.854"/>
<stop offset="1" stop-color="#1F3596"/>
</linearGradient>
<linearGradient id="paint16_linear_369_4956" x1="36.9223" y1="18.3252" x2="40.1636" y2="19.6284" gradientUnits="userSpaceOnUse">
<stop stop-color="#314DC9" stop-opacity="0"/>
<stop offset="0.276" stop-color="#304BC4" stop-opacity="0.276"/>
<stop offset="0.563" stop-color="#2B45B8" stop-opacity="0.563"/>
<stop offset="0.854" stop-color="#243BA3" stop-opacity="0.854"/>
<stop offset="1" stop-color="#1F3596"/>
</linearGradient>
<linearGradient id="paint17_linear_369_4956" x1="35.807" y1="17.8427" x2="34.1028" y2="16.9069" gradientUnits="userSpaceOnUse">
<stop stop-color="#314DC9" stop-opacity="0"/>
<stop offset="0.276" stop-color="#304BC4" stop-opacity="0.276"/>
<stop offset="0.563" stop-color="#2B45B8" stop-opacity="0.563"/>
<stop offset="0.854" stop-color="#243BA3" stop-opacity="0.854"/>
<stop offset="1" stop-color="#1F3596"/>
</linearGradient>
<linearGradient id="paint18_linear_369_4956" x1="41.2842" y1="22.9935" x2="37.8424" y2="28.4403" gradientUnits="userSpaceOnUse">
<stop stop-color="#B3DAFE"/>
<stop offset="1" stop-color="#0182FC"/>
</linearGradient>
<linearGradient id="paint19_linear_369_4956" x1="40.8022" y1="28.2643" x2="40.8022" y2="30.8479" gradientUnits="userSpaceOnUse">
<stop stop-color="#314DC9" stop-opacity="0"/>
<stop offset="0.276" stop-color="#304BC4" stop-opacity="0.276"/>
<stop offset="0.563" stop-color="#2B45B8" stop-opacity="0.563"/>
<stop offset="0.854" stop-color="#243BA3" stop-opacity="0.854"/>
<stop offset="1" stop-color="#1F3596"/>
</linearGradient>
<linearGradient id="paint20_linear_369_4956" x1="39.0592" y1="24.891" x2="41.2981" y2="22.8192" gradientUnits="userSpaceOnUse">
<stop stop-color="#314DC9" stop-opacity="0"/>
<stop offset="0.276" stop-color="#304BC4" stop-opacity="0.276"/>
<stop offset="0.563" stop-color="#2B45B8" stop-opacity="0.563"/>
<stop offset="0.854" stop-color="#243BA3" stop-opacity="0.854"/>
<stop offset="1" stop-color="#1F3596"/>
</linearGradient>
<linearGradient id="paint21_linear_369_4956" x1="37.8691" y1="25.8812" x2="39.7738" y2="23.3082" gradientUnits="userSpaceOnUse">
<stop stop-color="#314DC9" stop-opacity="0"/>
<stop offset="0.276" stop-color="#304BC4" stop-opacity="0.276"/>
<stop offset="0.563" stop-color="#2B45B8" stop-opacity="0.563"/>
<stop offset="0.854" stop-color="#243BA3" stop-opacity="0.854"/>
<stop offset="1" stop-color="#1F3596"/>
</linearGradient>
<linearGradient id="paint22_linear_369_4956" x1="36.9223" y1="25.7062" x2="40.1636" y2="24.403" gradientUnits="userSpaceOnUse">
<stop stop-color="#314DC9" stop-opacity="0"/>
<stop offset="0.276" stop-color="#304BC4" stop-opacity="0.276"/>
<stop offset="0.563" stop-color="#2B45B8" stop-opacity="0.563"/>
<stop offset="0.854" stop-color="#243BA3" stop-opacity="0.854"/>
<stop offset="1" stop-color="#1F3596"/>
</linearGradient>
<linearGradient id="paint23_linear_369_4956" x1="35.807" y1="26.1888" x2="34.1028" y2="27.1244" gradientUnits="userSpaceOnUse">
<stop stop-color="#314DC9" stop-opacity="0"/>
<stop offset="0.276" stop-color="#304BC4" stop-opacity="0.276"/>
<stop offset="0.563" stop-color="#2B45B8" stop-opacity="0.563"/>
<stop offset="0.854" stop-color="#243BA3" stop-opacity="0.854"/>
<stop offset="1" stop-color="#1F3596"/>
</linearGradient>
<linearGradient id="paint24_linear_369_4956" x1="35.1495" y1="21.0234" x2="35.1495" y2="22.6399" gradientUnits="userSpaceOnUse">
<stop stop-color="#5A5A5A"/>
<stop offset="1" stop-color="#444444"/>
</linearGradient>
</defs>
</svg>
