<svg width="32" height="24" viewBox="0 0 32 24" fill="none" xmlns="http://www.w3.org/2000/svg">
<path d="M25.0037 23.284H18.1381V16.3465H20.407C20.9824 16.3465 21.3224 15.6927 20.9824 15.2219L16.5689 9.11483C16.2877 8.72252 15.7058 8.72252 15.4246 9.11483L11.011 15.2219C10.671 15.6927 11.0045 16.3465 11.5864 16.3465H13.8553V23.284H6.16592C2.73314 23.0944 0 19.8839 0 16.4054C0 14.0057 1.30119 11.9134 3.23008 10.7822C3.05353 10.3049 2.96199 9.79485 2.96199 9.25868C2.96199 6.8067 4.9432 4.8255 7.39518 4.8255C7.92481 4.8255 8.43482 4.91704 8.91214 5.09358C10.331 2.08582 13.3911 0 16.9481 0C21.5513 0.00653862 25.3437 3.53085 25.7752 8.02289C29.3126 8.63098 32 11.9068 32 15.6142C32 19.5766 28.9138 23.0094 25.0037 23.284Z" fill="#E89B32"/>
</svg>
