<svg width="20" height="17" viewBox="0 0 20 17" fill="none" xmlns="http://www.w3.org/2000/svg">
<path d="M17.5 3.4H4.16667C3.45083 3.4 2.77333 3.0838 2.30417 2.55085C2.7625 2.02895 3.42833 1.7 4.16667 1.7H19.1667C20.2567 1.6949 20.2558 0.00425 19.1667 0H4.16667C1.86583 0 0 1.90315 0 4.25V12.75C0 15.0969 1.86583 17 4.16667 17H17.5C18.8808 17 20 15.8584 20 14.45V5.95C20 4.54155 18.8808 3.4 17.5 3.4ZM16.6667 11.05C15.5767 11.0449 15.5767 9.3551 16.6667 9.35C17.7567 9.3551 17.7567 11.0449 16.6667 11.05Z" fill="#1B648E"/>
</svg>
